<?xml version="1.0" encoding="UTF-8"?><svg xmlns="http://www.w3.org/2000/svg" xmlns:xlink="http://www.w3.org/1999/xlink" fill-opacity="1" color-rendering="auto" color-interpolation="auto" stroke="black" text-rendering="auto" stroke-linecap="square" width="1488" stroke-miterlimit="10" stroke-opacity="1" shape-rendering="auto" fill="black" stroke-dasharray="none" font-weight="normal" stroke-width="1" height="1200" font-family="'Dialog'" font-style="normal" stroke-linejoin="miter" font-size="12" stroke-dashoffset="0" image-rendering="auto">
  <!--Generated by ySVG-->
  <defs id="genericDefs"/>
  <g>
    <defs id="defs1">
      <clipPath clipPathUnits="userSpaceOnUse" id="clipPath1">
        <path d="M0 0 L1488 0 L1488 1200 L0 1200 L0 0 Z"/>
      </clipPath>
    </defs>
    <g id="y.node.0">
      <g fill="rgb(248,236,201)" transform="matrix(0.9836,0,0,0.9836,11.8033,9.8361)" stroke="rgb(248,236,201)">
        <rect width="1487.5038" x="0" height="1199.375" y="0" stroke="none"/>
      </g>
      <g id="bla">
        <g fill="rgb(64,64,64)" transform="matrix(0.9836,0,0,0.9836,11.8033,9.8361)" stroke="rgb(64,64,64)">
          <rect width="1487.5038" x="0" height="4" y="0" stroke="none"/>
        </g>
      </g>
      <g fill="white" transform="matrix(0.9836,0,0,0.9836,11.8033,9.8361)" stroke="white">
        <rect width="1" x="0" height="1199.375" y="0" stroke="none"/>
      </g>
      <g fill="white" transform="matrix(0.9836,0,0,0.9836,11.8033,9.8361)" stroke="white">
        <rect width="1485.5038" x="1" height="1" y="0" stroke="none"/>
        <rect x="1" y="1198.375" fill="rgb(173,165,140)" width="1486.5038" height="1" stroke="none"/>
        <rect x="1486.5038" y="0" fill="rgb(173,165,140)" width="1" height="1198.375" stroke="none"/>
      </g>
    </g>
    <g id="y.node.4">
      <g fill="rgb(248,236,201)" transform="matrix(0.9836,0,0,0.9836,11.8033,9.8361)" stroke="rgb(248,236,201)">
        <rect width="99" x="15" height="75.9375" y="216.875" stroke="none"/>
      </g>
      <g id="bla">
        <g fill="rgb(64,64,64)" transform="matrix(0.9836,0,0,0.9836,11.8033,9.8361)" stroke="rgb(64,64,64)">
          <rect width="99" x="15" height="4" y="216.875" stroke="none"/>
        </g>
      </g>
      <g fill="white" transform="matrix(0.9836,0,0,0.9836,11.8033,9.8361)" stroke="white">
        <rect width="1" x="15" height="75.9375" y="216.875" stroke="none"/>
        <rect width="97" x="16" height="1" y="216.875" stroke="none"/>
        <rect x="16" y="291.8125" fill="rgb(173,165,140)" width="98" height="1" stroke="none"/>
        <rect x="113" y="216.875" fill="rgb(173,165,140)" width="1" height="74.9375" stroke="none"/>
      </g>
    </g>
    <g id="y.node.49">
      <g fill="white" transform="matrix(0.9836,0,0,0.9836,11.8033,9.8361)" stroke="white">
        <rect width="69" x="30" height="41" y="235" stroke="none"/>
        <rect x="30" y="235" fill="none" width="69" height="41" stroke="black"/>
      </g>
      <g id="bla">
        <g font-family="sans-serif" transform="matrix(0.9836,0,0,0.9836,11.8033,9.8361)">
          <text xml:space="preserve" x="41.5" y="254.0137" stroke="none">PRCRIT </text>
          <text xml:space="preserve" x="37" y="267.9824" stroke="none"> (prcrit.f)</text>
        </g>
      </g>
    </g>
    <g id="y.node.2">
      <g fill="rgb(248,236,201)" transform="matrix(0.9836,0,0,0.9836,11.8033,9.8361)" stroke="rgb(248,236,201)">
        <rect width="861.375" x="611.1288" height="735.625" y="448.75" stroke="none"/>
      </g>
      <g id="bla">
        <g fill="rgb(64,64,64)" transform="matrix(0.9836,0,0,0.9836,11.8033,9.8361)" stroke="rgb(64,64,64)">
          <rect width="861.375" x="611.1288" height="4" y="448.75" stroke="none"/>
        </g>
      </g>
      <g fill="white" transform="matrix(0.9836,0,0,0.9836,11.8033,9.8361)" stroke="white">
        <rect width="1" x="611.1288" height="735.625" y="448.75" stroke="none"/>
        <rect width="859.375" x="612.1288" height="1" y="448.75" stroke="none"/>
        <rect x="612.1288" y="1183.375" fill="rgb(173,165,140)" width="860.375" height="1" stroke="none"/>
        <rect x="1471.5038" y="448.75" fill="rgb(173,165,140)" width="1" height="734.625" stroke="none"/>
      </g>
    </g>
    <g id="y.node.30">
      <g fill="rgb(248,236,201)" transform="matrix(0.9836,0,0,0.9836,11.8033,9.8361)" stroke="rgb(248,236,201)">
        <rect width="407" x="626.1288" height="347.8125" y="549.6875" stroke="none"/>
      </g>
      <g id="bla">
        <g fill="rgb(64,64,64)" transform="matrix(0.9836,0,0,0.9836,11.8033,9.8361)" stroke="rgb(64,64,64)">
          <rect width="407" x="626.1288" height="4" y="549.6875" stroke="none"/>
        </g>
      </g>
      <g fill="white" transform="matrix(0.9836,0,0,0.9836,11.8033,9.8361)" stroke="white">
        <rect width="1" x="626.1288" height="347.8125" y="549.6875" stroke="none"/>
        <rect width="405" x="627.1288" height="1" y="549.6875" stroke="none"/>
        <rect x="627.1288" y="896.5" fill="rgb(173,165,140)" width="406" height="1" stroke="none"/>
        <rect x="1032.1288" y="549.6875" fill="rgb(173,165,140)" width="1" height="346.8125" stroke="none"/>
      </g>
    </g>
    <g id="y.node.40">
      <g fill="rgb(248,236,201)" transform="matrix(0.9836,0,0,0.9836,11.8033,9.8361)" stroke="rgb(248,236,201)">
        <rect width="128" x="765.1288" height="231.875" y="650.625" stroke="none"/>
      </g>
      <g id="bla">
        <g fill="rgb(64,64,64)" transform="matrix(0.9836,0,0,0.9836,11.8033,9.8361)" stroke="rgb(64,64,64)">
          <rect width="128" x="765.1288" height="4" y="650.625" stroke="none"/>
        </g>
      </g>
      <g fill="white" transform="matrix(0.9836,0,0,0.9836,11.8033,9.8361)" stroke="white">
        <rect width="1" x="765.1288" height="231.875" y="650.625" stroke="none"/>
        <rect width="126" x="766.1288" height="1" y="650.625" stroke="none"/>
        <rect x="766.1288" y="881.5" fill="rgb(173,165,140)" width="127" height="1" stroke="none"/>
        <rect x="892.1288" y="650.625" fill="rgb(173,165,140)" width="1" height="230.875" stroke="none"/>
      </g>
    </g>
    <g id="y.node.41">
      <g fill="rgb(248,236,201)" transform="matrix(0.9836,0,0,0.9836,11.8033,9.8361)" stroke="rgb(248,236,201)">
        <rect width="98" x="780.1288" height="75.9375" y="791.5625" stroke="none"/>
      </g>
      <g id="bla">
        <g fill="rgb(64,64,64)" transform="matrix(0.9836,0,0,0.9836,11.8033,9.8361)" stroke="rgb(64,64,64)">
          <rect width="98" x="780.1288" height="4" y="791.5625" stroke="none"/>
        </g>
      </g>
      <g fill="white" transform="matrix(0.9836,0,0,0.9836,11.8033,9.8361)" stroke="white">
        <rect width="1" x="780.1288" height="75.9375" y="791.5625" stroke="none"/>
        <rect width="96" x="781.1288" height="1" y="791.5625" stroke="none"/>
        <rect x="781.1288" y="866.5" fill="rgb(173,165,140)" width="97" height="1" stroke="none"/>
        <rect x="877.1288" y="791.5625" fill="rgb(173,165,140)" width="1" height="74.9375" stroke="none"/>
      </g>
    </g>
    <g id="y.node.42">
      <g fill="white" transform="matrix(0.9836,0,0,0.9836,11.8033,9.8361)" stroke="white">
        <rect width="68" x="795" height="41" y="810" stroke="none"/>
        <rect x="795" y="810" fill="none" width="68" height="41" stroke="black"/>
      </g>
      <g id="bla">
        <g font-family="sans-serif" transform="matrix(0.9836,0,0,0.9836,11.8033,9.8361)">
          <text xml:space="preserve" x="802.1288" y="828.7012" stroke="none">DOTCOS </text>
          <text xml:space="preserve" x="806.1288" y="842.6699" stroke="none"> (mrb.f)</text>
        </g>
      </g>
    </g>
    <g id="y.node.43">
      <g fill="white" transform="matrix(0.9836,0,0,0.9836,11.8033,9.8361)" stroke="white">
        <rect width="60" x="799" height="41" y="709" stroke="none"/>
        <rect x="799" y="709" fill="none" width="60" height="41" stroke="black"/>
      </g>
      <g id="bla">
        <g font-family="sans-serif" transform="matrix(0.9836,0,0,0.9836,11.8033,9.8361)">
          <text xml:space="preserve" x="814.1288" y="727.7637" stroke="none">MRB </text>
          <text xml:space="preserve" x="806.1288" y="741.7324" stroke="none"> (mrb.f)</text>
        </g>
      </g>
    </g>
    <g id="y.node.44">
      <g fill="rgb(248,236,201)" transform="matrix(0.9836,0,0,0.9836,11.8033,9.8361)" stroke="rgb(248,236,201)">
        <rect width="104" x="641.1288" height="115.9375" y="708.5938" stroke="none"/>
      </g>
      <g id="bla">
        <g fill="rgb(64,64,64)" transform="matrix(0.9836,0,0,0.9836,11.8033,9.8361)" stroke="rgb(64,64,64)">
          <rect width="104" x="641.1288" height="4" y="708.5938" stroke="none"/>
        </g>
      </g>
      <g fill="white" transform="matrix(0.9836,0,0,0.9836,11.8033,9.8361)" stroke="white">
        <rect width="1" x="641.1288" height="115.9375" y="708.5938" stroke="none"/>
        <rect width="102" x="642.1288" height="1" y="708.5938" stroke="none"/>
        <rect x="642.1288" y="823.5312" fill="rgb(173,165,140)" width="103" height="1" stroke="none"/>
        <rect x="744.1288" y="708.5938" fill="rgb(173,165,140)" width="1" height="114.9375" stroke="none"/>
      </g>
    </g>
    <g id="y.node.45">
      <g fill="white" transform="matrix(0.9836,0,0,0.9836,11.8033,9.8361)" stroke="white">
        <rect width="74" x="656" height="41" y="767" stroke="none"/>
        <rect x="656" y="767" fill="none" width="74" height="41" stroke="black"/>
      </g>
      <g id="bla">
        <g font-family="sans-serif" transform="matrix(0.9836,0,0,0.9836,11.8033,9.8361)">
          <text xml:space="preserve" x="669.6288" y="785.7324" stroke="none">MCRITK </text>
          <text xml:space="preserve" x="663.1288" y="799.7012" stroke="none"> (mcritk.f)</text>
        </g>
      </g>
    </g>
    <g id="y.node.46">
      <g fill="rgb(248,236,201)" transform="matrix(0.9836,0,0,0.9836,11.8033,9.8361)" stroke="rgb(248,236,201)">
        <rect width="105" x="913.1288" height="115.9375" y="708.5938" stroke="none"/>
      </g>
      <g id="bla">
        <g fill="rgb(64,64,64)" transform="matrix(0.9836,0,0,0.9836,11.8033,9.8361)" stroke="rgb(64,64,64)">
          <rect width="105" x="913.1288" height="4" y="708.5938" stroke="none"/>
        </g>
      </g>
      <g fill="white" transform="matrix(0.9836,0,0,0.9836,11.8033,9.8361)" stroke="white">
        <rect width="1" x="913.1288" height="115.9375" y="708.5938" stroke="none"/>
        <rect width="103" x="914.1288" height="1" y="708.5938" stroke="none"/>
        <rect x="914.1288" y="823.5312" fill="rgb(173,165,140)" width="104" height="1" stroke="none"/>
        <rect x="1017.1288" y="708.5938" fill="rgb(173,165,140)" width="1" height="114.9375" stroke="none"/>
      </g>
    </g>
    <g id="y.node.47">
      <g fill="white" transform="matrix(0.9836,0,0,0.9836,11.8033,9.8361)" stroke="white">
        <rect width="75" x="928" height="41" y="767" stroke="none"/>
        <rect x="928" y="767" fill="none" width="75" height="41" stroke="black"/>
      </g>
      <g id="bla">
        <g font-family="sans-serif" transform="matrix(0.9836,0,0,0.9836,11.8033,9.8361)">
          <text xml:space="preserve" x="941.1288" y="785.7324" stroke="none">MCRITH </text>
          <text xml:space="preserve" x="935.1288" y="799.7012" stroke="none"> (mcrith.f)</text>
        </g>
      </g>
    </g>
    <g id="y.node.48">
      <g fill="white" transform="matrix(0.9836,0,0,0.9836,11.8033,9.8361)" stroke="white">
        <rect width="63" x="818" height="41" y="568" stroke="none"/>
        <rect x="818" y="568" fill="none" width="63" height="41" stroke="black"/>
      </g>
      <g id="bla">
        <g font-family="sans-serif" transform="matrix(0.9836,0,0,0.9836,11.8033,9.8361)">
          <text xml:space="preserve" x="831.1288" y="586.8262" stroke="none">CCRIT </text>
          <text xml:space="preserve" x="825.6288" y="600.7949" stroke="none"> (ccrit.f)</text>
        </g>
      </g>
    </g>
    <g id="y.node.29">
      <g fill="rgb(248,236,201)" transform="matrix(0.9836,0,0,0.9836,11.8033,9.8361)" stroke="rgb(248,236,201)">
        <rect width="246" x="1211.5038" height="231.875" y="937.5" stroke="none"/>
      </g>
      <g id="bla">
        <g fill="rgb(64,64,64)" transform="matrix(0.9836,0,0,0.9836,11.8033,9.8361)" stroke="rgb(64,64,64)">
          <rect width="246" x="1211.5038" height="4" y="937.5" stroke="none"/>
        </g>
      </g>
      <g fill="white" transform="matrix(0.9836,0,0,0.9836,11.8033,9.8361)" stroke="white">
        <rect width="1" x="1211.5038" height="231.875" y="937.5" stroke="none"/>
        <rect width="244" x="1212.5038" height="1" y="937.5" stroke="none"/>
        <rect x="1212.5038" y="1168.375" fill="rgb(173,165,140)" width="245" height="1" stroke="none"/>
        <rect x="1456.5038" y="937.5" fill="rgb(173,165,140)" width="1" height="230.875" stroke="none"/>
      </g>
    </g>
    <g id="y.node.35">
      <g fill="rgb(248,236,201)" transform="matrix(0.9836,0,0,0.9836,11.8033,9.8361)" stroke="rgb(248,236,201)">
        <rect width="98" x="1344.5038" height="115.9375" y="1038.4375" stroke="none"/>
      </g>
      <g id="bla">
        <g fill="rgb(64,64,64)" transform="matrix(0.9836,0,0,0.9836,11.8033,9.8361)" stroke="rgb(64,64,64)">
          <rect width="98" x="1344.5038" height="4" y="1038.4375" stroke="none"/>
        </g>
      </g>
      <g fill="white" transform="matrix(0.9836,0,0,0.9836,11.8033,9.8361)" stroke="white">
        <rect width="1" x="1344.5038" height="115.9375" y="1038.4375" stroke="none"/>
        <rect width="96" x="1345.5038" height="1" y="1038.4375" stroke="none"/>
        <rect x="1345.5038" y="1153.375" fill="rgb(173,165,140)" width="97" height="1" stroke="none"/>
        <rect x="1441.5038" y="1038.4375" fill="rgb(173,165,140)" width="1" height="114.9375" stroke="none"/>
      </g>
    </g>
    <g id="y.node.36">
      <g fill="white" transform="matrix(0.9836,0,0,0.9836,11.8033,9.8361)" stroke="white">
        <rect width="68" x="1359" height="41" y="1097" stroke="none"/>
        <rect x="1359" y="1097" fill="none" width="68" height="41" stroke="black"/>
      </g>
      <g id="bla">
        <g font-family="sans-serif" transform="matrix(0.9836,0,0,0.9836,11.8033,9.8361)">
          <text xml:space="preserve" x="1374.0038" y="1115.5762" stroke="none">SWAP </text>
          <text xml:space="preserve" x="1366.5038" y="1129.5449" stroke="none"> (heap.f)</text>
        </g>
      </g>
    </g>
    <g id="y.node.37">
      <g fill="rgb(248,236,201)" transform="matrix(0.9836,0,0,0.9836,11.8033,9.8361)" stroke="rgb(248,236,201)">
        <rect width="98" x="1226.5038" height="115.9375" y="1038.4375" stroke="none"/>
      </g>
      <g id="bla">
        <g fill="rgb(64,64,64)" transform="matrix(0.9836,0,0,0.9836,11.8033,9.8361)" stroke="rgb(64,64,64)">
          <rect width="98" x="1226.5038" height="4" y="1038.4375" stroke="none"/>
        </g>
      </g>
      <g fill="white" transform="matrix(0.9836,0,0,0.9836,11.8033,9.8361)" stroke="white">
        <rect width="1" x="1226.5038" height="115.9375" y="1038.4375" stroke="none"/>
        <rect width="96" x="1227.5038" height="1" y="1038.4375" stroke="none"/>
        <rect x="1227.5038" y="1153.375" fill="rgb(173,165,140)" width="97" height="1" stroke="none"/>
        <rect x="1323.5038" y="1038.4375" fill="rgb(173,165,140)" width="1" height="114.9375" stroke="none"/>
      </g>
    </g>
    <g id="y.node.38">
      <g fill="white" transform="matrix(0.9836,0,0,0.9836,11.8033,9.8361)" stroke="white">
        <rect width="68" x="1241" height="41" y="1097" stroke="none"/>
        <rect x="1241" y="1097" fill="none" width="68" height="41" stroke="black"/>
      </g>
      <g id="bla">
        <g font-family="sans-serif" transform="matrix(0.9836,0,0,0.9836,11.8033,9.8361)">
          <text xml:space="preserve" x="1254.5038" y="1115.5762" stroke="none">ISWAP </text>
          <text xml:space="preserve" x="1248.5038" y="1129.5449" stroke="none"> (heap.f)</text>
        </g>
      </g>
    </g>
    <g id="y.node.39">
      <g fill="white" transform="matrix(0.9836,0,0,0.9836,11.8033,9.8361)" stroke="white">
        <rect width="68" x="1305" height="41" y="956" stroke="none"/>
        <rect x="1305" y="956" fill="none" width="68" height="41" stroke="black"/>
      </g>
      <g id="bla">
        <g font-family="sans-serif" transform="matrix(0.9836,0,0,0.9836,11.8033,9.8361)">
          <text xml:space="preserve" x="1314.0038" y="974.6387" stroke="none">HDOWN </text>
          <text xml:space="preserve" x="1312.5038" y="988.6074" stroke="none"> (heap.f)</text>
        </g>
      </g>
    </g>
    <g id="y.node.28">
      <g fill="rgb(248,236,201)" transform="matrix(0.9836,0,0,0.9836,11.8033,9.8361)" stroke="rgb(248,236,201)">
        <rect width="98" x="1292.1288" height="115.9375" y="665.625" stroke="none"/>
      </g>
      <g id="bla">
        <g fill="rgb(64,64,64)" transform="matrix(0.9836,0,0,0.9836,11.8033,9.8361)" stroke="rgb(64,64,64)">
          <rect width="98" x="1292.1288" height="4" y="665.625" stroke="none"/>
        </g>
      </g>
      <g fill="white" transform="matrix(0.9836,0,0,0.9836,11.8033,9.8361)" stroke="white">
        <rect width="1" x="1292.1288" height="115.9375" y="665.625" stroke="none"/>
        <rect width="96" x="1293.1288" height="1" y="665.625" stroke="none"/>
        <rect x="1293.1288" y="780.5625" fill="rgb(173,165,140)" width="97" height="1" stroke="none"/>
        <rect x="1389.1288" y="665.625" fill="rgb(173,165,140)" width="1" height="114.9375" stroke="none"/>
      </g>
    </g>
    <g id="y.node.34">
      <g fill="white" transform="matrix(0.9836,0,0,0.9836,11.8033,9.8361)" stroke="white">
        <rect width="68" x="1307" height="41" y="684" stroke="none"/>
        <rect x="1307" y="684" fill="none" width="68" height="41" stroke="black"/>
      </g>
      <g id="bla">
        <g font-family="sans-serif" transform="matrix(0.9836,0,0,0.9836,11.8033,9.8361)">
          <text xml:space="preserve" x="1326.1288" y="702.7637" stroke="none">HUP </text>
          <text xml:space="preserve" x="1314.1288" y="716.7324" stroke="none"> (heap.f)</text>
        </g>
      </g>
    </g>
    <g id="y.node.27">
      <g fill="rgb(248,236,201)" transform="matrix(0.9836,0,0,0.9836,11.8033,9.8361)" stroke="rgb(248,236,201)">
        <rect width="99" x="1173.1288" height="75.9375" y="685.625" stroke="none"/>
      </g>
      <g id="bla">
        <g fill="rgb(64,64,64)" transform="matrix(0.9836,0,0,0.9836,11.8033,9.8361)" stroke="rgb(64,64,64)">
          <rect width="99" x="1173.1288" height="4" y="685.625" stroke="none"/>
        </g>
      </g>
      <g fill="white" transform="matrix(0.9836,0,0,0.9836,11.8033,9.8361)" stroke="white">
        <rect width="1" x="1173.1288" height="75.9375" y="685.625" stroke="none"/>
        <rect width="97" x="1174.1288" height="1" y="685.625" stroke="none"/>
        <rect x="1174.1288" y="760.5625" fill="rgb(173,165,140)" width="98" height="1" stroke="none"/>
        <rect x="1271.1288" y="685.625" fill="rgb(173,165,140)" width="1" height="74.9375" stroke="none"/>
      </g>
    </g>
    <g id="y.node.33">
      <g fill="white" transform="matrix(0.9836,0,0,0.9836,11.8033,9.8361)" stroke="white">
        <rect width="69" x="1188" height="41" y="704" stroke="none"/>
        <rect x="1188" y="704" fill="none" width="69" height="41" stroke="black"/>
      </g>
      <g id="bla">
        <g font-family="sans-serif" transform="matrix(0.9836,0,0,0.9836,11.8033,9.8361)">
          <text xml:space="preserve" x="1203.6288" y="722.7637" stroke="none">IPACK </text>
          <text xml:space="preserve" x="1195.1288" y="736.7324" stroke="none"> (ipack.f)</text>
        </g>
      </g>
    </g>
    <g id="y.node.26">
      <g fill="rgb(248,236,201)" transform="matrix(0.9836,0,0,0.9836,11.8033,9.8361)" stroke="rgb(248,236,201)">
        <rect width="100" x="1053.1288" height="75.9375" y="685.625" stroke="none"/>
      </g>
      <g id="bla">
        <g fill="rgb(64,64,64)" transform="matrix(0.9836,0,0,0.9836,11.8033,9.8361)" stroke="rgb(64,64,64)">
          <rect width="100" x="1053.1288" height="4" y="685.625" stroke="none"/>
        </g>
      </g>
      <g fill="white" transform="matrix(0.9836,0,0,0.9836,11.8033,9.8361)" stroke="white">
        <rect width="1" x="1053.1288" height="75.9375" y="685.625" stroke="none"/>
        <rect width="98" x="1054.1288" height="1" y="685.625" stroke="none"/>
        <rect x="1054.1288" y="760.5625" fill="rgb(173,165,140)" width="99" height="1" stroke="none"/>
        <rect x="1152.1288" y="685.625" fill="rgb(173,165,140)" width="1" height="74.9375" stroke="none"/>
      </g>
    </g>
    <g id="y.node.32">
      <g fill="white" transform="matrix(0.9836,0,0,0.9836,11.8033,9.8361)" stroke="white">
        <rect width="70" x="1068" height="41" y="704" stroke="none"/>
        <rect x="1068" y="704" fill="none" width="70" height="41" stroke="black"/>
      </g>
      <g id="bla">
        <g font-family="sans-serif" transform="matrix(0.9836,0,0,0.9836,11.8033,9.8361)">
          <text xml:space="preserve" x="1079.6288" y="722.7637" stroke="none">SORTIR </text>
          <text xml:space="preserve" x="1075.1288" y="736.7324" stroke="none"> (sortix.f)</text>
        </g>
      </g>
    </g>
    <g id="y.node.31">
      <g fill="white" transform="matrix(0.9836,0,0,0.9836,11.8033,9.8361)" stroke="white">
        <rect width="72" x="1195" height="41" y="467" stroke="none"/>
        <rect x="1195" y="467" fill="none" width="72" height="41" stroke="black"/>
      </g>
      <g id="bla">
        <g font-family="sans-serif" transform="matrix(0.9836,0,0,0.9836,11.8033,9.8361)">
          <text xml:space="preserve" x="1209.4578" y="485.8887" stroke="none">PATHS </text>
          <text xml:space="preserve" x="1202.4578" y="499.8574" stroke="none"> (paths.f)</text>
        </g>
      </g>
    </g>
    <g id="y.node.5">
      <g fill="rgb(248,236,201)" transform="matrix(0.9836,0,0,0.9836,11.8033,9.8361)" stroke="rgb(248,236,201)">
        <rect width="108" x="134" height="75.9375" y="216.875" stroke="none"/>
      </g>
      <g id="bla">
        <g fill="rgb(64,64,64)" transform="matrix(0.9836,0,0,0.9836,11.8033,9.8361)" stroke="rgb(64,64,64)">
          <rect width="108" x="134" height="4" y="216.875" stroke="none"/>
        </g>
      </g>
      <g fill="white" transform="matrix(0.9836,0,0,0.9836,11.8033,9.8361)" stroke="white">
        <rect width="1" x="134" height="75.9375" y="216.875" stroke="none"/>
        <rect width="106" x="135" height="1" y="216.875" stroke="none"/>
        <rect x="135" y="291.8125" fill="rgb(173,165,140)" width="107" height="1" stroke="none"/>
        <rect x="241" y="216.875" fill="rgb(173,165,140)" width="1" height="74.9375" stroke="none"/>
      </g>
    </g>
    <g id="y.node.25">
      <g fill="white" transform="matrix(0.9836,0,0,0.9836,11.8033,9.8361)" stroke="white">
        <rect width="78" x="148" height="41" y="235" stroke="none"/>
        <rect x="148" y="235" fill="none" width="78" height="41" stroke="black"/>
      </g>
      <g id="bla">
        <g font-family="sans-serif" transform="matrix(0.9836,0,0,0.9836,11.8033,9.8361)">
          <text xml:space="preserve" x="162" y="254.0137" stroke="none">REPATH </text>
          <text xml:space="preserve" x="156" y="267.9824" stroke="none"> (repath.f)</text>
        </g>
      </g>
    </g>
    <g id="y.node.3">
      <g fill="rgb(248,236,201)" transform="matrix(0.9836,0,0,0.9836,11.8033,9.8361)" stroke="rgb(248,236,201)">
        <rect width="969" x="262" height="307.8125" y="100.9375" stroke="none"/>
      </g>
      <g id="bla">
        <g fill="rgb(64,64,64)" transform="matrix(0.9836,0,0,0.9836,11.8033,9.8361)" stroke="rgb(64,64,64)">
          <rect width="969" x="262" height="4" y="100.9375" stroke="none"/>
        </g>
      </g>
      <g fill="white" transform="matrix(0.9836,0,0,0.9836,11.8033,9.8361)" stroke="white">
        <rect width="1" x="262" height="307.8125" y="100.9375" stroke="none"/>
        <rect width="967" x="263" height="1" y="100.9375" stroke="none"/>
        <rect x="263" y="407.75" fill="rgb(173,165,140)" width="968" height="1" stroke="none"/>
        <rect x="1230" y="100.9375" fill="rgb(173,165,140)" width="1" height="306.8125" stroke="none"/>
      </g>
    </g>
    <g id="y.node.10">
      <g fill="rgb(248,236,201)" transform="matrix(0.9836,0,0,0.9836,11.8033,9.8361)" stroke="rgb(248,236,201)">
        <rect width="284" x="932" height="191.875" y="201.875" stroke="none"/>
      </g>
      <g id="bla">
        <g fill="rgb(64,64,64)" transform="matrix(0.9836,0,0,0.9836,11.8033,9.8361)" stroke="rgb(64,64,64)">
          <rect width="284" x="932" height="4" y="201.875" stroke="none"/>
        </g>
      </g>
      <g fill="white" transform="matrix(0.9836,0,0,0.9836,11.8033,9.8361)" stroke="white">
        <rect width="1" x="932" height="191.875" y="201.875" stroke="none"/>
        <rect width="282" x="933" height="1" y="201.875" stroke="none"/>
        <rect x="933" y="392.75" fill="rgb(173,165,140)" width="283" height="1" stroke="none"/>
        <rect x="1215" y="201.875" fill="rgb(173,165,140)" width="1" height="190.875" stroke="none"/>
      </g>
    </g>
    <g id="y.node.20">
      <g fill="rgb(248,236,201)" transform="matrix(0.9836,0,0,0.9836,11.8033,9.8361)" stroke="rgb(248,236,201)">
        <rect width="117" x="947" height="75.9375" y="302.8125" stroke="none"/>
      </g>
      <g id="bla">
        <g fill="rgb(64,64,64)" transform="matrix(0.9836,0,0,0.9836,11.8033,9.8361)" stroke="rgb(64,64,64)">
          <rect width="117" x="947" height="4" y="302.8125" stroke="none"/>
        </g>
      </g>
      <g fill="white" transform="matrix(0.9836,0,0,0.9836,11.8033,9.8361)" stroke="white">
        <rect width="1" x="947" height="75.9375" y="302.8125" stroke="none"/>
        <rect width="115" x="948" height="1" y="302.8125" stroke="none"/>
        <rect x="948" y="377.75" fill="rgb(173,165,140)" width="116" height="1" stroke="none"/>
        <rect x="1063" y="302.8125" fill="rgb(173,165,140)" width="1" height="74.9375" stroke="none"/>
      </g>
    </g>
    <g id="y.node.21">
      <g fill="white" transform="matrix(0.9836,0,0,0.9836,11.8033,9.8361)" stroke="white">
        <rect width="87" x="961" height="41" y="321" stroke="none"/>
        <rect x="961" y="321" fill="none" width="87" height="41" stroke="black"/>
      </g>
      <g id="bla">
        <g font-family="sans-serif" transform="matrix(0.9836,0,0,0.9836,11.8033,9.8361)">
          <text xml:space="preserve" x="981.5" y="339.9512" stroke="none">STRIGD </text>
          <text xml:space="preserve" x="969" y="353.9199" stroke="none"> (mpprmd.f)</text>
        </g>
      </g>
    </g>
    <g id="y.node.22">
      <g fill="rgb(248,236,201)" transform="matrix(0.9836,0,0,0.9836,11.8033,9.8361)" stroke="rgb(248,236,201)">
        <rect width="117" x="1084" height="75.9375" y="302.8125" stroke="none"/>
      </g>
      <g id="bla">
        <g fill="rgb(64,64,64)" transform="matrix(0.9836,0,0,0.9836,11.8033,9.8361)" stroke="rgb(64,64,64)">
          <rect width="117" x="1084" height="4" y="302.8125" stroke="none"/>
        </g>
      </g>
      <g fill="white" transform="matrix(0.9836,0,0,0.9836,11.8033,9.8361)" stroke="white">
        <rect width="1" x="1084" height="75.9375" y="302.8125" stroke="none"/>
        <rect width="115" x="1085" height="1" y="302.8125" stroke="none"/>
        <rect x="1085" y="377.75" fill="rgb(173,165,140)" width="116" height="1" stroke="none"/>
        <rect x="1200" y="302.8125" fill="rgb(173,165,140)" width="1" height="74.9375" stroke="none"/>
      </g>
    </g>
    <g id="y.node.23">
      <g fill="white" transform="matrix(0.9836,0,0,0.9836,11.8033,9.8361)" stroke="white">
        <rect width="87" x="1099" height="41" y="321" stroke="none"/>
        <rect x="1099" y="321" fill="none" width="87" height="41" stroke="black"/>
      </g>
      <g id="bla">
        <g font-family="sans-serif" transform="matrix(0.9836,0,0,0.9836,11.8033,9.8361)">
          <text xml:space="preserve" x="1119.5" y="339.9512" stroke="none">SARGD </text>
          <text xml:space="preserve" x="1106" y="353.9199" stroke="none"> (mpprmd.f)</text>
        </g>
      </g>
    </g>
    <g id="y.node.24">
      <g fill="white" transform="matrix(0.9836,0,0,0.9836,11.8033,9.8361)" stroke="white">
        <rect width="87" x="1030" height="41" y="220" stroke="none"/>
        <rect x="1030" y="220" fill="none" width="87" height="41" stroke="black"/>
      </g>
      <g id="bla">
        <g font-family="sans-serif" transform="matrix(0.9836,0,0,0.9836,11.8033,9.8361)">
          <text xml:space="preserve" x="1045.5" y="239.0137" stroke="none">MPPRMD </text>
          <text xml:space="preserve" x="1037.5" y="252.9824" stroke="none"> (mpprmd.f)</text>
        </g>
      </g>
    </g>
    <g id="y.node.9">
      <g fill="rgb(248,236,201)" transform="matrix(0.9836,0,0,0.9836,11.8033,9.8361)" stroke="rgb(248,236,201)">
        <rect width="104" x="808" height="115.9375" y="239.8438" stroke="none"/>
      </g>
      <g id="bla">
        <g fill="rgb(64,64,64)" transform="matrix(0.9836,0,0,0.9836,11.8033,9.8361)" stroke="rgb(64,64,64)">
          <rect width="104" x="808" height="4" y="239.8438" stroke="none"/>
        </g>
      </g>
      <g fill="white" transform="matrix(0.9836,0,0,0.9836,11.8033,9.8361)" stroke="white">
        <rect width="1" x="808" height="115.9375" y="239.8438" stroke="none"/>
        <rect width="102" x="809" height="1" y="239.8438" stroke="none"/>
        <rect x="809" y="354.7812" fill="rgb(173,165,140)" width="103" height="1" stroke="none"/>
        <rect x="911" y="239.8438" fill="rgb(173,165,140)" width="1" height="114.9375" stroke="none"/>
      </g>
    </g>
    <g id="y.node.19">
      <g fill="white" transform="matrix(0.9836,0,0,0.9836,11.8033,9.8361)" stroke="white">
        <rect width="74" x="822" height="41" y="258" stroke="none"/>
        <rect x="822" y="258" fill="none" width="74" height="41" stroke="black"/>
      </g>
      <g id="bla">
        <g font-family="sans-serif" transform="matrix(0.9836,0,0,0.9836,11.8033,9.8361)">
          <text xml:space="preserve" x="834" y="276.9824" stroke="none">OUTCRT </text>
          <text xml:space="preserve" x="830" y="290.9512" stroke="none"> (outcrt.f)</text>
        </g>
      </g>
    </g>
    <g id="y.node.8">
      <g fill="rgb(248,236,201)" transform="matrix(0.9836,0,0,0.9836,11.8033,9.8361)" stroke="rgb(248,236,201)">
        <rect width="100" x="688" height="75.9375" y="259.8438" stroke="none"/>
      </g>
      <g id="bla">
        <g fill="rgb(64,64,64)" transform="matrix(0.9836,0,0,0.9836,11.8033,9.8361)" stroke="rgb(64,64,64)">
          <rect width="100" x="688" height="4" y="259.8438" stroke="none"/>
        </g>
      </g>
      <g fill="white" transform="matrix(0.9836,0,0,0.9836,11.8033,9.8361)" stroke="white">
        <rect width="1" x="688" height="75.9375" y="259.8438" stroke="none"/>
        <rect width="98" x="689" height="1" y="259.8438" stroke="none"/>
        <rect x="689" y="334.7812" fill="rgb(173,165,140)" width="99" height="1" stroke="none"/>
        <rect x="787" y="259.8438" fill="rgb(173,165,140)" width="1" height="74.9375" stroke="none"/>
      </g>
    </g>
    <g id="y.node.18">
      <g fill="white" transform="matrix(0.9836,0,0,0.9836,11.8033,9.8361)" stroke="white">
        <rect width="70" x="702" height="41" y="278" stroke="none"/>
        <rect x="702" y="278" fill="none" width="70" height="41" stroke="black"/>
      </g>
      <g id="bla">
        <g font-family="sans-serif" transform="matrix(0.9836,0,0,0.9836,11.8033,9.8361)">
          <text xml:space="preserve" x="714" y="296.9824" stroke="none">SORTID </text>
          <text xml:space="preserve" x="710" y="310.9512" stroke="none"> (sortix.f)</text>
        </g>
      </g>
    </g>
    <g id="y.node.7">
      <g fill="rgb(248,236,201)" transform="matrix(0.9836,0,0,0.9836,11.8033,9.8361)" stroke="rgb(248,236,201)">
        <rect width="272" x="396" height="191.875" y="201.875" stroke="none"/>
      </g>
      <g id="bla">
        <g fill="rgb(64,64,64)" transform="matrix(0.9836,0,0,0.9836,11.8033,9.8361)" stroke="rgb(64,64,64)">
          <rect width="272" x="396" height="4" y="201.875" stroke="none"/>
        </g>
      </g>
      <g fill="white" transform="matrix(0.9836,0,0,0.9836,11.8033,9.8361)" stroke="white">
        <rect width="1" x="396" height="191.875" y="201.875" stroke="none"/>
        <rect width="270" x="397" height="1" y="201.875" stroke="none"/>
        <rect x="397" y="392.75" fill="rgb(173,165,140)" width="271" height="1" stroke="none"/>
        <rect x="667" y="201.875" fill="rgb(173,165,140)" width="1" height="190.875" stroke="none"/>
      </g>
    </g>
    <g id="y.node.13">
      <g fill="rgb(248,236,201)" transform="matrix(0.9836,0,0,0.9836,11.8033,9.8361)" stroke="rgb(248,236,201)">
        <rect width="105" x="411" height="75.9375" y="302.8125" stroke="none"/>
      </g>
      <g id="bla">
        <g fill="rgb(64,64,64)" transform="matrix(0.9836,0,0,0.9836,11.8033,9.8361)" stroke="rgb(64,64,64)">
          <rect width="105" x="411" height="4" y="302.8125" stroke="none"/>
        </g>
      </g>
      <g fill="white" transform="matrix(0.9836,0,0,0.9836,11.8033,9.8361)" stroke="white">
        <rect width="1" x="411" height="75.9375" y="302.8125" stroke="none"/>
        <rect width="103" x="412" height="1" y="302.8125" stroke="none"/>
        <rect x="412" y="377.75" fill="rgb(173,165,140)" width="104" height="1" stroke="none"/>
        <rect x="515" y="302.8125" fill="rgb(173,165,140)" width="1" height="74.9375" stroke="none"/>
      </g>
    </g>
    <g id="y.node.14">
      <g fill="white" transform="matrix(0.9836,0,0,0.9836,11.8033,9.8361)" stroke="white">
        <rect width="75" x="425" height="41" y="321" stroke="none"/>
        <rect x="425" y="321" fill="none" width="75" height="41" stroke="black"/>
      </g>
      <g id="bla">
        <g font-family="sans-serif" transform="matrix(0.9836,0,0,0.9836,11.8033,9.8361)">
          <text xml:space="preserve" x="440.5" y="339.9512" stroke="none">PHASH </text>
          <text xml:space="preserve" x="433" y="353.9199" stroke="none"> (phash.f)</text>
        </g>
      </g>
    </g>
    <g id="y.node.15">
      <g fill="rgb(248,236,201)" transform="matrix(0.9836,0,0,0.9836,11.8033,9.8361)" stroke="rgb(248,236,201)">
        <rect width="117" x="536" height="75.9375" y="302.8125" stroke="none"/>
      </g>
      <g id="bla">
        <g fill="rgb(64,64,64)" transform="matrix(0.9836,0,0,0.9836,11.8033,9.8361)" stroke="rgb(64,64,64)">
          <rect width="117" x="536" height="4" y="302.8125" stroke="none"/>
        </g>
      </g>
      <g fill="white" transform="matrix(0.9836,0,0,0.9836,11.8033,9.8361)" stroke="white">
        <rect width="1" x="536" height="75.9375" y="302.8125" stroke="none"/>
        <rect width="115" x="537" height="1" y="302.8125" stroke="none"/>
        <rect x="537" y="377.75" fill="rgb(173,165,140)" width="116" height="1" stroke="none"/>
        <rect x="652" y="302.8125" fill="rgb(173,165,140)" width="1" height="74.9375" stroke="none"/>
      </g>
    </g>
    <g id="y.node.16">
      <g fill="white" transform="matrix(0.9836,0,0,0.9836,11.8033,9.8361)" stroke="white">
        <rect width="87" x="550" height="41" y="321" stroke="none"/>
        <rect x="550" y="321" fill="none" width="87" height="41" stroke="black"/>
      </g>
      <g id="bla">
        <g font-family="sans-serif" transform="matrix(0.9836,0,0,0.9836,11.8033,9.8361)">
          <text xml:space="preserve" x="566.5" y="339.9512" stroke="none">MPPRMP </text>
          <text xml:space="preserve" x="558" y="353.9199" stroke="none"> (mpprmp.f)</text>
        </g>
      </g>
    </g>
    <g id="y.node.17">
      <g fill="white" transform="matrix(0.9836,0,0,0.9836,11.8033,9.8361)" stroke="white">
        <rect width="76" x="490" height="41" y="220" stroke="none"/>
        <rect x="490" y="220" fill="none" width="76" height="41" stroke="black"/>
      </g>
      <g id="bla">
        <g font-family="sans-serif" transform="matrix(0.9836,0,0,0.9836,11.8033,9.8361)">
          <text xml:space="preserve" x="505" y="239.0137" stroke="none">TIMREP </text>
          <text xml:space="preserve" x="498" y="252.9824" stroke="none"> (timrep.f)</text>
        </g>
      </g>
    </g>
    <g id="y.node.6">
      <g fill="rgb(248,236,201)" transform="matrix(0.9836,0,0,0.9836,11.8033,9.8361)" stroke="rgb(248,236,201)">
        <rect width="99" x="277" height="75.9375" y="259.8438" stroke="none"/>
      </g>
      <g id="bla">
        <g fill="rgb(64,64,64)" transform="matrix(0.9836,0,0,0.9836,11.8033,9.8361)" stroke="rgb(64,64,64)">
          <rect width="99" x="277" height="4" y="259.8438" stroke="none"/>
        </g>
      </g>
      <g fill="white" transform="matrix(0.9836,0,0,0.9836,11.8033,9.8361)" stroke="white">
        <rect width="1" x="277" height="75.9375" y="259.8438" stroke="none"/>
        <rect width="97" x="278" height="1" y="259.8438" stroke="none"/>
        <rect x="278" y="334.7812" fill="rgb(173,165,140)" width="98" height="1" stroke="none"/>
        <rect x="375" y="259.8438" fill="rgb(173,165,140)" width="1" height="74.9375" stroke="none"/>
      </g>
    </g>
    <g id="y.node.12">
      <g fill="white" transform="matrix(0.9836,0,0,0.9836,11.8033,9.8361)" stroke="white">
        <rect width="69" x="291" height="41" y="278" stroke="none"/>
        <rect x="291" y="278" fill="none" width="69" height="41" stroke="black"/>
      </g>
      <g id="bla">
        <g font-family="sans-serif" transform="matrix(0.9836,0,0,0.9836,11.8033,9.8361)">
          <text xml:space="preserve" x="304.5" y="296.9824" stroke="none">UPACK </text>
          <text xml:space="preserve" x="299" y="310.9512" stroke="none"> (ipack.f)</text>
        </g>
      </g>
    </g>
    <g id="y.node.11">
      <g fill="white" transform="matrix(0.9836,0,0,0.9836,11.8033,9.8361)" stroke="white">
        <rect width="80" x="697" height="41" y="119" stroke="none"/>
        <rect x="697" y="119" fill="none" width="80" height="41" stroke="black"/>
      </g>
      <g id="bla">
        <g font-family="sans-serif" transform="matrix(0.9836,0,0,0.9836,11.8033,9.8361)">
          <text xml:space="preserve" x="711.5" y="138.0762" stroke="none">PATHSD </text>
          <text xml:space="preserve" x="705" y="152.0449" stroke="none"> (pathsd.f)</text>
        </g>
      </g>
    </g>
    <g id="y.node.1">
      <g fill="white" transform="matrix(0.9836,0,0,0.9836,11.8033,9.8361)" stroke="white">
        <rect width="79" x="423" height="41" y="19" stroke="none"/>
        <rect x="423" y="19" fill="none" width="79" height="41" stroke="black"/>
      </g>
      <g id="bla">
        <g font-family="sans-serif" transform="matrix(0.9836,0,0,0.9836,11.8033,9.8361)">
          <text xml:space="preserve" x="436" y="37.1387" stroke="none">FFMOD4 </text>
          <text xml:space="preserve" x="430.5" y="51.1074" stroke="none"> (ffmod4.f)</text>
        </g>
      </g>
    </g>
    <g id="y.edge.0">
      <g stroke-miterlimit="1.45" transform="matrix(0.9836,0,0,0.9836,11.8033,9.8361)" stroke-linecap="butt">
        <path fill="none" d="M835.3477 300.8203 L850 340.7812 L850 408.75 L859.0423 448.75 L859.0423 509.6875 L688.1288 549.6875 L688.1288 727.5938 L677.2003 759.9747"/>
        <path d="M674.642 767.5547 L683.2169 757.7837 L677.52 759.0273 L673.7419 754.5859 Z" stroke="none"/>
      </g>
    </g>
    <g id="y.edge.1">
      <g stroke-miterlimit="1.45" transform="matrix(0.9836,0,0,0.9836,11.8033,9.8361)" stroke-linecap="butt">
        <path fill="none" d="M860 300.8076 L860 408.75 L870.0423 448.75 L870.0423 509.6875 L797.947 549.6875 L797.947 610.625 L824.1288 650.625 L824.1288 669.625 L816.0789 701.8248"/>
        <path d="M814.1385 709.5859 L821.8997 699.1569 L816.3214 700.8546 L812.1983 696.7315 Z" stroke="none"/>
      </g>
    </g>
    <g id="y.edge.2">
      <g stroke-miterlimit="1.45" transform="matrix(0.9836,0,0,0.9836,11.8033,9.8361)" stroke-linecap="butt">
        <path fill="none" d="M548.0227 262.832 L594.5 302.8125 L594.5 313.7754"/>
        <path d="M594.5 321.7754 L599.5 309.7754 L594.5 312.7754 L589.5 309.7754 Z" stroke="none"/>
      </g>
    </g>
    <g id="y.edge.3">
      <g stroke-miterlimit="1.45" transform="matrix(0.9836,0,0,0.9836,11.8033,9.8361)" stroke-linecap="butt">
        <path fill="none" d="M509.9773 262.832 L463.5 302.8125 L463.5 313.7754"/>
        <path d="M463.5 321.7754 L468.5 309.7754 L463.5 312.7754 L458.5 309.7754 Z" stroke="none"/>
      </g>
    </g>
    <g id="y.edge.4">
      <g stroke-miterlimit="1.45" transform="matrix(0.9836,0,0,0.9836,11.8033,9.8361)" stroke-linecap="butt">
        <path fill="none" d="M738 161.9036 L738 270.8152"/>
        <path d="M738 278.8152 L743 266.8152 L738 269.8152 L733 266.8152 Z" stroke="none"/>
      </g>
    </g>
    <g id="y.edge.5">
      <g stroke-miterlimit="1.45" transform="matrix(0.9836,0,0,0.9836,11.8033,9.8361)" stroke-linecap="butt">
        <path fill="none" d="M721.9529 161.8848 L529 201.875 L529 212.8379"/>
        <path d="M529 220.8379 L534 208.8379 L529 211.8379 L524 208.8379 Z" stroke="none"/>
      </g>
    </g>
    <g id="y.edge.6">
      <g stroke-miterlimit="1.45" transform="matrix(0.9836,0,0,0.9836,11.8033,9.8361)" stroke-linecap="butt">
        <path fill="none" d="M770.0371 161.8799 L1074 201.875 L1074 212.8379"/>
        <path d="M1074 220.8379 L1079 208.8379 L1074 211.8379 L1069 208.8379 Z" stroke="none"/>
      </g>
    </g>
    <g id="y.edge.7">
      <g stroke-miterlimit="1.45" transform="matrix(0.9836,0,0,0.9836,11.8033,9.8361)" stroke-linecap="butt">
        <path fill="none" d="M754.0259 161.8848 L860 201.875 L860 250.8159"/>
        <path d="M860 258.8159 L865 246.8159 L860 249.8159 L855 246.8159 Z" stroke="none"/>
      </g>
    </g>
    <g id="y.edge.8">
      <g stroke-miterlimit="1.45" transform="matrix(0.9836,0,0,0.9836,11.8033,9.8361)" stroke-linecap="butt">
        <path fill="none" d="M492.6707 60.9399 L1241.5 100.9375 L1241.5 408.75 L1231.4578 448.75 L1231.4578 459.7129"/>
        <path d="M1231.4578 467.7129 L1236.4578 455.7129 L1231.4578 458.7129 L1226.4578 455.7129 Z" stroke="none"/>
      </g>
    </g>
    <g id="y.edge.9">
      <g stroke-miterlimit="1.45" transform="matrix(0.9836,0,0,0.9836,11.8033,9.8361)" stroke-linecap="butt">
        <path fill="none" d="M472.9073 60.9424 L738 100.9375 L738 111.9004"/>
        <path d="M738 119.9004 L743 107.9004 L738 110.9004 L733 107.9004 Z" stroke="none"/>
      </g>
    </g>
    <g id="y.edge.10">
      <g stroke-miterlimit="1.45" transform="matrix(0.9836,0,0,0.9836,11.8033,9.8361)" stroke-linecap="butt">
        <path fill="none" d="M433.33 60.9424 L64.5 100.9375 L64.5 227.8421"/>
        <path d="M64.5 235.8421 L69.5 223.8421 L64.5 226.8421 L59.5 223.8421 Z" stroke="none"/>
      </g>
    </g>
    <g id="y.edge.11">
      <g stroke-miterlimit="1.45" transform="matrix(0.9836,0,0,0.9836,11.8033,9.8361)" stroke-linecap="butt">
        <path fill="none" d="M453.0926 60.9424 L188 100.9375 L188 227.8421"/>
        <path d="M188 235.8421 L193 223.8421 L188 226.8421 L183 223.8421 Z" stroke="none"/>
      </g>
    </g>
    <g id="y.edge.12">
      <g stroke-miterlimit="1.45" transform="matrix(0.9836,0,0,0.9836,11.8033,9.8361)" stroke-linecap="butt">
        <path fill="none" d="M1202.6146 509.6924 L850.1288 549.6875 L850.1288 560.6504"/>
        <path d="M850.1288 568.6504 L855.1288 556.6504 L850.1288 559.6504 L845.1288 556.6504 Z" stroke="none"/>
      </g>
    </g>
    <g id="y.edge.13">
      <g stroke-miterlimit="1.45" transform="matrix(0.9836,0,0,0.9836,11.8033,9.8361)" stroke-linecap="butt">
        <path fill="none" d="M1260.292 509.6973 L1400.6288 549.6875 L1400.6288 897.5 L1339.5038 937.5 L1339.5038 948.4629"/>
        <path d="M1339.5038 956.4629 L1344.5038 944.4629 L1339.5038 947.4629 L1334.5038 944.4629 Z" stroke="none"/>
      </g>
    </g>
    <g id="y.edge.14">
      <g stroke-miterlimit="1.45" transform="matrix(0.9836,0,0,0.9836,11.8033,9.8361)" stroke-linecap="butt">
        <path fill="none" d="M1245.881 509.6973 L1341.1288 549.6875 L1341.1288 676.592"/>
        <path d="M1341.1288 684.592 L1346.1288 672.592 L1341.1288 675.592 L1336.1288 672.592 Z" stroke="none"/>
      </g>
    </g>
    <g id="y.edge.15">
      <g stroke-miterlimit="1.45" transform="matrix(0.9836,0,0,0.9836,11.8033,9.8361)" stroke-linecap="butt">
        <path fill="none" d="M1231.4491 509.7266 L1222.6288 549.6875 L1222.6288 696.5872"/>
        <path d="M1222.6288 704.5872 L1227.6288 692.5872 L1222.6288 695.5872 L1217.6288 692.5872 Z" stroke="none"/>
      </g>
    </g>
    <g id="y.edge.16">
      <g stroke-miterlimit="1.45" transform="matrix(0.9836,0,0,0.9836,11.8033,9.8361)" stroke-linecap="butt">
        <path fill="none" d="M1217.0299 509.6973 L1103.1288 549.6875 L1103.1288 696.5872"/>
        <path d="M1103.1288 704.5872 L1108.1288 692.5872 L1103.1288 695.5872 L1098.1288 692.5872 Z" stroke="none"/>
      </g>
    </g>
    <g id="y.edge.17">
      <g stroke-miterlimit="1.45" transform="matrix(0.9836,0,0,0.9836,11.8033,9.8361)" stroke-linecap="butt">
        <path fill="none" d="M1356.5243 998.457 L1398.5038 1038.4375 L1398.5038 1057.4375 L1408.1934 1089.7358"/>
        <path d="M1410.4922 1097.3984 L1411.8331 1084.4678 L1407.906 1088.778 L1402.2549 1087.3413 Z" stroke="none"/>
      </g>
    </g>
    <g id="y.edge.18">
      <g stroke-miterlimit="1.45" transform="matrix(0.9836,0,0,0.9836,11.8033,9.8361)" stroke-linecap="butt">
        <path fill="none" d="M1324.1405 726.6016 L1336.1288 766.5625 L1336.1288 897.5 L1261.7538 937.5 L1261.7538 998.4375 L1270.5038 1038.4375 L1270.5038 1057.4375 L1260.8143 1089.7358"/>
        <path d="M1258.5155 1097.3984 L1266.7528 1087.3413 L1261.1016 1088.778 L1257.1746 1084.4678 Z" stroke="none"/>
      </g>
    </g>
    <g id="y.edge.19">
      <g stroke-miterlimit="1.45" transform="matrix(0.9836,0,0,0.9836,11.8033,9.8361)" stroke-linecap="butt">
        <path fill="none" d="M1358.1171 726.6016 L1346.1288 766.5625 L1346.1288 897.5 L1407.2538 937.5 L1407.2538 998.4375 L1388.5038 1038.4375 L1388.5038 1057.4375 L1378.8143 1089.7358"/>
        <path d="M1376.5155 1097.3984 L1384.7528 1087.3413 L1379.1016 1088.778 L1375.1746 1084.4678 Z" stroke="none"/>
      </g>
    </g>
    <g id="y.edge.20">
      <g stroke-miterlimit="1.45" transform="matrix(0.9836,0,0,0.9836,11.8033,9.8361)" stroke-linecap="butt">
        <path fill="none" d="M829.0969 610.6348 L698.1288 650.625 L698.1288 727.5938 L709.0574 759.9747"/>
        <path d="M711.6156 767.5547 L712.5157 754.5859 L708.7376 759.0273 L703.0408 757.7836 Z" stroke="none"/>
      </g>
    </g>
    <g id="y.edge.21">
      <g stroke-miterlimit="1.45" transform="matrix(0.9836,0,0,0.9836,11.8033,9.8361)" stroke-linecap="butt">
        <path fill="none" d="M850.1132 610.6641 L834.1288 650.625 L834.1288 669.625 L842.1788 701.8248"/>
        <path d="M844.1191 709.5859 L846.0594 696.7316 L841.9363 700.8547 L836.358 699.1569 Z" stroke="none"/>
      </g>
    </g>
    <g id="y.edge.22">
      <g stroke-miterlimit="1.45" transform="matrix(0.9836,0,0,0.9836,11.8033,9.8361)" stroke-linecap="butt">
        <path fill="none" d="M829.1288 751.5913 L829.1288 802.5337"/>
        <path d="M829.1288 810.5337 L834.1288 798.5337 L829.1288 801.5337 L824.1288 798.5337 Z" stroke="none"/>
      </g>
    </g>
    <g id="y.edge.23">
      <g stroke-miterlimit="1.45" transform="matrix(0.9836,0,0,0.9836,11.8033,9.8361)" stroke-linecap="butt">
        <path fill="none" d="M1322.4833 998.457 L1280.5038 1038.4375 L1280.5038 1057.4375 L1290.1934 1089.7358"/>
        <path d="M1292.4922 1097.3984 L1293.8331 1084.4678 L1289.906 1088.778 L1284.2549 1087.3413 Z" stroke="none"/>
      </g>
    </g>
    <g id="y.edge.24">
      <g stroke-miterlimit="1.45" transform="matrix(0.9836,0,0,0.9836,11.8033,9.8361)" stroke-linecap="butt">
        <path fill="none" d="M705.9537 161.8799 L326.5 201.875 L326.5 270.8062"/>
        <path d="M326.5 278.8062 L331.5 266.8062 L326.5 269.8062 L321.5 266.8062 Z" stroke="none"/>
      </g>
    </g>
    <g id="y.edge.25">
      <g stroke-miterlimit="1.45" transform="matrix(0.9836,0,0,0.9836,11.8033,9.8361)" stroke-linecap="butt">
        <path fill="none" d="M1095.7728 262.832 L1142.5 302.8125 L1142.5 313.7754"/>
        <path d="M1142.5 321.7754 L1147.5 309.7754 L1142.5 312.7754 L1137.5 309.7754 Z" stroke="none"/>
      </g>
    </g>
    <g id="y.edge.26">
      <g stroke-miterlimit="1.45" transform="matrix(0.9836,0,0,0.9836,11.8033,9.8361)" stroke-linecap="butt">
        <path fill="none" d="M1052.2272 262.832 L1005.5 302.8125 L1005.5 313.7754"/>
        <path d="M1005.5 321.7754 L1010.5 309.7754 L1005.5 312.7754 L1000.5 309.7754 Z" stroke="none"/>
      </g>
    </g>
    <g id="y.edge.27">
      <g stroke-miterlimit="1.45" transform="matrix(0.9836,0,0,0.9836,11.8033,9.8361)" stroke-linecap="butt">
        <path fill="none" d="M884.6523 300.8203 L870 340.7812 L870 408.75 L881.0423 448.75 L881.0423 509.6875 L965.7197 549.6875 L965.7197 610.625 L960.6288 650.625 L960.6288 727.5938 L949.4929 759.9892"/>
        <path d="M946.8922 767.5547 L955.5216 757.8318 L949.8179 759.0435 L946.0648 754.5811 Z" stroke="none"/>
      </g>
    </g>
    <g id="y.edge.28">
      <g stroke-miterlimit="1.45" transform="matrix(0.9836,0,0,0.9836,11.8033,9.8361)" stroke-linecap="butt">
        <path fill="none" d="M871.1531 610.6348 L970.6288 650.625 L970.6288 727.5938 L981.7648 759.9892"/>
        <path d="M984.3654 767.5547 L985.1929 754.5811 L981.4397 759.0435 L975.736 757.8318 Z" stroke="none"/>
      </g>
    </g>
  </g>
</svg>
