<?xml version="1.0" encoding="UTF-8"?><svg xmlns="http://www.w3.org/2000/svg" xmlns:xlink="http://www.w3.org/1999/xlink" fill-opacity="1" color-rendering="auto" color-interpolation="auto" stroke="black" text-rendering="auto" stroke-linecap="square" width="1578" stroke-miterlimit="10" stroke-opacity="1" shape-rendering="auto" fill="black" stroke-dasharray="none" font-weight="normal" stroke-width="1" height="741" font-family="'Dialog'" font-style="normal" stroke-linejoin="miter" font-size="12" stroke-dashoffset="0" image-rendering="auto">
  <!--Generated by ySVG-->
  <defs id="genericDefs"/>
  <g>
    <defs id="defs1">
      <clipPath clipPathUnits="userSpaceOnUse" id="clipPath1">
        <path d="M0 0 L1578 0 L1578 741 L0 741 L0 0 Z"/>
      </clipPath>
    </defs>
    <g id="y.node.0">
      <g fill="rgb(248,236,201)" transform="matrix(0.9737,0,0,0.9737,20.4481,9.7372)" stroke="rgb(248,236,201)">
        <rect width="1578" x="0" height="619.6875" y="0" stroke="none"/>
      </g>
      <g id="bla">
        <g fill="rgb(64,64,64)" transform="matrix(0.9737,0,0,0.9737,20.4481,9.7372)" stroke="rgb(64,64,64)">
          <rect width="1578" x="0" height="4" y="0" stroke="none"/>
        </g>
      </g>
      <g fill="white" transform="matrix(0.9737,0,0,0.9737,20.4481,9.7372)" stroke="white">
        <rect width="1" x="0" height="619.6875" y="0" stroke="none"/>
      </g>
      <g fill="white" transform="matrix(0.9737,0,0,0.9737,20.4481,9.7372)" stroke="white">
        <rect width="1576" x="1" height="1" y="0" stroke="none"/>
        <rect x="1" y="618.6875" fill="rgb(173,165,140)" width="1577" height="1" stroke="none"/>
        <rect x="1577" y="0" fill="rgb(173,165,140)" width="1" height="618.6875" stroke="none"/>
      </g>
    </g>
    <g id="y.node.24">
      <g fill="rgb(248,236,201)" transform="matrix(0.9737,0,0,0.9737,20.4481,9.7372)" stroke="rgb(248,236,201)">
        <rect width="640" x="923" height="307.8125" y="198.9062" stroke="none"/>
      </g>
      <g id="bla">
        <g fill="rgb(64,64,64)" transform="matrix(0.9737,0,0,0.9737,20.4481,9.7372)" stroke="rgb(64,64,64)">
          <rect width="640" x="923" height="4" y="198.9062" stroke="none"/>
        </g>
      </g>
      <g fill="white" transform="matrix(0.9737,0,0,0.9737,20.4481,9.7372)" stroke="white">
        <rect width="1" x="923" height="307.8125" y="198.9062" stroke="none"/>
        <rect width="638" x="924" height="1" y="198.9062" stroke="none"/>
        <rect x="924" y="505.7188" fill="rgb(173,165,140)" width="639" height="1" stroke="none"/>
        <rect x="1562" y="198.9062" fill="rgb(173,165,140)" width="1" height="306.8125" stroke="none"/>
      </g>
    </g>
    <g id="y.node.34">
      <g fill="rgb(248,236,201)" transform="matrix(0.9737,0,0,0.9737,20.4481,9.7372)" stroke="rgb(248,236,201)">
        <rect width="130" x="1418" height="191.875" y="299.8438" stroke="none"/>
      </g>
      <g id="bla">
        <g fill="rgb(64,64,64)" transform="matrix(0.9737,0,0,0.9737,20.4481,9.7372)" stroke="rgb(64,64,64)">
          <rect width="130" x="1418" height="4" y="299.8438" stroke="none"/>
        </g>
      </g>
      <g fill="white" transform="matrix(0.9737,0,0,0.9737,20.4481,9.7372)" stroke="white">
        <rect width="1" x="1418" height="191.875" y="299.8438" stroke="none"/>
        <rect width="128" x="1419" height="1" y="299.8438" stroke="none"/>
        <rect x="1419" y="490.7188" fill="rgb(173,165,140)" width="129" height="1" stroke="none"/>
        <rect x="1547" y="299.8438" fill="rgb(173,165,140)" width="1" height="190.875" stroke="none"/>
      </g>
    </g>
    <g id="y.node.36">
      <g fill="rgb(248,236,201)" transform="matrix(0.9737,0,0,0.9737,20.4481,9.7372)" stroke="rgb(248,236,201)">
        <rect width="100" x="1433" height="75.9375" y="400.7812" stroke="none"/>
      </g>
      <g id="bla">
        <g fill="rgb(64,64,64)" transform="matrix(0.9737,0,0,0.9737,20.4481,9.7372)" stroke="rgb(64,64,64)">
          <rect width="100" x="1433" height="4" y="400.7812" stroke="none"/>
        </g>
      </g>
      <g fill="white" transform="matrix(0.9737,0,0,0.9737,20.4481,9.7372)" stroke="white">
        <rect width="1" x="1433" height="75.9375" y="400.7812" stroke="none"/>
        <rect width="98" x="1434" height="1" y="400.7812" stroke="none"/>
        <rect x="1434" y="475.7188" fill="rgb(173,165,140)" width="99" height="1" stroke="none"/>
        <rect x="1532" y="400.7812" fill="rgb(173,165,140)" width="1" height="74.9375" stroke="none"/>
      </g>
    </g>
    <g id="y.node.37">
      <g fill="white" transform="matrix(0.9737,0,0,0.9737,20.4481,9.7372)" stroke="white">
        <rect width="70" x="1448" height="41" y="419" stroke="none"/>
        <rect x="1448" y="419" fill="none" width="70" height="41" stroke="black"/>
      </g>
      <g id="bla">
        <g font-family="sans-serif" transform="matrix(0.9737,0,0,0.9737,20.4481,9.7372)">
          <text xml:space="preserve" x="1459" y="437.9199" stroke="none">XFCTST </text>
          <text xml:space="preserve" x="1455" y="451.8887" stroke="none"> (xstaff.f)</text>
        </g>
      </g>
    </g>
    <g id="y.node.35">
      <g fill="white" transform="matrix(0.9737,0,0,0.9737,20.4481,9.7372)" stroke="white">
        <rect width="70" x="1448" height="41" y="318" stroke="none"/>
        <rect x="1448" y="318" fill="none" width="70" height="41" stroke="black"/>
      </g>
      <g id="bla">
        <g font-family="sans-serif" transform="matrix(0.9737,0,0,0.9737,20.4481,9.7372)">
          <text xml:space="preserve" x="1461" y="336.9824" stroke="none">XANLM </text>
          <text xml:space="preserve" x="1455" y="350.9512" stroke="none"> (xstaff.f)</text>
        </g>
      </g>
    </g>
    <g id="y.node.32">
      <g fill="rgb(248,236,201)" transform="matrix(0.9737,0,0,0.9737,20.4481,9.7372)" stroke="rgb(248,236,201)">
        <rect width="100" x="1298" height="75.9375" y="357.8125" stroke="none"/>
      </g>
      <g id="bla">
        <g fill="rgb(64,64,64)" transform="matrix(0.9737,0,0,0.9737,20.4481,9.7372)" stroke="rgb(64,64,64)">
          <rect width="100" x="1298" height="4" y="357.8125" stroke="none"/>
        </g>
      </g>
      <g fill="white" transform="matrix(0.9737,0,0,0.9737,20.4481,9.7372)" stroke="white">
        <rect width="1" x="1298" height="75.9375" y="357.8125" stroke="none"/>
        <rect width="98" x="1299" height="1" y="357.8125" stroke="none"/>
        <rect x="1299" y="432.75" fill="rgb(173,165,140)" width="99" height="1" stroke="none"/>
        <rect x="1397" y="357.8125" fill="rgb(173,165,140)" width="1" height="74.9375" stroke="none"/>
      </g>
    </g>
    <g id="y.node.33">
      <g fill="white" transform="matrix(0.9737,0,0,0.9737,20.4481,9.7372)" stroke="white">
        <rect width="70" x="1313" height="41" y="376" stroke="none"/>
        <rect x="1313" y="376" fill="none" width="70" height="41" stroke="black"/>
      </g>
      <g id="bla">
        <g font-family="sans-serif" transform="matrix(0.9737,0,0,0.9737,20.4481,9.7372)">
          <text xml:space="preserve" x="1322" y="394.9512" stroke="none">ROTXAN </text>
          <text xml:space="preserve" x="1320" y="408.9199" stroke="none"> (xstaff.f)</text>
        </g>
      </g>
    </g>
    <g id="y.node.30">
      <g fill="rgb(248,236,201)" transform="matrix(0.9737,0,0,0.9737,20.4481,9.7372)" stroke="rgb(248,236,201)">
        <rect width="100" x="1178" height="75.9375" y="357.8125" stroke="none"/>
      </g>
      <g id="bla">
        <g fill="rgb(64,64,64)" transform="matrix(0.9737,0,0,0.9737,20.4481,9.7372)" stroke="rgb(64,64,64)">
          <rect width="100" x="1178" height="4" y="357.8125" stroke="none"/>
        </g>
      </g>
      <g fill="white" transform="matrix(0.9737,0,0,0.9737,20.4481,9.7372)" stroke="white">
        <rect width="1" x="1178" height="75.9375" y="357.8125" stroke="none"/>
        <rect width="98" x="1179" height="1" y="357.8125" stroke="none"/>
        <rect x="1179" y="432.75" fill="rgb(173,165,140)" width="99" height="1" stroke="none"/>
        <rect x="1277" y="357.8125" fill="rgb(173,165,140)" width="1" height="74.9375" stroke="none"/>
      </g>
    </g>
    <g id="y.node.31">
      <g fill="white" transform="matrix(0.9737,0,0,0.9737,20.4481,9.7372)" stroke="white">
        <rect width="70" x="1193" height="41" y="376" stroke="none"/>
        <rect x="1193" y="376" fill="none" width="70" height="41" stroke="black"/>
      </g>
      <g id="bla">
        <g font-family="sans-serif" transform="matrix(0.9737,0,0,0.9737,20.4481,9.7372)">
          <text xml:space="preserve" x="1204.5" y="394.9512" stroke="none">ROTINT </text>
          <text xml:space="preserve" x="1200" y="408.9199" stroke="none"> (xstaff.f)</text>
        </g>
      </g>
    </g>
    <g id="y.node.28">
      <g fill="rgb(248,236,201)" transform="matrix(0.9737,0,0,0.9737,20.4481,9.7372)" stroke="rgb(248,236,201)">
        <rect width="100" x="1058" height="75.9375" y="357.8125" stroke="none"/>
      </g>
      <g id="bla">
        <g fill="rgb(64,64,64)" transform="matrix(0.9737,0,0,0.9737,20.4481,9.7372)" stroke="rgb(64,64,64)">
          <rect width="100" x="1058" height="4" y="357.8125" stroke="none"/>
        </g>
      </g>
      <g fill="white" transform="matrix(0.9737,0,0,0.9737,20.4481,9.7372)" stroke="white">
        <rect width="1" x="1058" height="75.9375" y="357.8125" stroke="none"/>
        <rect width="98" x="1059" height="1" y="357.8125" stroke="none"/>
        <rect x="1059" y="432.75" fill="rgb(173,165,140)" width="99" height="1" stroke="none"/>
        <rect x="1157" y="357.8125" fill="rgb(173,165,140)" width="1" height="74.9375" stroke="none"/>
      </g>
    </g>
    <g id="y.node.29">
      <g fill="white" transform="matrix(0.9737,0,0,0.9737,20.4481,9.7372)" stroke="white">
        <rect width="70" x="1073" height="41" y="376" stroke="none"/>
        <rect x="1073" y="376" fill="none" width="70" height="41" stroke="black"/>
      </g>
      <g id="bla">
        <g font-family="sans-serif" transform="matrix(0.9737,0,0,0.9737,20.4481,9.7372)">
          <text xml:space="preserve" x="1081" y="394.9512" stroke="none">GETANG </text>
          <text xml:space="preserve" x="1080" y="408.9199" stroke="none"> (xstaff.f)</text>
        </g>
      </g>
    </g>
    <g id="y.node.26">
      <g fill="rgb(248,236,201)" transform="matrix(0.9737,0,0,0.9737,20.4481,9.7372)" stroke="rgb(248,236,201)">
        <rect width="100" x="938" height="75.9375" y="357.8125" stroke="none"/>
      </g>
      <g id="bla">
        <g fill="rgb(64,64,64)" transform="matrix(0.9737,0,0,0.9737,20.4481,9.7372)" stroke="rgb(64,64,64)">
          <rect width="100" x="938" height="4" y="357.8125" stroke="none"/>
        </g>
      </g>
      <g fill="white" transform="matrix(0.9737,0,0,0.9737,20.4481,9.7372)" stroke="white">
        <rect width="1" x="938" height="75.9375" y="357.8125" stroke="none"/>
        <rect width="98" x="939" height="1" y="357.8125" stroke="none"/>
        <rect x="939" y="432.75" fill="rgb(173,165,140)" width="99" height="1" stroke="none"/>
        <rect x="1037" y="357.8125" fill="rgb(173,165,140)" width="1" height="74.9375" stroke="none"/>
      </g>
    </g>
    <g id="y.node.27">
      <g fill="white" transform="matrix(0.9737,0,0,0.9737,20.4481,9.7372)" stroke="white">
        <rect width="70" x="953" height="41" y="376" stroke="none"/>
        <rect x="953" y="376" fill="none" width="70" height="41" stroke="black"/>
      </g>
      <g id="bla">
        <g font-family="sans-serif" transform="matrix(0.9737,0,0,0.9737,20.4481,9.7372)">
          <text xml:space="preserve" x="962" y="394.9512" stroke="none">ATHEAP </text>
          <text xml:space="preserve" x="960" y="408.9199" stroke="none"> (xstaff.f)</text>
        </g>
      </g>
    </g>
    <g id="y.node.25">
      <g fill="white" transform="matrix(0.9737,0,0,0.9737,20.4481,9.7372)" stroke="white">
        <rect width="71" x="1192" height="41" y="217" stroke="none"/>
        <rect x="1192" y="217" fill="none" width="71" height="41" stroke="black"/>
      </g>
      <g id="bla">
        <g font-family="sans-serif" transform="matrix(0.9737,0,0,0.9737,20.4481,9.7372)">
          <text xml:space="preserve" x="1206.5" y="236.0449" stroke="none">YPREP </text>
          <text xml:space="preserve" x="1199.5" y="250.0137" stroke="none"> (yprep.f)</text>
        </g>
      </g>
    </g>
    <g id="y.node.2">
      <g fill="rgb(248,236,201)" transform="matrix(0.9737,0,0,0.9737,20.4481,9.7372)" stroke="rgb(248,236,201)">
        <rect width="888" x="15" height="503.75" y="100.9375" stroke="none"/>
      </g>
      <g id="bla">
        <g fill="rgb(64,64,64)" transform="matrix(0.9737,0,0,0.9737,20.4481,9.7372)" stroke="rgb(64,64,64)">
          <rect width="888" x="15" height="4" y="100.9375" stroke="none"/>
        </g>
      </g>
      <g fill="white" transform="matrix(0.9737,0,0,0.9737,20.4481,9.7372)" stroke="white">
        <rect width="1" x="15" height="503.75" y="100.9375" stroke="none"/>
        <rect width="886" x="16" height="1" y="100.9375" stroke="none"/>
        <rect x="16" y="603.6875" fill="rgb(173,165,140)" width="887" height="1" stroke="none"/>
        <rect x="902" y="100.9375" fill="rgb(173,165,140)" width="1" height="502.75" stroke="none"/>
      </g>
    </g>
    <g id="y.node.22">
      <g fill="rgb(248,236,201)" transform="matrix(0.9737,0,0,0.9737,20.4481,9.7372)" stroke="rgb(248,236,201)">
        <rect width="118" x="419" height="75.9375" y="221.875" stroke="none"/>
      </g>
      <g id="bla">
        <g fill="rgb(64,64,64)" transform="matrix(0.9737,0,0,0.9737,20.4481,9.7372)" stroke="rgb(64,64,64)">
          <rect width="118" x="419" height="4" y="221.875" stroke="none"/>
        </g>
      </g>
      <g fill="white" transform="matrix(0.9737,0,0,0.9737,20.4481,9.7372)" stroke="white">
        <rect width="1" x="419" height="75.9375" y="221.875" stroke="none"/>
        <rect width="116" x="420" height="1" y="221.875" stroke="none"/>
        <rect x="420" y="296.8125" fill="rgb(173,165,140)" width="117" height="1" stroke="none"/>
        <rect x="536" y="221.875" fill="rgb(173,165,140)" width="1" height="74.9375" stroke="none"/>
      </g>
    </g>
    <g id="y.node.23">
      <g fill="white" transform="matrix(0.9737,0,0,0.9737,20.4481,9.7372)" stroke="white">
        <rect width="88" x="434" height="41" y="240" stroke="none"/>
        <rect x="434" y="240" fill="none" width="88" height="41" stroke="black"/>
      </g>
      <g id="bla">
        <g font-family="sans-serif" transform="matrix(0.9737,0,0,0.9737,20.4481,9.7372)">
          <text xml:space="preserve" x="457" y="259.0137" stroke="none">XGLLM </text>
          <text xml:space="preserve" x="441" y="272.9824" stroke="none"> (fmspack.f)</text>
        </g>
      </g>
    </g>
    <g id="y.node.20">
      <g fill="rgb(248,236,201)" transform="matrix(0.9737,0,0,0.9737,20.4481,9.7372)" stroke="rgb(248,236,201)">
        <rect width="118" x="281" height="75.9375" y="221.875" stroke="none"/>
      </g>
      <g id="bla">
        <g fill="rgb(64,64,64)" transform="matrix(0.9737,0,0,0.9737,20.4481,9.7372)" stroke="rgb(64,64,64)">
          <rect width="118" x="281" height="4" y="221.875" stroke="none"/>
        </g>
      </g>
      <g fill="white" transform="matrix(0.9737,0,0,0.9737,20.4481,9.7372)" stroke="white">
        <rect width="1" x="281" height="75.9375" y="221.875" stroke="none"/>
        <rect width="116" x="282" height="1" y="221.875" stroke="none"/>
        <rect x="282" y="296.8125" fill="rgb(173,165,140)" width="117" height="1" stroke="none"/>
        <rect x="398" y="221.875" fill="rgb(173,165,140)" width="1" height="74.9375" stroke="none"/>
      </g>
    </g>
    <g id="y.node.21">
      <g fill="white" transform="matrix(0.9737,0,0,0.9737,20.4481,9.7372)" stroke="white">
        <rect width="88" x="296" height="41" y="240" stroke="none"/>
        <rect x="296" y="240" fill="none" width="88" height="41" stroke="black"/>
      </g>
      <g id="bla">
        <g font-family="sans-serif" transform="matrix(0.9737,0,0,0.9737,20.4481,9.7372)">
          <text xml:space="preserve" x="318" y="259.0137" stroke="none">XCLMZ </text>
          <text xml:space="preserve" x="303" y="272.9824" stroke="none"> (fmspack.f)</text>
        </g>
      </g>
    </g>
    <g id="y.node.18">
      <g fill="rgb(248,236,201)" transform="matrix(0.9737,0,0,0.9737,20.4481,9.7372)" stroke="rgb(248,236,201)">
        <rect width="91" x="797" height="115.9375" y="201.875" stroke="none"/>
      </g>
      <g id="bla">
        <g fill="rgb(64,64,64)" transform="matrix(0.9737,0,0,0.9737,20.4481,9.7372)" stroke="rgb(64,64,64)">
          <rect width="91" x="797" height="4" y="201.875" stroke="none"/>
        </g>
      </g>
      <g fill="white" transform="matrix(0.9737,0,0,0.9737,20.4481,9.7372)" stroke="white">
        <rect width="1" x="797" height="115.9375" y="201.875" stroke="none"/>
        <rect width="89" x="798" height="1" y="201.875" stroke="none"/>
        <rect x="798" y="316.8125" fill="rgb(173,165,140)" width="90" height="1" stroke="none"/>
        <rect x="887" y="201.875" fill="rgb(173,165,140)" width="1" height="114.9375" stroke="none"/>
      </g>
    </g>
    <g id="y.node.19">
      <g fill="white" transform="matrix(0.9737,0,0,0.9737,20.4481,9.7372)" stroke="white">
        <rect width="61" x="812" height="41" y="220" stroke="none"/>
        <rect x="812" y="220" fill="none" width="61" height="41" stroke="black"/>
      </g>
      <g id="bla">
        <g font-family="sans-serif" transform="matrix(0.9737,0,0,0.9737,20.4481,9.7372)">
          <text xml:space="preserve" x="824.5" y="239.0137" stroke="none">GGTF </text>
          <text xml:space="preserve" x="819" y="252.9824" stroke="none"> (ggtf.f)</text>
        </g>
      </g>
    </g>
    <g id="y.node.16">
      <g fill="rgb(248,236,201)" transform="matrix(0.9737,0,0,0.9737,20.4481,9.7372)" stroke="rgb(248,236,201)">
        <rect width="98" x="678" height="115.9375" y="201.875" stroke="none"/>
      </g>
      <g id="bla">
        <g fill="rgb(64,64,64)" transform="matrix(0.9737,0,0,0.9737,20.4481,9.7372)" stroke="rgb(64,64,64)">
          <rect width="98" x="678" height="4" y="201.875" stroke="none"/>
        </g>
      </g>
      <g fill="white" transform="matrix(0.9737,0,0,0.9737,20.4481,9.7372)" stroke="white">
        <rect width="1" x="678" height="115.9375" y="201.875" stroke="none"/>
        <rect width="96" x="679" height="1" y="201.875" stroke="none"/>
        <rect x="679" y="316.8125" fill="rgb(173,165,140)" width="97" height="1" stroke="none"/>
        <rect x="775" y="201.875" fill="rgb(173,165,140)" width="1" height="114.9375" stroke="none"/>
      </g>
    </g>
    <g id="y.node.17">
      <g fill="white" transform="matrix(0.9737,0,0,0.9737,20.4481,9.7372)" stroke="white">
        <rect width="68" x="693" height="41" y="220" stroke="none"/>
        <rect x="693" y="220" fill="none" width="68" height="41" stroke="black"/>
      </g>
      <g id="bla">
        <g font-family="sans-serif" transform="matrix(0.9737,0,0,0.9737,20.4481,9.7372)">
          <text xml:space="preserve" x="707" y="239.0137" stroke="none">GGRM </text>
          <text xml:space="preserve" x="700" y="252.9824" stroke="none"> (ggrm.f)</text>
        </g>
      </g>
    </g>
    <g id="y.node.14">
      <g fill="rgb(248,236,201)" transform="matrix(0.9737,0,0,0.9737,20.4481,9.7372)" stroke="rgb(248,236,201)">
        <rect width="93" x="168" height="75.9375" y="221.875" stroke="none"/>
      </g>
      <g id="bla">
        <g fill="rgb(64,64,64)" transform="matrix(0.9737,0,0,0.9737,20.4481,9.7372)" stroke="rgb(64,64,64)">
          <rect width="93" x="168" height="4" y="221.875" stroke="none"/>
        </g>
      </g>
      <g fill="white" transform="matrix(0.9737,0,0,0.9737,20.4481,9.7372)" stroke="white">
        <rect width="1" x="168" height="75.9375" y="221.875" stroke="none"/>
        <rect width="91" x="169" height="1" y="221.875" stroke="none"/>
        <rect x="169" y="296.8125" fill="rgb(173,165,140)" width="92" height="1" stroke="none"/>
        <rect x="260" y="221.875" fill="rgb(173,165,140)" width="1" height="74.9375" stroke="none"/>
      </g>
    </g>
    <g id="y.node.15">
      <g fill="white" transform="matrix(0.9737,0,0,0.9737,20.4481,9.7372)" stroke="white">
        <rect width="63" x="183" height="41" y="240" stroke="none"/>
        <rect x="183" y="240" fill="none" width="63" height="41" stroke="black"/>
      </g>
      <g id="bla">
        <g font-family="sans-serif" transform="matrix(0.9737,0,0,0.9737,20.4481,9.7372)">
          <text xml:space="preserve" x="196" y="259.0137" stroke="none">GGLU </text>
          <text xml:space="preserve" x="190" y="272.9824" stroke="none"> (gglu.f)</text>
        </g>
      </g>
    </g>
    <g id="y.node.12">
      <g fill="rgb(248,236,201)" transform="matrix(0.9737,0,0,0.9737,20.4481,9.7372)" stroke="rgb(248,236,201)">
        <rect width="101" x="557" height="115.9375" y="201.875" stroke="none"/>
      </g>
      <g id="bla">
        <g fill="rgb(64,64,64)" transform="matrix(0.9737,0,0,0.9737,20.4481,9.7372)" stroke="rgb(64,64,64)">
          <rect width="101" x="557" height="4" y="201.875" stroke="none"/>
        </g>
      </g>
      <g fill="white" transform="matrix(0.9737,0,0,0.9737,20.4481,9.7372)" stroke="white">
        <rect width="1" x="557" height="115.9375" y="201.875" stroke="none"/>
        <rect width="99" x="558" height="1" y="201.875" stroke="none"/>
        <rect x="558" y="316.8125" fill="rgb(173,165,140)" width="100" height="1" stroke="none"/>
        <rect x="657" y="201.875" fill="rgb(173,165,140)" width="1" height="114.9375" stroke="none"/>
      </g>
    </g>
    <g id="y.node.13">
      <g fill="white" transform="matrix(0.9737,0,0,0.9737,20.4481,9.7372)" stroke="white">
        <rect width="71" x="572" height="41" y="220" stroke="none"/>
        <rect x="572" y="220" fill="none" width="71" height="41" stroke="black"/>
      </g>
      <g id="bla">
        <g font-family="sans-serif" transform="matrix(0.9737,0,0,0.9737,20.4481,9.7372)">
          <text xml:space="preserve" x="587" y="239.0137" stroke="none">GGGM </text>
          <text xml:space="preserve" x="579" y="252.9824" stroke="none"> (gggm.f)</text>
        </g>
      </g>
    </g>
    <g id="y.node.6">
      <g fill="rgb(248,236,201)" transform="matrix(0.9737,0,0,0.9737,20.4481,9.7372)" stroke="rgb(248,236,201)">
        <rect width="246" x="599.0739" height="231.875" y="357.8125" stroke="none"/>
      </g>
      <g id="bla">
        <g fill="rgb(64,64,64)" transform="matrix(0.9737,0,0,0.9737,20.4481,9.7372)" stroke="rgb(64,64,64)">
          <rect width="246" x="599.0739" height="4" y="357.8125" stroke="none"/>
        </g>
      </g>
      <g fill="white" transform="matrix(0.9737,0,0,0.9737,20.4481,9.7372)" stroke="white">
        <rect width="1" x="599.0739" height="231.875" y="357.8125" stroke="none"/>
        <rect width="244" x="600.0739" height="1" y="357.8125" stroke="none"/>
        <rect x="600.0739" y="588.6875" fill="rgb(173,165,140)" width="245" height="1" stroke="none"/>
        <rect x="844.0739" y="357.8125" fill="rgb(173,165,140)" width="1" height="230.875" stroke="none"/>
      </g>
    </g>
    <g id="y.node.10">
      <g fill="rgb(248,236,201)" transform="matrix(0.9737,0,0,0.9737,20.4481,9.7372)" stroke="rgb(248,236,201)">
        <rect width="98" x="732.0739" height="115.9375" y="458.75" stroke="none"/>
      </g>
      <g id="bla">
        <g fill="rgb(64,64,64)" transform="matrix(0.9737,0,0,0.9737,20.4481,9.7372)" stroke="rgb(64,64,64)">
          <rect width="98" x="732.0739" height="4" y="458.75" stroke="none"/>
        </g>
      </g>
      <g fill="white" transform="matrix(0.9737,0,0,0.9737,20.4481,9.7372)" stroke="white">
        <rect width="1" x="732.0739" height="115.9375" y="458.75" stroke="none"/>
        <rect width="96" x="733.0739" height="1" y="458.75" stroke="none"/>
        <rect x="733.0739" y="573.6875" fill="rgb(173,165,140)" width="97" height="1" stroke="none"/>
        <rect x="829.0739" y="458.75" fill="rgb(173,165,140)" width="1" height="114.9375" stroke="none"/>
      </g>
    </g>
    <g id="y.node.11">
      <g fill="white" transform="matrix(0.9737,0,0,0.9737,20.4481,9.7372)" stroke="white">
        <rect width="68" x="747" height="41" y="517" stroke="none"/>
        <rect x="747" y="517" fill="none" width="68" height="41" stroke="black"/>
      </g>
      <g id="bla">
        <g font-family="sans-serif" transform="matrix(0.9737,0,0,0.9737,20.4481,9.7372)">
          <text xml:space="preserve" x="754.5739" y="535.8887" stroke="none">MATVEC </text>
          <text xml:space="preserve" x="754.0739" y="549.8574" stroke="none"> (ggrm.f)</text>
        </g>
      </g>
    </g>
    <g id="y.node.8">
      <g fill="rgb(248,236,201)" transform="matrix(0.9737,0,0,0.9737,20.4481,9.7372)" stroke="rgb(248,236,201)">
        <rect width="98" x="614.0739" height="115.9375" y="458.75" stroke="none"/>
      </g>
      <g id="bla">
        <g fill="rgb(64,64,64)" transform="matrix(0.9737,0,0,0.9737,20.4481,9.7372)" stroke="rgb(64,64,64)">
          <rect width="98" x="614.0739" height="4" y="458.75" stroke="none"/>
        </g>
      </g>
      <g fill="white" transform="matrix(0.9737,0,0,0.9737,20.4481,9.7372)" stroke="white">
        <rect width="1" x="614.0739" height="115.9375" y="458.75" stroke="none"/>
        <rect width="96" x="615.0739" height="1" y="458.75" stroke="none"/>
        <rect x="615.0739" y="573.6875" fill="rgb(173,165,140)" width="97" height="1" stroke="none"/>
        <rect x="711.0739" y="458.75" fill="rgb(173,165,140)" width="1" height="114.9375" stroke="none"/>
      </g>
    </g>
    <g id="y.node.9">
      <g fill="white" transform="matrix(0.9737,0,0,0.9737,20.4481,9.7372)" stroke="white">
        <rect width="68" x="629" height="41" y="517" stroke="none"/>
        <rect x="629" y="517" fill="none" width="68" height="41" stroke="black"/>
      </g>
      <g id="bla">
        <g font-family="sans-serif" transform="matrix(0.9737,0,0,0.9737,20.4481,9.7372)">
          <text xml:space="preserve" x="644.5739" y="535.8887" stroke="none">CDOT </text>
          <text xml:space="preserve" x="636.0739" y="549.8574" stroke="none"> (ggrm.f)</text>
        </g>
      </g>
    </g>
    <g id="y.node.7">
      <g fill="white" transform="matrix(0.9737,0,0,0.9737,20.4481,9.7372)" stroke="white">
        <rect width="63" x="686" height="41" y="376" stroke="none"/>
        <rect x="686" y="376" fill="none" width="63" height="41" stroke="black"/>
      </g>
      <g id="bla">
        <g font-family="sans-serif" transform="matrix(0.9737,0,0,0.9737,20.4481,9.7372)">
          <text xml:space="preserve" x="701.0739" y="394.9512" stroke="none">GGBI </text>
          <text xml:space="preserve" x="693.0739" y="408.9199" stroke="none"> (ggbi.f)</text>
        </g>
      </g>
    </g>
    <g id="y.node.4">
      <g fill="rgb(248,236,201)" transform="matrix(0.9737,0,0,0.9737,20.4481,9.7372)" stroke="rgb(248,236,201)">
        <rect width="118" x="30" height="75.9375" y="221.875" stroke="none"/>
      </g>
      <g id="bla">
        <g fill="rgb(64,64,64)" transform="matrix(0.9737,0,0,0.9737,20.4481,9.7372)" stroke="rgb(64,64,64)">
          <rect width="118" x="30" height="4" y="221.875" stroke="none"/>
        </g>
      </g>
      <g fill="white" transform="matrix(0.9737,0,0,0.9737,20.4481,9.7372)" stroke="white">
        <rect width="1" x="30" height="75.9375" y="221.875" stroke="none"/>
        <rect width="116" x="31" height="1" y="221.875" stroke="none"/>
        <rect x="31" y="296.8125" fill="rgb(173,165,140)" width="117" height="1" stroke="none"/>
        <rect x="147" y="221.875" fill="rgb(173,165,140)" width="1" height="74.9375" stroke="none"/>
      </g>
    </g>
    <g id="y.node.5">
      <g fill="white" transform="matrix(0.9737,0,0,0.9737,20.4481,9.7372)" stroke="white">
        <rect width="88" x="45" height="41" y="240" stroke="none"/>
        <rect x="45" y="240" fill="none" width="88" height="41" stroke="black"/>
      </g>
      <g id="bla">
        <g font-family="sans-serif" transform="matrix(0.9737,0,0,0.9737,20.4481,9.7372)">
          <text xml:space="preserve" x="64" y="259.0137" stroke="none">GETKTS </text>
          <text xml:space="preserve" x="52" y="272.9824" stroke="none"> (fmspack.f)</text>
        </g>
      </g>
    </g>
    <g id="y.node.3">
      <g fill="white" transform="matrix(0.9737,0,0,0.9737,20.4481,9.7372)" stroke="white">
        <rect width="88" x="498" height="41" y="119" stroke="none"/>
        <rect x="498" y="119" fill="none" width="88" height="41" stroke="black"/>
      </g>
      <g id="bla">
        <g font-family="sans-serif" transform="matrix(0.9737,0,0,0.9737,20.4481,9.7372)">
          <text xml:space="preserve" x="528.25" y="138.0762" stroke="none">FMS </text>
          <text xml:space="preserve" x="505.75" y="152.0449" stroke="none"> (fmspack.f)</text>
        </g>
      </g>
    </g>
    <g id="y.node.1">
      <g fill="white" transform="matrix(0.9737,0,0,0.9737,20.4481,9.7372)" stroke="white">
        <rect width="69" x="850" height="41" y="19" stroke="none"/>
        <rect x="850" y="19" fill="none" width="69" height="41" stroke="black"/>
      </g>
      <g id="bla">
        <g font-family="sans-serif" transform="matrix(0.9737,0,0,0.9737,20.4481,9.7372)">
          <text xml:space="preserve" x="865.375" y="37.1387" stroke="none">FMSIE </text>
          <text xml:space="preserve" x="857.875" y="51.1074" stroke="none"> (fmsie.f)</text>
        </g>
      </g>
    </g>
    <g id="y.node.38">
      <g fill="rgb(248,236,201)" transform="matrix(0.9737,0,0,0.9737,20.4481,9.7372)" stroke="rgb(248,236,201)">
        <rect width="98" x="145" height="75.9375" y="664.6875" stroke="none"/>
      </g>
      <g id="bla">
        <g fill="rgb(64,64,64)" transform="matrix(0.9737,0,0,0.9737,20.4481,9.7372)" stroke="rgb(64,64,64)">
          <rect width="98" x="145" height="4" y="664.6875" stroke="none"/>
        </g>
      </g>
      <g fill="white" transform="matrix(0.9737,0,0,0.9737,20.4481,9.7372)" stroke="white">
        <rect width="1" x="145" height="75.9375" y="664.6875" stroke="none"/>
        <rect width="96" x="146" height="1" y="664.6875" stroke="none"/>
        <rect x="146" y="739.625" fill="rgb(173,165,140)" width="97" height="1" stroke="none"/>
        <rect x="242" y="664.6875" fill="rgb(173,165,140)" width="1" height="74.9375" stroke="none"/>
      </g>
    </g>
    <g id="y.node.39">
      <g fill="white" transform="matrix(0.9737,0,0,0.9737,20.4481,9.7372)" stroke="white">
        <rect width="68" x="160" height="41" y="683" stroke="none"/>
        <rect x="160" y="683" fill="none" width="68" height="41" stroke="black"/>
      </g>
      <g id="bla">
        <g font-family="sans-serif" transform="matrix(0.9737,0,0,0.9737,20.4481,9.7372)">
          <text xml:space="preserve" x="168" y="701.8262" stroke="none">VECVEC </text>
          <text xml:space="preserve" x="167" y="715.7949" stroke="none"> (ggrm.f)</text>
        </g>
      </g>
    </g>
    <g id="y.node.40">
      <g fill="rgb(248,236,201)" transform="matrix(0.9737,0,0,0.9737,20.4481,9.7372)" stroke="rgb(248,236,201)">
        <rect width="100" x="0" height="75.9375" y="664.6875" stroke="none"/>
      </g>
      <g id="bla">
        <g fill="rgb(64,64,64)" transform="matrix(0.9737,0,0,0.9737,20.4481,9.7372)" stroke="rgb(64,64,64)">
          <rect width="100" x="0" height="4" y="664.6875" stroke="none"/>
        </g>
      </g>
      <g fill="white" transform="matrix(0.9737,0,0,0.9737,20.4481,9.7372)" stroke="white">
        <rect width="1" x="0" height="75.9375" y="664.6875" stroke="none"/>
        <rect width="98" x="1" height="1" y="664.6875" stroke="none"/>
        <rect x="1" y="739.625" fill="rgb(173,165,140)" width="99" height="1" stroke="none"/>
        <rect x="99" y="664.6875" fill="rgb(173,165,140)" width="1" height="74.9375" stroke="none"/>
      </g>
    </g>
    <g id="y.node.41">
      <g fill="white" transform="matrix(0.9737,0,0,0.9737,20.4481,9.7372)" stroke="white">
        <rect width="70" x="15" height="41" y="683" stroke="none"/>
        <rect x="15" y="683" fill="none" width="70" height="41" stroke="black"/>
      </g>
      <g id="bla">
        <g font-family="sans-serif" transform="matrix(0.9737,0,0,0.9737,20.4481,9.7372)">
          <text xml:space="preserve" x="24.5" y="701.8262" stroke="none">SORTAT </text>
          <text xml:space="preserve" x="22" y="715.7949" stroke="none"> (xstaff.f)</text>
        </g>
      </g>
    </g>
    <g id="y.edge.0">
      <g stroke-miterlimit="1.45" transform="matrix(0.9737,0,0,0.9737,20.4481,9.7372)" stroke-linecap="butt">
        <path fill="none" d="M868.0853 60.9424 L542.75 100.9375 L542.75 111.9004"/>
        <path d="M542.75 119.9004 L547.75 107.9004 L542.75 110.9004 L537.75 107.9004 Z" stroke="none"/>
      </g>
    </g>
    <g id="y.edge.1">
      <g stroke-miterlimit="1.45" transform="matrix(0.9737,0,0,0.9737,20.4481,9.7372)" stroke-linecap="butt">
        <path fill="none" d="M902.6647 60.9424 L1228 100.9375 L1228 209.8777"/>
        <path d="M1228 217.8777 L1233 205.8777 L1228 208.8777 L1223 205.8777 Z" stroke="none"/>
      </g>
    </g>
    <g id="y.edge.2">
      <g stroke-miterlimit="1.45" transform="matrix(0.9737,0,0,0.9737,20.4481,9.7372)" stroke-linecap="butt">
        <path fill="none" d="M504.2247 161.8774 L89 201.875 L89 232.8369"/>
        <path d="M89 240.8369 L94 228.8369 L89 231.8369 L84 228.8369 Z" stroke="none"/>
      </g>
    </g>
    <g id="y.edge.3">
      <g stroke-miterlimit="1.45" transform="matrix(0.9737,0,0,0.9737,20.4481,9.7372)" stroke-linecap="butt">
        <path fill="none" d="M570.2764 161.8799 L786.5 201.875 L786.5 317.8125 L717.5739 357.8125 L717.5739 368.7754"/>
        <path d="M717.5739 376.7754 L722.5739 364.7754 L717.5739 367.7754 L712.5739 364.7754 Z" stroke="none"/>
      </g>
    </g>
    <g id="y.edge.4">
      <g stroke-miterlimit="1.45" transform="matrix(0.9737,0,0,0.9737,20.4481,9.7372)" stroke-linecap="butt">
        <path fill="none" d="M548.2789 161.8945 L607.5 201.875 L607.5 212.8379"/>
        <path d="M607.5 220.8379 L612.5 208.8379 L607.5 211.8379 L602.5 208.8379 Z" stroke="none"/>
      </g>
    </g>
    <g id="y.edge.5">
      <g stroke-miterlimit="1.45" transform="matrix(0.9737,0,0,0.9737,20.4481,9.7372)" stroke-linecap="butt">
        <path fill="none" d="M515.2133 161.8799 L214.5 201.875 L214.5 232.8369"/>
        <path d="M214.5 240.8369 L219.5 228.8369 L214.5 231.8369 L209.5 228.8369 Z" stroke="none"/>
      </g>
    </g>
    <g id="y.edge.6">
      <g stroke-miterlimit="1.45" transform="matrix(0.9737,0,0,0.9737,20.4481,9.7372)" stroke-linecap="butt">
        <path fill="none" d="M559.291 161.8848 L727 201.875 L727 212.8379"/>
        <path d="M727 220.8379 L732 208.8379 L727 211.8379 L722 208.8379 Z" stroke="none"/>
      </g>
    </g>
    <g id="y.edge.7">
      <g stroke-miterlimit="1.45" transform="matrix(0.9737,0,0,0.9737,20.4481,9.7372)" stroke-linecap="butt">
        <path fill="none" d="M581.2819 161.8799 L842.5 201.875 L842.5 212.8379"/>
        <path d="M842.5 220.8379 L847.5 208.8379 L842.5 211.8379 L837.5 208.8379 Z" stroke="none"/>
      </g>
    </g>
    <g id="y.edge.8">
      <g stroke-miterlimit="1.45" transform="matrix(0.9737,0,0,0.9737,20.4481,9.7372)" stroke-linecap="butt">
        <path fill="none" d="M526.2045 161.8848 L340 201.875 L340 232.8369"/>
        <path d="M340 240.8369 L345 228.8369 L340 231.8369 L335 228.8369 Z" stroke="none"/>
      </g>
    </g>
    <g id="y.edge.9">
      <g stroke-miterlimit="1.45" transform="matrix(0.9737,0,0,0.9737,20.4481,9.7372)" stroke-linecap="butt">
        <path fill="none" d="M537.2211 161.8945 L478 201.875 L478 232.8369"/>
        <path d="M478 240.8369 L483 228.8369 L478 231.8369 L473 228.8369 Z" stroke="none"/>
      </g>
    </g>
    <g id="y.edge.10">
      <g stroke-miterlimit="1.45" transform="matrix(0.9737,0,0,0.9737,20.4481,9.7372)" stroke-linecap="butt">
        <path fill="none" d="M701.8074 418.7695 L668.0739 458.75 L668.0739 477.75 L670.8731 509.7414"/>
        <path d="M671.5704 517.7109 L675.5054 505.3208 L670.7859 508.7452 L665.5435 506.1924 Z" stroke="none"/>
      </g>
    </g>
    <g id="y.edge.11">
      <g stroke-miterlimit="1.45" transform="matrix(0.9737,0,0,0.9737,20.4481,9.7372)" stroke-linecap="butt">
        <path fill="none" d="M733.3496 418.7695 L786.0739 458.75 L786.0739 477.75 L788.8731 509.7414"/>
        <path d="M789.5704 517.7109 L793.5054 505.3208 L788.7859 508.7452 L783.5435 506.1924 Z" stroke="none"/>
      </g>
    </g>
    <g id="y.edge.12">
      <g stroke-miterlimit="1.45" transform="matrix(0.9737,0,0,0.9737,20.4481,9.7372)" stroke-linecap="butt">
        <path fill="none" d="M589.7625 262.8516 L602.5 302.8125 L602.5 317.8125 L642.0739 357.8125 L642.0739 418.75 L648.0739 458.75 L648.0739 477.75 L639.6153 509.9731"/>
        <path d="M637.5841 517.7109 L645.467 507.3737 L639.8692 509.0059 L635.7947 504.8347 Z" stroke="none"/>
      </g>
    </g>
    <g id="y.edge.13">
      <g stroke-miterlimit="1.45" transform="matrix(0.9737,0,0,0.9737,20.4481,9.7372)" stroke-linecap="butt">
        <path fill="none" d="M625.2375 262.8516 L612.5 302.8125 L612.5 317.8125 L778.1989 357.8125 L778.1989 418.75 L766.0739 458.75 L766.0739 477.75 L757.6153 509.9731"/>
        <path d="M755.5841 517.7109 L763.467 507.3737 L757.8692 509.0059 L753.7947 504.8347 Z" stroke="none"/>
      </g>
    </g>
    <g id="y.edge.14">
      <g stroke-miterlimit="1.45" transform="matrix(0.9737,0,0,0.9737,20.4481,9.7372)" stroke-linecap="butt">
        <path fill="none" d="M710.0117 262.8516 L722 302.8125 L722 317.8125 L652.0739 357.8125 L652.0739 418.75 L658.0739 458.75 L658.0739 477.75 L655.2746 509.7414"/>
        <path d="M654.5773 517.7109 L660.6042 506.1924 L655.3618 508.7452 L650.6423 505.3208 Z" stroke="none"/>
      </g>
    </g>
    <g id="y.edge.15">
      <g stroke-miterlimit="1.45" transform="matrix(0.9737,0,0,0.9737,20.4481,9.7372)" stroke-linecap="butt">
        <path fill="none" d="M743.9883 262.8516 L732 302.8125 L732 317.8125 L788.1989 357.8125 L788.1989 418.75 L776.0739 458.75 L776.0739 477.75 L773.2746 509.7414"/>
        <path d="M772.5773 517.7109 L778.6042 506.1924 L773.3618 508.7452 L768.6423 505.3208 Z" stroke="none"/>
      </g>
    </g>
    <g id="y.edge.16">
      <g stroke-miterlimit="1.45" transform="matrix(0.9737,0,0,0.9737,20.4481,9.7372)" stroke-linecap="butt">
        <path fill="none" d="M827.26 262.8516 L837.5 302.8125 L837.5 317.8125 L663.0739 357.8125 L663.0739 418.75 L678.0739 458.75 L678.0739 477.75 L686.5324 509.9731"/>
        <path d="M688.5636 517.7109 L690.353 504.8347 L686.2785 509.0059 L680.6807 507.3737 Z" stroke="none"/>
      </g>
    </g>
    <g id="y.edge.17">
      <g stroke-miterlimit="1.45" transform="matrix(0.9737,0,0,0.9737,20.4481,9.7372)" stroke-linecap="butt">
        <path fill="none" d="M857.74 262.8516 L847.5 302.8125 L847.5 317.8125 L799.1989 357.8125 L799.1989 418.75 L796.0739 458.75 L796.0739 477.75 L804.5324 509.9731"/>
        <path d="M806.5636 517.7109 L808.353 504.8347 L804.2785 509.0059 L798.6807 507.3737 Z" stroke="none"/>
      </g>
    </g>
    <g id="y.edge.18">
      <g stroke-miterlimit="1.45" transform="matrix(0.9737,0,0,0.9737,20.4481,9.7372)" stroke-linecap="butt">
        <path fill="none" d="M1199.5742 259.8486 L988 299.8438 L988 368.7749"/>
        <path d="M988 376.7749 L993 364.7749 L988 367.7749 L983 364.7749 Z" stroke="none"/>
      </g>
    </g>
    <g id="y.edge.19">
      <g stroke-miterlimit="1.45" transform="matrix(0.9737,0,0,0.9737,20.4481,9.7372)" stroke-linecap="butt">
        <path fill="none" d="M1213.7742 259.8535 L1108 299.8438 L1108 368.7749"/>
        <path d="M1108 376.7749 L1113 364.7749 L1108 367.7749 L1103 364.7749 Z" stroke="none"/>
      </g>
    </g>
    <g id="y.edge.20">
      <g stroke-miterlimit="1.45" transform="matrix(0.9737,0,0,0.9737,20.4481,9.7372)" stroke-linecap="butt">
        <path fill="none" d="M1228 259.8723 L1228 368.7839"/>
        <path d="M1228 376.7839 L1233 364.7839 L1228 367.7839 L1223 364.7839 Z" stroke="none"/>
      </g>
    </g>
    <g id="y.edge.21">
      <g stroke-miterlimit="1.45" transform="matrix(0.9737,0,0,0.9737,20.4481,9.7372)" stroke-linecap="butt">
        <path fill="none" d="M1242.2258 259.8535 L1348 299.8438 L1348 368.7749"/>
        <path d="M1348 376.7749 L1353 364.7749 L1348 367.7749 L1343 364.7749 Z" stroke="none"/>
      </g>
    </g>
    <g id="y.edge.22">
      <g stroke-miterlimit="1.45" transform="matrix(0.9737,0,0,0.9737,20.4481,9.7372)" stroke-linecap="butt">
        <path fill="none" d="M1256.4276 259.8486 L1483 299.8438 L1483 310.8066"/>
        <path d="M1483 318.8066 L1488 306.8066 L1483 309.8066 L1478 306.8066 Z" stroke="none"/>
      </g>
    </g>
    <g id="y.edge.23">
      <g stroke-miterlimit="1.45" transform="matrix(0.9737,0,0,0.9737,20.4481,9.7372)" stroke-linecap="butt">
        <path fill="none" d="M1483 360.8101 L1483 411.7524"/>
        <path d="M1483 419.7524 L1488 407.7524 L1483 410.7524 L1478 407.7524 Z" stroke="none"/>
      </g>
    </g>
  </g>
</svg>
