<?xml version="1.0" encoding="UTF-8"?><svg xmlns="http://www.w3.org/2000/svg" xmlns:xlink="http://www.w3.org/1999/xlink" fill-opacity="1" color-rendering="auto" color-interpolation="auto" stroke="black" text-rendering="auto" stroke-linecap="square" width="1010" stroke-miterlimit="10" stroke-opacity="1" shape-rendering="auto" fill="black" stroke-dasharray="none" font-weight="normal" stroke-width="1" height="1240" font-family="'Dialog'" font-style="normal" stroke-linejoin="miter" font-size="12" stroke-dashoffset="0" image-rendering="auto">
  <!--Generated by ySVG-->
  <defs id="genericDefs"/>
  <g>
    <defs id="defs1">
      <clipPath clipPathUnits="userSpaceOnUse" id="clipPath1">
        <path d="M0 0 L1010 0 L1010 1240 L0 1240 L0 0 Z"/>
      </clipPath>
    </defs>
    <g id="y.node.0">
      <g fill="rgb(248,236,201)" transform="matrix(0.9806,0,0,0.9806,9.8058,11.767)" stroke="rgb(248,236,201)">
        <rect width="970" x="39.5" height="1007.5" y="231.875" stroke="none"/>
      </g>
      <g id="bla">
        <g fill="rgb(64,64,64)" transform="matrix(0.9806,0,0,0.9806,9.8058,11.767)" stroke="rgb(64,64,64)">
          <rect width="970" x="39.5" height="4" y="231.875" stroke="none"/>
        </g>
      </g>
      <g fill="white" transform="matrix(0.9806,0,0,0.9806,9.8058,11.767)" stroke="white">
        <rect width="1" x="39.5" height="1007.5" y="231.875" stroke="none"/>
      </g>
      <g fill="white" transform="matrix(0.9806,0,0,0.9806,9.8058,11.767)" stroke="white">
        <rect width="968" x="40.5" height="1" y="231.875" stroke="none"/>
        <rect x="40.5" y="1238.375" fill="rgb(173,165,140)" width="969" height="1" stroke="none"/>
        <rect x="1008.5" y="231.875" fill="rgb(173,165,140)" width="1" height="1006.5" stroke="none"/>
      </g>
    </g>
    <g id="y.node.24">
      <g fill="rgb(248,236,201)" transform="matrix(0.9806,0,0,0.9806,9.8058,11.767)" stroke="rgb(248,236,201)">
        <rect width="314.5" x="300.5" height="307.8125" y="410.7812" stroke="none"/>
      </g>
      <g id="bla">
        <g fill="rgb(64,64,64)" transform="matrix(0.9806,0,0,0.9806,9.8058,11.767)" stroke="rgb(64,64,64)">
          <rect width="314.5" x="300.5" height="4" y="410.7812" stroke="none"/>
        </g>
      </g>
      <g fill="white" transform="matrix(0.9806,0,0,0.9806,9.8058,11.767)" stroke="white">
        <rect width="1" x="300.5" height="307.8125" y="410.7812" stroke="none"/>
        <rect width="312.5" x="301.5" height="1" y="410.7812" stroke="none"/>
        <rect x="301.5" y="717.5938" fill="rgb(173,165,140)" width="313.5" height="1" stroke="none"/>
        <rect x="614" y="410.7812" fill="rgb(173,165,140)" width="1" height="306.8125" stroke="none"/>
      </g>
    </g>
    <g id="y.node.28">
      <g fill="rgb(248,236,201)" transform="matrix(0.9806,0,0,0.9806,9.8058,11.767)" stroke="rgb(248,236,201)">
        <rect width="141" x="448.5" height="191.875" y="511.7188" stroke="none"/>
      </g>
      <g id="bla">
        <g fill="rgb(64,64,64)" transform="matrix(0.9806,0,0,0.9806,9.8058,11.767)" stroke="rgb(64,64,64)">
          <rect width="141" x="448.5" height="4" y="511.7188" stroke="none"/>
        </g>
      </g>
      <g fill="white" transform="matrix(0.9806,0,0,0.9806,9.8058,11.767)" stroke="white">
        <rect width="1" x="448.5" height="191.875" y="511.7188" stroke="none"/>
        <rect width="139" x="449.5" height="1" y="511.7188" stroke="none"/>
        <rect x="449.5" y="702.5938" fill="rgb(173,165,140)" width="140" height="1" stroke="none"/>
        <rect x="588.5" y="511.7188" fill="rgb(173,165,140)" width="1" height="190.875" stroke="none"/>
      </g>
    </g>
    <g id="y.node.30">
      <g fill="rgb(248,236,201)" transform="matrix(0.9806,0,0,0.9806,9.8058,11.767)" stroke="rgb(248,236,201)">
        <rect width="111" x="463.5" height="75.9375" y="612.6562" stroke="none"/>
      </g>
      <g id="bla">
        <g fill="rgb(64,64,64)" transform="matrix(0.9806,0,0,0.9806,9.8058,11.767)" stroke="rgb(64,64,64)">
          <rect width="111" x="463.5" height="4" y="612.6562" stroke="none"/>
        </g>
      </g>
      <g fill="white" transform="matrix(0.9806,0,0,0.9806,9.8058,11.767)" stroke="white">
        <rect width="1" x="463.5" height="75.9375" y="612.6562" stroke="none"/>
        <rect width="109" x="464.5" height="1" y="612.6562" stroke="none"/>
        <rect x="464.5" y="687.5938" fill="rgb(173,165,140)" width="110" height="1" stroke="none"/>
        <rect x="573.5" y="612.6562" fill="rgb(173,165,140)" width="1" height="74.9375" stroke="none"/>
      </g>
    </g>
    <g id="y.node.31">
      <g fill="white" transform="matrix(0.9806,0,0,0.9806,9.8058,11.767)" stroke="white">
        <rect width="81" x="478" height="41" y="631" stroke="none"/>
        <rect x="478" y="631" fill="none" width="81" height="41" stroke="black"/>
      </g>
      <g id="bla">
        <g font-family="sans-serif" transform="matrix(0.9806,0,0,0.9806,9.8058,11.767)">
          <text xml:space="preserve" x="492.5" y="649.7949" stroke="none">APRDEP </text>
          <text xml:space="preserve" x="485.5" y="663.7637" stroke="none"> (aprdep.f)</text>
        </g>
      </g>
    </g>
    <g id="y.node.29">
      <g fill="white" transform="matrix(0.9806,0,0,0.9806,9.8058,11.767)" stroke="white">
        <rect width="79" x="479" height="41" y="530" stroke="none"/>
        <rect x="479" y="530" fill="none" width="79" height="41" stroke="black"/>
      </g>
      <g id="bla">
        <g font-family="sans-serif" transform="matrix(0.9806,0,0,0.9806,9.8058,11.767)">
          <text xml:space="preserve" x="492.5" y="548.8574" stroke="none">POTDVP </text>
          <text xml:space="preserve" x="486.5" y="562.8262" stroke="none"> (potdvp.f)</text>
        </g>
      </g>
    </g>
    <g id="y.node.26">
      <g fill="rgb(248,236,201)" transform="matrix(0.9806,0,0,0.9806,9.8058,11.767)" stroke="rgb(248,236,201)">
        <rect width="112" x="315.5" height="75.9375" y="569.6875" stroke="none"/>
      </g>
      <g id="bla">
        <g fill="rgb(64,64,64)" transform="matrix(0.9806,0,0,0.9806,9.8058,11.767)" stroke="rgb(64,64,64)">
          <rect width="112" x="315.5" height="4" y="569.6875" stroke="none"/>
        </g>
      </g>
      <g fill="white" transform="matrix(0.9806,0,0,0.9806,9.8058,11.767)" stroke="white">
        <rect width="1" x="315.5" height="75.9375" y="569.6875" stroke="none"/>
        <rect width="110" x="316.5" height="1" y="569.6875" stroke="none"/>
        <rect x="316.5" y="644.625" fill="rgb(173,165,140)" width="111" height="1" stroke="none"/>
        <rect x="426.5" y="569.6875" fill="rgb(173,165,140)" width="1" height="74.9375" stroke="none"/>
      </g>
    </g>
    <g id="y.node.27">
      <g fill="white" transform="matrix(0.9806,0,0,0.9806,9.8058,11.767)" stroke="white">
        <rect width="82" x="330" height="41" y="588" stroke="none"/>
        <rect x="330" y="588" fill="none" width="82" height="41" stroke="black"/>
      </g>
      <g id="bla">
        <g font-family="sans-serif" transform="matrix(0.9806,0,0,0.9806,9.8058,11.767)">
          <text xml:space="preserve" x="344" y="606.8262" stroke="none">NUCDEC </text>
          <text xml:space="preserve" x="337.5" y="620.7949" stroke="none"> (nucdec.f)</text>
        </g>
      </g>
    </g>
    <g id="y.node.25">
      <g fill="white" transform="matrix(0.9806,0,0,0.9806,9.8058,11.767)" stroke="white">
        <rect width="72" x="442" height="41" y="429" stroke="none"/>
        <rect x="442" y="429" fill="none" width="72" height="41" stroke="black"/>
      </g>
      <g id="bla">
        <g font-family="sans-serif" transform="matrix(0.9806,0,0,0.9806,9.8058,11.767)">
          <text xml:space="preserve" x="453.5" y="447.9199" stroke="none">WFIRDC </text>
          <text xml:space="preserve" x="449.5" y="461.8887" stroke="none"> (wfirdc.f)</text>
        </g>
      </g>
    </g>
    <g id="y.node.20">
      <g fill="rgb(248,236,201)" transform="matrix(0.9806,0,0,0.9806,9.8058,11.767)" stroke="rgb(248,236,201)">
        <rect width="150" x="269.0542" height="231.875" y="836.5625" stroke="none"/>
      </g>
      <g id="bla">
        <g fill="rgb(64,64,64)" transform="matrix(0.9806,0,0,0.9806,9.8058,11.767)" stroke="rgb(64,64,64)">
          <rect width="150" x="269.0542" height="4" y="836.5625" stroke="none"/>
        </g>
      </g>
      <g fill="white" transform="matrix(0.9806,0,0,0.9806,9.8058,11.767)" stroke="white">
        <rect width="1" x="269.0542" height="231.875" y="836.5625" stroke="none"/>
        <rect width="148" x="270.0542" height="1" y="836.5625" stroke="none"/>
        <rect x="270.0542" y="1067.4375" fill="rgb(173,165,140)" width="149" height="1" stroke="none"/>
        <rect x="418.0542" y="836.5625" fill="rgb(173,165,140)" width="1" height="230.875" stroke="none"/>
      </g>
    </g>
    <g id="y.node.22">
      <g fill="rgb(248,236,201)" transform="matrix(0.9806,0,0,0.9806,9.8058,11.767)" stroke="rgb(248,236,201)">
        <rect width="103" x="284.0542" height="75.9375" y="977.5" stroke="none"/>
      </g>
      <g id="bla">
        <g fill="rgb(64,64,64)" transform="matrix(0.9806,0,0,0.9806,9.8058,11.767)" stroke="rgb(64,64,64)">
          <rect width="103" x="284.0542" height="4" y="977.5" stroke="none"/>
        </g>
      </g>
      <g fill="white" transform="matrix(0.9806,0,0,0.9806,9.8058,11.767)" stroke="white">
        <rect width="1" x="284.0542" height="75.9375" y="977.5" stroke="none"/>
        <rect width="101" x="285.0542" height="1" y="977.5" stroke="none"/>
        <rect x="285.0542" y="1052.4375" fill="rgb(173,165,140)" width="102" height="1" stroke="none"/>
        <rect x="386.0542" y="977.5" fill="rgb(173,165,140)" width="1" height="74.9375" stroke="none"/>
      </g>
    </g>
    <g id="y.node.23">
      <g fill="white" transform="matrix(0.9806,0,0,0.9806,9.8058,11.767)" stroke="white">
        <rect width="73" x="299" height="41" y="996" stroke="none"/>
        <rect x="299" y="996" fill="none" width="73" height="41" stroke="black"/>
      </g>
      <g id="bla">
        <g font-family="sans-serif" transform="matrix(0.9806,0,0,0.9806,9.8058,11.767)">
          <text xml:space="preserve" x="311.5542" y="1014.6387" stroke="none">INTOUT </text>
          <text xml:space="preserve" x="306.0542" y="1028.6074" stroke="none"> (intout.f)</text>
        </g>
      </g>
    </g>
    <g id="y.node.21">
      <g fill="white" transform="matrix(0.9806,0,0,0.9806,9.8058,11.767)" stroke="white">
        <rect width="75" x="329" height="41" y="895" stroke="none"/>
        <rect x="329" y="895" fill="none" width="75" height="41" stroke="black"/>
      </g>
      <g id="bla">
        <g font-family="sans-serif" transform="matrix(0.9806,0,0,0.9806,9.8058,11.767)">
          <text xml:space="preserve" x="340.5542" y="913.7012" stroke="none">SOLOUT </text>
          <text xml:space="preserve" x="336.0542" y="927.6699" stroke="none"> (solout.f)</text>
        </g>
      </g>
    </g>
    <g id="y.node.18">
      <g fill="rgb(248,236,201)" transform="matrix(0.9806,0,0,0.9806,9.8058,11.767)" stroke="rgb(248,236,201)">
        <rect width="95" x="620.3042" height="115.9375" y="894.5312" stroke="none"/>
      </g>
      <g id="bla">
        <g fill="rgb(64,64,64)" transform="matrix(0.9806,0,0,0.9806,9.8058,11.767)" stroke="rgb(64,64,64)">
          <rect width="95" x="620.3042" height="4" y="894.5312" stroke="none"/>
        </g>
      </g>
      <g fill="white" transform="matrix(0.9806,0,0,0.9806,9.8058,11.767)" stroke="white">
        <rect width="1" x="620.3042" height="115.9375" y="894.5312" stroke="none"/>
        <rect width="93" x="621.3042" height="1" y="894.5312" stroke="none"/>
        <rect x="621.3042" y="1009.4688" fill="rgb(173,165,140)" width="94" height="1" stroke="none"/>
        <rect x="714.3042" y="894.5312" fill="rgb(173,165,140)" width="1" height="114.9375" stroke="none"/>
      </g>
    </g>
    <g id="y.node.19">
      <g fill="white" transform="matrix(0.9806,0,0,0.9806,9.8058,11.767)" stroke="white">
        <rect width="65" x="635" height="41" y="953" stroke="none"/>
        <rect x="635" y="953" fill="none" width="65" height="41" stroke="black"/>
      </g>
      <g id="bla">
        <g font-family="sans-serif" transform="matrix(0.9806,0,0,0.9806,9.8058,11.767)">
          <text xml:space="preserve" x="648.3041" y="971.6699" stroke="none">SOLIN </text>
          <text xml:space="preserve" x="642.3041" y="985.6387" stroke="none"> (solin.f)</text>
        </g>
      </g>
    </g>
    <g id="y.node.10">
      <g fill="rgb(248,236,201)" transform="matrix(0.9806,0,0,0.9806,9.8058,11.767)" stroke="rgb(248,236,201)">
        <rect width="225" x="54.5" height="463.75" y="332.8125" stroke="none"/>
      </g>
      <g id="bla">
        <g fill="rgb(64,64,64)" transform="matrix(0.9806,0,0,0.9806,9.8058,11.767)" stroke="rgb(64,64,64)">
          <rect width="225" x="54.5" height="4" y="332.8125" stroke="none"/>
        </g>
      </g>
      <g fill="white" transform="matrix(0.9806,0,0,0.9806,9.8058,11.767)" stroke="white">
        <rect width="1" x="54.5" height="463.75" y="332.8125" stroke="none"/>
        <rect width="223" x="55.5" height="1" y="332.8125" stroke="none"/>
        <rect x="55.5" y="795.5625" fill="rgb(173,165,140)" width="224" height="1" stroke="none"/>
        <rect x="278.5" y="332.8125" fill="rgb(173,165,140)" width="1" height="462.75" stroke="none"/>
      </g>
    </g>
    <g id="y.node.14">
      <g fill="rgb(248,236,201)" transform="matrix(0.9806,0,0,0.9806,9.8058,11.767)" stroke="rgb(248,236,201)">
        <rect width="150.25" x="80" height="191.875" y="433.75" stroke="none"/>
      </g>
      <g id="bla">
        <g fill="rgb(64,64,64)" transform="matrix(0.9806,0,0,0.9806,9.8058,11.767)" stroke="rgb(64,64,64)">
          <rect width="150.25" x="80" height="4" y="433.75" stroke="none"/>
        </g>
      </g>
      <g fill="white" transform="matrix(0.9806,0,0,0.9806,9.8058,11.767)" stroke="white">
        <rect width="1" x="80" height="191.875" y="433.75" stroke="none"/>
        <rect width="148.25" x="81" height="1" y="433.75" stroke="none"/>
        <rect x="81" y="624.625" fill="rgb(173,165,140)" width="149.25" height="1" stroke="none"/>
        <rect x="229.25" y="433.75" fill="rgb(173,165,140)" width="1" height="190.875" stroke="none"/>
      </g>
    </g>
    <g id="y.node.16">
      <g fill="rgb(248,236,201)" transform="matrix(0.9806,0,0,0.9806,9.8058,11.767)" stroke="rgb(248,236,201)">
        <rect width="104" x="95" height="75.9375" y="534.6875" stroke="none"/>
      </g>
      <g id="bla">
        <g fill="rgb(64,64,64)" transform="matrix(0.9806,0,0,0.9806,9.8058,11.767)" stroke="rgb(64,64,64)">
          <rect width="104" x="95" height="4" y="534.6875" stroke="none"/>
        </g>
      </g>
      <g fill="white" transform="matrix(0.9806,0,0,0.9806,9.8058,11.767)" stroke="white">
        <rect width="1" x="95" height="75.9375" y="534.6875" stroke="none"/>
        <rect width="102" x="96" height="1" y="534.6875" stroke="none"/>
        <rect x="96" y="609.625" fill="rgb(173,165,140)" width="103" height="1" stroke="none"/>
        <rect x="198" y="534.6875" fill="rgb(173,165,140)" width="1" height="74.9375" stroke="none"/>
      </g>
    </g>
    <g id="y.node.17">
      <g fill="white" transform="matrix(0.9806,0,0,0.9806,9.8058,11.767)" stroke="white">
        <rect width="74" x="110" height="41" y="553" stroke="none"/>
        <rect x="110" y="553" fill="none" width="74" height="41" stroke="black"/>
      </g>
      <g id="bla">
        <g font-family="sans-serif" transform="matrix(0.9806,0,0,0.9806,9.8058,11.767)">
          <text xml:space="preserve" x="122" y="571.8262" stroke="none">YZKTEC </text>
          <text xml:space="preserve" x="117" y="585.7949" stroke="none"> (yzktec.f)</text>
        </g>
      </g>
    </g>
    <g id="y.node.15">
      <g fill="white" transform="matrix(0.9806,0,0,0.9806,9.8058,11.767)" stroke="white">
        <rect width="74" x="141" height="41" y="452" stroke="none"/>
        <rect x="141" y="452" fill="none" width="74" height="41" stroke="black"/>
      </g>
      <g id="bla">
        <g font-family="sans-serif" transform="matrix(0.9806,0,0,0.9806,9.8058,11.767)">
          <text xml:space="preserve" x="152.25" y="470.8887" stroke="none">YZKRDC </text>
          <text xml:space="preserve" x="148.25" y="484.8574" stroke="none"> (yzkrdc.f)</text>
        </g>
      </g>
    </g>
    <g id="y.node.12">
      <g fill="rgb(248,236,201)" transform="matrix(0.9806,0,0,0.9806,9.8058,11.767)" stroke="rgb(248,236,201)">
        <rect width="110" x="154.5" height="115.9375" y="665.625" stroke="none"/>
      </g>
      <g id="bla">
        <g fill="rgb(64,64,64)" transform="matrix(0.9806,0,0,0.9806,9.8058,11.767)" stroke="rgb(64,64,64)">
          <rect width="110" x="154.5" height="4" y="665.625" stroke="none"/>
        </g>
      </g>
      <g fill="white" transform="matrix(0.9806,0,0,0.9806,9.8058,11.767)" stroke="white">
        <rect width="1" x="154.5" height="115.9375" y="665.625" stroke="none"/>
        <rect width="108" x="155.5" height="1" y="665.625" stroke="none"/>
        <rect x="155.5" y="780.5625" fill="rgb(173,165,140)" width="109" height="1" stroke="none"/>
        <rect x="263.5" y="665.625" fill="rgb(173,165,140)" width="1" height="114.9375" stroke="none"/>
      </g>
    </g>
    <g id="y.node.13">
      <g fill="white" transform="matrix(0.9806,0,0,0.9806,9.8058,11.767)" stroke="white">
        <rect width="80" x="169" height="41" y="724" stroke="none"/>
        <rect x="169" y="724" fill="none" width="80" height="41" stroke="black"/>
      </g>
      <g id="bla">
        <g font-family="sans-serif" transform="matrix(0.9806,0,0,0.9806,9.8058,11.767)">
          <text xml:space="preserve" x="183" y="742.7637" stroke="none">APRDEC </text>
          <text xml:space="preserve" x="176.5" y="756.7324" stroke="none"> (aprdec.f)</text>
        </g>
      </g>
    </g>
    <g id="y.node.11">
      <g fill="white" transform="matrix(0.9806,0,0,0.9806,9.8058,11.767)" stroke="white">
        <rect width="71" x="180" height="41" y="351" stroke="none"/>
        <rect x="180" y="351" fill="none" width="71" height="41" stroke="black"/>
      </g>
      <g id="bla">
        <g font-family="sans-serif" transform="matrix(0.9806,0,0,0.9806,9.8058,11.767)">
          <text xml:space="preserve" x="194.7969" y="369.9512" stroke="none">POTEX </text>
          <text xml:space="preserve" x="187.7969" y="383.9199" stroke="none"> (potex.f)</text>
        </g>
      </g>
    </g>
    <g id="y.node.8">
      <g fill="rgb(248,236,201)" transform="matrix(0.9806,0,0,0.9806,9.8058,11.767)" stroke="rgb(248,236,201)">
        <rect width="112" x="872" height="75.9375" y="526.7188" stroke="none"/>
      </g>
      <g id="bla">
        <g fill="rgb(64,64,64)" transform="matrix(0.9806,0,0,0.9806,9.8058,11.767)" stroke="rgb(64,64,64)">
          <rect width="112" x="872" height="4" y="526.7188" stroke="none"/>
        </g>
      </g>
      <g fill="white" transform="matrix(0.9806,0,0,0.9806,9.8058,11.767)" stroke="white">
        <rect width="1" x="872" height="75.9375" y="526.7188" stroke="none"/>
        <rect width="110" x="873" height="1" y="526.7188" stroke="none"/>
        <rect x="873" y="601.6562" fill="rgb(173,165,140)" width="111" height="1" stroke="none"/>
        <rect x="983" y="526.7188" fill="rgb(173,165,140)" width="1" height="74.9375" stroke="none"/>
      </g>
    </g>
    <g id="y.node.9">
      <g fill="white" transform="matrix(0.9806,0,0,0.9806,9.8058,11.767)" stroke="white">
        <rect width="82" x="887" height="41" y="545" stroke="none"/>
        <rect x="887" y="545" fill="none" width="82" height="41" stroke="black"/>
      </g>
      <g id="bla">
        <g font-family="sans-serif" transform="matrix(0.9806,0,0,0.9806,9.8058,11.767)">
          <text xml:space="preserve" x="901" y="563.8574" stroke="none">MUATCC </text>
          <text xml:space="preserve" x="894" y="577.8262" stroke="none"> (muatcc.f)</text>
        </g>
      </g>
    </g>
    <g id="y.node.6">
      <g fill="rgb(248,236,201)" transform="matrix(0.9806,0,0,0.9806,9.8058,11.767)" stroke="rgb(248,236,201)">
        <rect width="111" x="741" height="75.9375" y="526.7188" stroke="none"/>
      </g>
      <g id="bla">
        <g fill="rgb(64,64,64)" transform="matrix(0.9806,0,0,0.9806,9.8058,11.767)" stroke="rgb(64,64,64)">
          <rect width="111" x="741" height="4" y="526.7188" stroke="none"/>
        </g>
      </g>
      <g fill="white" transform="matrix(0.9806,0,0,0.9806,9.8058,11.767)" stroke="white">
        <rect width="1" x="741" height="75.9375" y="526.7188" stroke="none"/>
        <rect width="109" x="742" height="1" y="526.7188" stroke="none"/>
        <rect x="742" y="601.6562" fill="rgb(173,165,140)" width="110" height="1" stroke="none"/>
        <rect x="851" y="526.7188" fill="rgb(173,165,140)" width="1" height="74.9375" stroke="none"/>
      </g>
    </g>
    <g id="y.node.7">
      <g fill="white" transform="matrix(0.9806,0,0,0.9806,9.8058,11.767)" stroke="white">
        <rect width="81" x="756" height="41" y="545" stroke="none"/>
        <rect x="756" y="545" fill="none" width="81" height="41" stroke="black"/>
      </g>
      <g id="bla">
        <g font-family="sans-serif" transform="matrix(0.9806,0,0,0.9806,9.8058,11.767)">
          <text xml:space="preserve" x="771" y="563.8574" stroke="none">INMUAC </text>
          <text xml:space="preserve" x="763" y="577.8262" stroke="none"> (inmuac.f)</text>
        </g>
      </g>
    </g>
    <g id="y.node.4">
      <g fill="rgb(248,236,201)" transform="matrix(0.9806,0,0,0.9806,9.8058,11.767)" stroke="rgb(248,236,201)">
        <rect width="105" x="616.075" height="115.9375" y="1108.4375" stroke="none"/>
      </g>
      <g id="bla">
        <g fill="rgb(64,64,64)" transform="matrix(0.9806,0,0,0.9806,9.8058,11.767)" stroke="rgb(64,64,64)">
          <rect width="105" x="616.075" height="4" y="1108.4375" stroke="none"/>
        </g>
      </g>
      <g fill="white" transform="matrix(0.9806,0,0,0.9806,9.8058,11.767)" stroke="white">
        <rect width="1" x="616.075" height="115.9375" y="1108.4375" stroke="none"/>
        <rect width="103" x="617.075" height="1" y="1108.4375" stroke="none"/>
        <rect x="617.075" y="1223.375" fill="rgb(173,165,140)" width="104" height="1" stroke="none"/>
        <rect x="720.075" y="1108.4375" fill="rgb(173,165,140)" width="1" height="114.9375" stroke="none"/>
      </g>
    </g>
    <g id="y.node.5">
      <g fill="white" transform="matrix(0.9806,0,0,0.9806,9.8058,11.767)" stroke="white">
        <rect width="75" x="631" height="41" y="1167" stroke="none"/>
        <rect x="631" y="1167" fill="none" width="75" height="41" stroke="black"/>
      </g>
      <g id="bla">
        <g font-family="sans-serif" transform="matrix(0.9806,0,0,0.9806,9.8058,11.767)">
          <text xml:space="preserve" x="648.575" y="1185.5762" stroke="none">FLATV </text>
          <text xml:space="preserve" x="638.075" y="1199.5449" stroke="none"> (dfovrg.f)</text>
        </g>
      </g>
    </g>
    <g id="y.node.2">
      <g fill="rgb(248,236,201)" transform="matrix(0.9806,0,0,0.9806,9.8058,11.767)" stroke="rgb(248,236,201)">
        <rect width="85" x="635" height="75.9375" y="526.7188" stroke="none"/>
      </g>
      <g id="bla">
        <g fill="rgb(64,64,64)" transform="matrix(0.9806,0,0,0.9806,9.8058,11.767)" stroke="rgb(64,64,64)">
          <rect width="85" x="635" height="4" y="526.7188" stroke="none"/>
        </g>
      </g>
      <g fill="white" transform="matrix(0.9806,0,0,0.9806,9.8058,11.767)" stroke="white">
        <rect width="1" x="635" height="75.9375" y="526.7188" stroke="none"/>
        <rect width="83" x="636" height="1" y="526.7188" stroke="none"/>
        <rect x="636" y="601.6562" fill="rgb(173,165,140)" width="84" height="1" stroke="none"/>
        <rect x="719" y="526.7188" fill="rgb(173,165,140)" width="1" height="74.9375" stroke="none"/>
      </g>
    </g>
    <g id="y.node.3">
      <g fill="white" transform="matrix(0.9806,0,0,0.9806,9.8058,11.767)" stroke="white">
        <rect width="55" x="650" height="41" y="545" stroke="none"/>
        <rect x="650" y="545" fill="none" width="55" height="41" stroke="black"/>
      </g>
      <g id="bla">
        <g font-family="sans-serif" transform="matrix(0.9806,0,0,0.9806,9.8058,11.767)">
          <text xml:space="preserve" x="662.5" y="563.8574" stroke="none">DIFF </text>
          <text xml:space="preserve" x="657" y="577.8262" stroke="none"> (diff.f)</text>
        </g>
      </g>
    </g>
    <g id="y.node.1">
      <g fill="white" transform="matrix(0.9806,0,0,0.9806,9.8058,11.767)" stroke="white">
        <rect width="75" x="665" height="41" y="250" stroke="none"/>
        <rect x="665" y="250" fill="none" width="75" height="41" stroke="black"/>
      </g>
      <g id="bla">
        <g font-family="sans-serif" transform="matrix(0.9806,0,0,0.9806,9.8058,11.767)">
          <text xml:space="preserve" x="676.2292" y="269.0137" stroke="none">DFOVRG </text>
          <text xml:space="preserve" x="672.7292" y="282.9824" stroke="none"> (dfovrg.f)</text>
        </g>
      </g>
    </g>
    <g id="y.node.32">
      <g fill="rgb(248,236,201)" transform="matrix(0.9806,0,0,0.9806,9.8058,11.767)" stroke="rgb(248,236,201)">
        <rect width="139" x="0" height="191.875" y="0" stroke="none"/>
      </g>
      <g id="bla">
        <g fill="rgb(64,64,64)" transform="matrix(0.9806,0,0,0.9806,9.8058,11.767)" stroke="rgb(64,64,64)">
          <rect width="139" x="0" height="4" y="0" stroke="none"/>
        </g>
      </g>
      <g fill="white" transform="matrix(0.9806,0,0,0.9806,9.8058,11.767)" stroke="white">
        <rect width="1" x="0" height="191.875" y="0" stroke="none"/>
        <rect width="137" x="1" height="1" y="0" stroke="none"/>
        <rect x="1" y="190.875" fill="rgb(173,165,140)" width="138" height="1" stroke="none"/>
        <rect x="138" y="0" fill="rgb(173,165,140)" width="1" height="190.875" stroke="none"/>
      </g>
    </g>
    <g id="y.node.34">
      <g fill="rgb(248,236,201)" transform="matrix(0.9806,0,0,0.9806,9.8058,11.767)" stroke="rgb(248,236,201)">
        <rect width="109" x="15" height="75.9375" y="100.9375" stroke="none"/>
      </g>
      <g id="bla">
        <g fill="rgb(64,64,64)" transform="matrix(0.9806,0,0,0.9806,9.8058,11.767)" stroke="rgb(64,64,64)">
          <rect width="109" x="15" height="4" y="100.9375" stroke="none"/>
        </g>
      </g>
      <g fill="white" transform="matrix(0.9806,0,0,0.9806,9.8058,11.767)" stroke="white">
        <rect width="1" x="15" height="75.9375" y="100.9375" stroke="none"/>
        <rect width="107" x="16" height="1" y="100.9375" stroke="none"/>
        <rect x="16" y="175.875" fill="rgb(173,165,140)" width="108" height="1" stroke="none"/>
        <rect x="123" y="100.9375" fill="rgb(173,165,140)" width="1" height="74.9375" stroke="none"/>
      </g>
    </g>
    <g id="y.node.35">
      <g fill="white" transform="matrix(0.9806,0,0,0.9806,9.8058,11.767)" stroke="white">
        <rect width="79" x="30" height="41" y="119" stroke="none"/>
        <rect x="30" y="119" fill="none" width="79" height="41" stroke="black"/>
      </g>
      <g id="bla">
        <g font-family="sans-serif" transform="matrix(0.9806,0,0,0.9806,9.8058,11.767)">
          <text xml:space="preserve" x="42" y="138.0762" stroke="none">DSORDC </text>
          <text xml:space="preserve" x="37" y="152.0449" stroke="none"> (dsordc.f)</text>
        </g>
      </g>
    </g>
    <g id="y.node.33">
      <g fill="white" transform="matrix(0.9806,0,0,0.9806,9.8058,11.767)" stroke="white">
        <rect width="77" x="31" height="41" y="19" stroke="none"/>
        <rect x="31" y="19" fill="none" width="77" height="41" stroke="black"/>
      </g>
      <g id="bla">
        <g font-family="sans-serif" transform="matrix(0.9806,0,0,0.9806,9.8058,11.767)">
          <text xml:space="preserve" x="43" y="37.1387" stroke="none">ORTDAC </text>
          <text xml:space="preserve" x="38" y="51.1074" stroke="none"> (ortdac.f)</text>
        </g>
      </g>
    </g>
    <g id="y.edge.0">
      <g stroke-miterlimit="1.45" transform="matrix(0.9806,0,0,0.9806,9.8058,11.767)" stroke-linecap="butt">
        <path fill="none" d="M698.5211 292.8516 L677.5 332.8125 L677.5 537.6927"/>
        <path d="M677.5 545.6927 L682.5 533.6927 L677.5 536.6927 L672.5 533.6927 Z" stroke="none"/>
      </g>
    </g>
    <g id="y.edge.1">
      <g stroke-miterlimit="1.45" transform="matrix(0.9806,0,0,0.9806,9.8058,11.767)" stroke-linecap="butt">
        <path fill="none" d="M736.0732 292.8174 L994.5 332.8125 L994.5 1068.4375 L678.575 1108.4375 L678.575 1127.4375 L690.7513 1159.9078"/>
        <path d="M693.5603 1167.3984 L694.0285 1154.4069 L690.4002 1158.9714 L684.6652 1157.9181 Z" stroke="none"/>
      </g>
    </g>
    <g id="y.edge.2">
      <g stroke-miterlimit="1.45" transform="matrix(0.9806,0,0,0.9806,9.8058,11.767)" stroke-linecap="butt">
        <path fill="none" d="M717.3303 292.832 L796.5 332.8125 L796.5 537.6927"/>
        <path d="M796.5 545.6927 L801.5 533.6927 L796.5 536.6927 L791.5 533.6927 Z" stroke="none"/>
      </g>
    </g>
    <g id="y.edge.3">
      <g stroke-miterlimit="1.45" transform="matrix(0.9806,0,0,0.9806,9.8058,11.767)" stroke-linecap="butt">
        <path fill="none" d="M726.6912 292.8174 L928 332.8125 L928 537.6927"/>
        <path d="M928 545.6927 L933 533.6927 L928 536.6927 L923 533.6927 Z" stroke="none"/>
      </g>
    </g>
    <g id="y.edge.4">
      <g stroke-miterlimit="1.45" transform="matrix(0.9806,0,0,0.9806,9.8058,11.767)" stroke-linecap="butt">
        <path fill="none" d="M670.389 292.8149 L216.2969 332.8125 L216.2969 343.7754"/>
        <path d="M216.2969 351.7754 L221.2969 339.7754 L216.2969 342.7754 L211.2969 339.7754 Z" stroke="none"/>
      </g>
    </g>
    <g id="y.edge.5">
      <g stroke-miterlimit="1.45" transform="matrix(0.9806,0,0,0.9806,9.8058,11.767)" stroke-linecap="butt">
        <path fill="none" d="M707.9387 292.8516 L730.5 332.8125 L730.5 796.5625 L672.8041 836.5625 L672.8041 913.5312 L681.8772 945.791"/>
        <path d="M684.0432 953.4922 L685.6075 940.5867 L681.6064 944.8283 L675.981 943.2941 Z" stroke="none"/>
      </g>
    </g>
    <g id="y.edge.6">
      <g stroke-miterlimit="1.45" transform="matrix(0.9806,0,0,0.9806,9.8058,11.767)" stroke-linecap="butt">
        <path fill="none" d="M679.7441 292.8174 L290 332.8125 L290 796.5625 L361.5542 836.5625 L361.5542 855.5625 L350.4182 887.9579"/>
        <path d="M347.8176 895.5234 L356.447 885.8006 L350.7433 887.0123 L346.9901 882.5498 Z" stroke="none"/>
      </g>
    </g>
    <g id="y.edge.7">
      <g stroke-miterlimit="1.45" transform="matrix(0.9806,0,0,0.9806,9.8058,11.767)" stroke-linecap="butt">
        <path fill="none" d="M689.1409 292.8174 L478.5 332.8125 L478.5 421.7339"/>
        <path d="M478.5 429.7339 L483.5 417.7339 L478.5 420.7339 L473.5 417.7339 Z" stroke="none"/>
      </g>
    </g>
    <g id="y.edge.8">
      <g stroke-miterlimit="1.45" transform="matrix(0.9806,0,0,0.9806,9.8058,11.767)" stroke-linecap="butt">
        <path fill="none" d="M234.0534 393.7891 L240.75 433.75 L240.75 625.625 L219.5 665.625 L219.5 684.625 L233.0735 717.2013"/>
        <path d="M236.1504 724.5859 L236.1504 711.5859 L232.6888 716.2783 L226.9196 715.4321 Z" stroke="none"/>
      </g>
    </g>
    <g id="y.edge.9">
      <g stroke-miterlimit="1.45" transform="matrix(0.9806,0,0,0.9806,9.8058,11.767)" stroke-linecap="butt">
        <path fill="none" d="M198.5271 393.7891 L178.25 433.75 L178.25 444.7129"/>
        <path d="M178.25 452.7129 L183.25 440.7129 L178.25 443.7129 L173.25 440.7129 Z" stroke="none"/>
      </g>
    </g>
    <g id="y.edge.10">
      <g stroke-miterlimit="1.45" transform="matrix(0.9806,0,0,0.9806,9.8058,11.767)" stroke-linecap="butt">
        <path fill="none" d="M196.7625 494.7266 L209.5 534.6875 L209.5 716.5786"/>
        <path d="M209.5 724.5786 L214.5 712.5786 L209.5 715.5786 L204.5 712.5786 Z" stroke="none"/>
      </g>
    </g>
    <g id="y.edge.11">
      <g stroke-miterlimit="1.45" transform="matrix(0.9806,0,0,0.9806,9.8058,11.767)" stroke-linecap="butt">
        <path fill="none" d="M159.7375 494.7266 L147 534.6875 L147 545.6504"/>
        <path d="M147 553.6504 L152 541.6504 L147 544.6504 L142 541.6504 Z" stroke="none"/>
      </g>
    </g>
    <g id="y.edge.12">
      <g stroke-miterlimit="1.45" transform="matrix(0.9806,0,0,0.9806,9.8058,11.767)" stroke-linecap="butt">
        <path fill="none" d="M667.8044 995.501 L668.575 1127.4375 L668.575 1159.3984"/>
        <path d="M668.575 1167.3984 L673.575 1155.3984 L668.575 1158.3984 L663.575 1155.3984 Z" stroke="none"/>
      </g>
    </g>
    <g id="y.edge.13">
      <g stroke-miterlimit="1.45" transform="matrix(0.9806,0,0,0.9806,9.8058,11.767)" stroke-linecap="butt">
        <path fill="none" d="M385.3161 937.5391 L397.5542 977.5 L397.5542 1068.4375 L658.575 1108.4375 L658.575 1127.4375 L646.3986 1159.9078"/>
        <path d="M643.5896 1167.3984 L652.4847 1157.9181 L646.7497 1158.9714 L643.1215 1154.4069 Z" stroke="none"/>
      </g>
    </g>
    <g id="y.edge.14">
      <g stroke-miterlimit="1.45" transform="matrix(0.9806,0,0,0.9806,9.8058,11.767)" stroke-linecap="butt">
        <path fill="none" d="M347.7922 937.5391 L335.5542 977.5 L335.5542 988.4629"/>
        <path d="M335.5542 996.4629 L340.5542 984.4629 L335.5542 987.4629 L330.5542 984.4629 Z" stroke="none"/>
      </g>
    </g>
    <g id="y.edge.15">
      <g stroke-miterlimit="1.45" transform="matrix(0.9806,0,0,0.9806,9.8058,11.767)" stroke-linecap="butt">
        <path fill="none" d="M451.4609 471.7383 L371.5 511.7188 L371.5 580.6499"/>
        <path d="M371.5 588.6499 L376.5 576.6499 L371.5 579.6499 L366.5 576.6499 Z" stroke="none"/>
      </g>
    </g>
    <g id="y.edge.16">
      <g stroke-miterlimit="1.45" transform="matrix(0.9806,0,0,0.9806,9.8058,11.767)" stroke-linecap="butt">
        <path fill="none" d="M487.5308 471.7578 L519 511.7188 L519 522.6816"/>
        <path d="M519 530.6816 L524 518.6816 L519 521.6816 L514 518.6816 Z" stroke="none"/>
      </g>
    </g>
    <g id="y.edge.17">
      <g stroke-miterlimit="1.45" transform="matrix(0.9806,0,0,0.9806,9.8058,11.767)" stroke-linecap="butt">
        <path fill="none" d="M505.5231 471.7285 L600 511.7188 L600 796.5625 L662.8041 836.5625 L662.8041 913.5312 L653.7311 945.791"/>
        <path d="M651.5652 953.4922 L659.6274 943.2941 L654.0019 944.8283 L650.0009 940.5867 Z" stroke="none"/>
      </g>
    </g>
    <g id="y.edge.18">
      <g stroke-miterlimit="1.45" transform="matrix(0.9806,0,0,0.9806,9.8058,11.767)" stroke-linecap="butt">
        <path fill="none" d="M469.4692 471.7578 L438 511.7188 L438 796.5625 L371.5542 836.5625 L371.5542 855.5625 L382.6901 887.9579"/>
        <path d="M385.2907 895.5234 L386.1182 882.5498 L382.365 887.0123 L376.6613 885.8006 Z" stroke="none"/>
      </g>
    </g>
    <g id="y.edge.19">
      <g stroke-miterlimit="1.45" transform="matrix(0.9806,0,0,0.9806,9.8058,11.767)" stroke-linecap="butt">
        <path fill="none" d="M519 572.6851 L519 623.6274"/>
        <path d="M519 631.6274 L524 619.6274 L519 622.6274 L514 619.6274 Z" stroke="none"/>
      </g>
    </g>
    <g id="y.edge.20">
      <g stroke-miterlimit="1.45" transform="matrix(0.9806,0,0,0.9806,9.8058,11.767)" stroke-linecap="butt">
        <path fill="none" d="M69.5 60.9663 L69.5 111.9087"/>
        <path d="M69.5 119.9087 L74.5 107.9087 L69.5 110.9087 L64.5 107.9087 Z" stroke="none"/>
      </g>
    </g>
    <g id="y.edge.21">
      <g stroke-miterlimit="1.45" transform="matrix(0.9806,0,0,0.9806,9.8058,11.767)" stroke-linecap="butt">
        <path fill="none" d="M69.5 161.9033 L69.5 625.625 L199.5 665.625 L199.5 684.625 L185.9265 717.2013"/>
        <path d="M182.8496 724.5859 L192.0804 715.4321 L186.3112 716.2783 L182.8496 711.5859 Z" stroke="none"/>
      </g>
    </g>
  </g>
</svg>
