<?xml version="1.0" encoding="UTF-8"?><svg xmlns="http://www.w3.org/2000/svg" xmlns:xlink="http://www.w3.org/1999/xlink" fill-opacity="1" color-rendering="auto" color-interpolation="auto" stroke="black" text-rendering="auto" stroke-linecap="square" width="1589" stroke-miterlimit="10" stroke-opacity="1" shape-rendering="auto" fill="black" stroke-dasharray="none" font-weight="normal" stroke-width="1" height="424" font-family="'Dialog'" font-style="normal" stroke-linejoin="miter" font-size="12" stroke-dashoffset="0" image-rendering="auto">
  <!--Generated by ySVG-->
  <defs id="genericDefs"/>
  <g>
    <defs id="defs1">
      <clipPath clipPathUnits="userSpaceOnUse" id="clipPath1">
        <path d="M0 0 L1589 0 L1589 424 L0 424 L0 0 Z"/>
      </clipPath>
    </defs>
    <g id="y.node.0">
      <g fill="rgb(248,236,201)" transform="matrix(0.955,0,0,0.955,35.3333,9.5495)" stroke="rgb(248,236,201)">
        <rect width="1589" x="0" height="423.75" y="0" stroke="none"/>
      </g>
      <g id="bla">
        <g fill="rgb(64,64,64)" transform="matrix(0.955,0,0,0.955,35.3333,9.5495)" stroke="rgb(64,64,64)">
          <rect width="1589" x="0" height="4" y="0" stroke="none"/>
        </g>
      </g>
      <g fill="white" transform="matrix(0.955,0,0,0.955,35.3333,9.5495)" stroke="white">
        <rect width="1" x="0" height="423.75" y="0" stroke="none"/>
      </g>
      <g fill="white" transform="matrix(0.955,0,0,0.955,35.3333,9.5495)" stroke="white">
        <rect width="1587" x="1" height="1" y="0" stroke="none"/>
        <rect x="1" y="422.75" fill="rgb(173,165,140)" width="1588" height="1" stroke="none"/>
        <rect x="1588" y="0" fill="rgb(173,165,140)" width="1" height="422.75" stroke="none"/>
      </g>
    </g>
    <g id="y.node.2">
      <g fill="rgb(248,236,201)" transform="matrix(0.955,0,0,0.955,35.3333,9.5495)" stroke="rgb(248,236,201)">
        <rect width="1432" x="15" height="307.8125" y="100.9375" stroke="none"/>
      </g>
      <g id="bla">
        <g fill="rgb(64,64,64)" transform="matrix(0.955,0,0,0.955,35.3333,9.5495)" stroke="rgb(64,64,64)">
          <rect width="1432" x="15" height="4" y="100.9375" stroke="none"/>
        </g>
      </g>
      <g fill="white" transform="matrix(0.955,0,0,0.955,35.3333,9.5495)" stroke="white">
        <rect width="1" x="15" height="307.8125" y="100.9375" stroke="none"/>
        <rect width="1430" x="16" height="1" y="100.9375" stroke="none"/>
        <rect x="16" y="407.75" fill="rgb(173,165,140)" width="1431" height="1" stroke="none"/>
        <rect x="1446" y="100.9375" fill="rgb(173,165,140)" width="1" height="306.8125" stroke="none"/>
      </g>
    </g>
    <g id="y.node.13">
      <g fill="rgb(248,236,201)" transform="matrix(0.955,0,0,0.955,35.3333,9.5495)" stroke="rgb(248,236,201)">
        <rect width="100" x="1332" height="75.9375" y="259.8438" stroke="none"/>
      </g>
      <g id="bla">
        <g fill="rgb(64,64,64)" transform="matrix(0.955,0,0,0.955,35.3333,9.5495)" stroke="rgb(64,64,64)">
          <rect width="100" x="1332" height="4" y="259.8438" stroke="none"/>
        </g>
      </g>
      <g fill="white" transform="matrix(0.955,0,0,0.955,35.3333,9.5495)" stroke="white">
        <rect width="1" x="1332" height="75.9375" y="259.8438" stroke="none"/>
        <rect width="98" x="1333" height="1" y="259.8438" stroke="none"/>
        <rect x="1333" y="334.7812" fill="rgb(173,165,140)" width="99" height="1" stroke="none"/>
        <rect x="1431" y="259.8438" fill="rgb(173,165,140)" width="1" height="74.9375" stroke="none"/>
      </g>
    </g>
    <g id="y.node.33">
      <g fill="white" transform="matrix(0.955,0,0,0.955,35.3333,9.5495)" stroke="white">
        <rect width="70" x="1347" height="41" y="278" stroke="none"/>
        <rect x="1347" y="278" fill="none" width="70" height="41" stroke="black"/>
      </g>
      <g id="bla">
        <g font-family="sans-serif" transform="matrix(0.955,0,0,0.955,35.3333,9.5495)">
          <text xml:space="preserve" x="1359" y="296.9824" stroke="none">FMTRXI </text>
          <text xml:space="preserve" x="1354" y="310.9512" stroke="none"> (fmtrxi.f)</text>
        </g>
      </g>
    </g>
    <g id="y.node.12">
      <g fill="rgb(248,236,201)" transform="matrix(0.955,0,0,0.955,35.3333,9.5495)" stroke="rgb(248,236,201)">
        <rect width="98" x="1214" height="75.9375" y="259.8438" stroke="none"/>
      </g>
      <g id="bla">
        <g fill="rgb(64,64,64)" transform="matrix(0.955,0,0,0.955,35.3333,9.5495)" stroke="rgb(64,64,64)">
          <rect width="98" x="1214" height="4" y="259.8438" stroke="none"/>
        </g>
      </g>
      <g fill="white" transform="matrix(0.955,0,0,0.955,35.3333,9.5495)" stroke="white">
        <rect width="1" x="1214" height="75.9375" y="259.8438" stroke="none"/>
        <rect width="96" x="1215" height="1" y="259.8438" stroke="none"/>
        <rect x="1215" y="334.7812" fill="rgb(173,165,140)" width="97" height="1" stroke="none"/>
        <rect x="1311" y="259.8438" fill="rgb(173,165,140)" width="1" height="74.9375" stroke="none"/>
      </g>
    </g>
    <g id="y.node.32">
      <g fill="white" transform="matrix(0.955,0,0,0.955,35.3333,9.5495)" stroke="white">
        <rect width="68" x="1229" height="41" y="278" stroke="none"/>
        <rect x="1229" y="278" fill="none" width="68" height="41" stroke="black"/>
      </g>
      <g id="bla">
        <g font-family="sans-serif" transform="matrix(0.955,0,0,0.955,35.3333,9.5495)">
          <text xml:space="preserve" x="1243.5" y="296.9824" stroke="none">MMTR </text>
          <text xml:space="preserve" x="1236" y="310.9512" stroke="none"> (mmtr.f)</text>
        </g>
      </g>
    </g>
    <g id="y.node.11">
      <g fill="rgb(248,236,201)" transform="matrix(0.955,0,0,0.955,35.3333,9.5495)" stroke="rgb(248,236,201)">
        <rect width="107" x="1087" height="75.9375" y="259.8438" stroke="none"/>
      </g>
      <g id="bla">
        <g fill="rgb(64,64,64)" transform="matrix(0.955,0,0,0.955,35.3333,9.5495)" stroke="rgb(64,64,64)">
          <rect width="107" x="1087" height="4" y="259.8438" stroke="none"/>
        </g>
      </g>
      <g fill="white" transform="matrix(0.955,0,0,0.955,35.3333,9.5495)" stroke="white">
        <rect width="1" x="1087" height="75.9375" y="259.8438" stroke="none"/>
        <rect width="105" x="1088" height="1" y="259.8438" stroke="none"/>
        <rect x="1088" y="334.7812" fill="rgb(173,165,140)" width="106" height="1" stroke="none"/>
        <rect x="1193" y="259.8438" fill="rgb(173,165,140)" width="1" height="74.9375" stroke="none"/>
      </g>
    </g>
    <g id="y.node.31">
      <g fill="white" transform="matrix(0.955,0,0,0.955,35.3333,9.5495)" stroke="white">
        <rect width="77" x="1102" height="41" y="278" stroke="none"/>
        <rect x="1102" y="278" fill="none" width="77" height="41" stroke="black"/>
      </g>
      <g id="bla">
        <g font-family="sans-serif" transform="matrix(0.955,0,0,0.955,35.3333,9.5495)">
          <text xml:space="preserve" x="1116" y="296.9824" stroke="none">MMTRXI </text>
          <text xml:space="preserve" x="1109" y="310.9512" stroke="none"> (mmtrxi.f)</text>
        </g>
      </g>
    </g>
    <g id="y.node.10">
      <g fill="rgb(248,236,201)" transform="matrix(0.955,0,0,0.955,35.3333,9.5495)" stroke="rgb(248,236,201)">
        <rect width="266" x="801" height="191.875" y="201.875" stroke="none"/>
      </g>
      <g id="bla">
        <g fill="rgb(64,64,64)" transform="matrix(0.955,0,0,0.955,35.3333,9.5495)" stroke="rgb(64,64,64)">
          <rect width="266" x="801" height="4" y="201.875" stroke="none"/>
        </g>
      </g>
      <g fill="white" transform="matrix(0.955,0,0,0.955,35.3333,9.5495)" stroke="white">
        <rect width="1" x="801" height="191.875" y="201.875" stroke="none"/>
        <rect width="264" x="802" height="1" y="201.875" stroke="none"/>
        <rect x="802" y="392.75" fill="rgb(173,165,140)" width="265" height="1" stroke="none"/>
        <rect x="1066" y="201.875" fill="rgb(173,165,140)" width="1" height="190.875" stroke="none"/>
      </g>
    </g>
    <g id="y.node.26">
      <g fill="rgb(248,236,201)" transform="matrix(0.955,0,0,0.955,35.3333,9.5495)" stroke="rgb(248,236,201)">
        <rect width="108" x="816" height="75.9375" y="302.8125" stroke="none"/>
      </g>
      <g id="bla">
        <g fill="rgb(64,64,64)" transform="matrix(0.955,0,0,0.955,35.3333,9.5495)" stroke="rgb(64,64,64)">
          <rect width="108" x="816" height="4" y="302.8125" stroke="none"/>
        </g>
      </g>
      <g fill="white" transform="matrix(0.955,0,0,0.955,35.3333,9.5495)" stroke="white">
        <rect width="1" x="816" height="75.9375" y="302.8125" stroke="none"/>
        <rect width="106" x="817" height="1" y="302.8125" stroke="none"/>
        <rect x="817" y="377.75" fill="rgb(173,165,140)" width="107" height="1" stroke="none"/>
        <rect x="923" y="302.8125" fill="rgb(173,165,140)" width="1" height="74.9375" stroke="none"/>
      </g>
    </g>
    <g id="y.node.27">
      <g fill="white" transform="matrix(0.955,0,0,0.955,35.3333,9.5495)" stroke="white">
        <rect width="78" x="831" height="41" y="321" stroke="none"/>
        <rect x="831" y="321" fill="none" width="78" height="41" stroke="black"/>
      </g>
      <g id="bla">
        <g font-family="sans-serif" transform="matrix(0.955,0,0,0.955,35.3333,9.5495)">
          <text xml:space="preserve" x="854.5" y="339.9512" stroke="none">TRIG </text>
          <text xml:space="preserve" x="838" y="353.9199" stroke="none"> (rdpath.f)</text>
        </g>
      </g>
    </g>
    <g id="y.node.28">
      <g fill="rgb(248,236,201)" transform="matrix(0.955,0,0,0.955,35.3333,9.5495)" stroke="rgb(248,236,201)">
        <rect width="108" x="944" height="75.9375" y="302.8125" stroke="none"/>
      </g>
      <g id="bla">
        <g fill="rgb(64,64,64)" transform="matrix(0.955,0,0,0.955,35.3333,9.5495)" stroke="rgb(64,64,64)">
          <rect width="108" x="944" height="4" y="302.8125" stroke="none"/>
        </g>
      </g>
      <g fill="white" transform="matrix(0.955,0,0,0.955,35.3333,9.5495)" stroke="white">
        <rect width="1" x="944" height="75.9375" y="302.8125" stroke="none"/>
        <rect width="106" x="945" height="1" y="302.8125" stroke="none"/>
        <rect x="945" y="377.75" fill="rgb(173,165,140)" width="107" height="1" stroke="none"/>
        <rect x="1051" y="302.8125" fill="rgb(173,165,140)" width="1" height="74.9375" stroke="none"/>
      </g>
    </g>
    <g id="y.node.29">
      <g fill="white" transform="matrix(0.955,0,0,0.955,35.3333,9.5495)" stroke="white">
        <rect width="78" x="959" height="41" y="321" stroke="none"/>
        <rect x="959" y="321" fill="none" width="78" height="41" stroke="black"/>
      </g>
      <g id="bla">
        <g font-family="sans-serif" transform="matrix(0.955,0,0,0.955,35.3333,9.5495)">
          <text xml:space="preserve" x="983.5" y="339.9512" stroke="none">ARG </text>
          <text xml:space="preserve" x="966" y="353.9199" stroke="none"> (rdpath.f)</text>
        </g>
      </g>
    </g>
    <g id="y.node.30">
      <g fill="white" transform="matrix(0.955,0,0,0.955,35.3333,9.5495)" stroke="white">
        <rect width="78" x="895" height="41" y="220" stroke="none"/>
        <rect x="895" y="220" fill="none" width="78" height="41" stroke="black"/>
      </g>
      <g id="bla">
        <g font-family="sans-serif" transform="matrix(0.955,0,0,0.955,35.3333,9.5495)">
          <text xml:space="preserve" x="907.5" y="239.0137" stroke="none">RDPATH </text>
          <text xml:space="preserve" x="902" y="252.9824" stroke="none"> (rdpath.f)</text>
        </g>
      </g>
    </g>
    <g id="y.node.9">
      <g fill="rgb(248,236,201)" transform="matrix(0.955,0,0,0.955,35.3333,9.5495)" stroke="rgb(248,236,201)">
        <rect width="95" x="686" height="75.9375" y="259.8438" stroke="none"/>
      </g>
      <g id="bla">
        <g fill="rgb(64,64,64)" transform="matrix(0.955,0,0,0.955,35.3333,9.5495)" stroke="rgb(64,64,64)">
          <rect width="95" x="686" height="4" y="259.8438" stroke="none"/>
        </g>
      </g>
      <g fill="white" transform="matrix(0.955,0,0,0.955,35.3333,9.5495)" stroke="white">
        <rect width="1" x="686" height="75.9375" y="259.8438" stroke="none"/>
        <rect width="93" x="687" height="1" y="259.8438" stroke="none"/>
        <rect x="687" y="334.7812" fill="rgb(173,165,140)" width="94" height="1" stroke="none"/>
        <rect x="780" y="259.8438" fill="rgb(173,165,140)" width="1" height="74.9375" stroke="none"/>
      </g>
    </g>
    <g id="y.node.25">
      <g fill="white" transform="matrix(0.955,0,0,0.955,35.3333,9.5495)" stroke="white">
        <rect width="65" x="701" height="41" y="278" stroke="none"/>
        <rect x="701" y="278" fill="none" width="65" height="41" stroke="black"/>
      </g>
      <g id="bla">
        <g font-family="sans-serif" transform="matrix(0.955,0,0,0.955,35.3333,9.5495)">
          <text xml:space="preserve" x="714" y="296.9824" stroke="none">ROT3I </text>
          <text xml:space="preserve" x="708" y="310.9512" stroke="none"> (rot3i.f)</text>
        </g>
      </g>
    </g>
    <g id="y.node.8">
      <g fill="rgb(248,236,201)" transform="matrix(0.955,0,0,0.955,35.3333,9.5495)" stroke="rgb(248,236,201)">
        <rect width="99" x="567" height="75.9375" y="259.8438" stroke="none"/>
      </g>
      <g id="bla">
        <g fill="rgb(64,64,64)" transform="matrix(0.955,0,0,0.955,35.3333,9.5495)" stroke="rgb(64,64,64)">
          <rect width="99" x="567" height="4" y="259.8438" stroke="none"/>
        </g>
      </g>
      <g fill="white" transform="matrix(0.955,0,0,0.955,35.3333,9.5495)" stroke="white">
        <rect width="1" x="567" height="75.9375" y="259.8438" stroke="none"/>
        <rect width="97" x="568" height="1" y="259.8438" stroke="none"/>
        <rect x="568" y="334.7812" fill="rgb(173,165,140)" width="98" height="1" stroke="none"/>
        <rect x="665" y="259.8438" fill="rgb(173,165,140)" width="1" height="74.9375" stroke="none"/>
      </g>
    </g>
    <g id="y.node.24">
      <g fill="white" transform="matrix(0.955,0,0,0.955,35.3333,9.5495)" stroke="white">
        <rect width="69" x="582" height="41" y="278" stroke="none"/>
        <rect x="582" y="278" fill="none" width="69" height="41" stroke="black"/>
      </g>
      <g id="bla">
        <g font-family="sans-serif" transform="matrix(0.955,0,0,0.955,35.3333,9.5495)">
          <text xml:space="preserve" x="594" y="296.9824" stroke="none">SCLMZ </text>
          <text xml:space="preserve" x="589" y="310.9512" stroke="none"> (sclmz.f)</text>
        </g>
      </g>
    </g>
    <g id="y.node.7">
      <g fill="rgb(248,236,201)" transform="matrix(0.955,0,0,0.955,35.3333,9.5495)" stroke="rgb(248,236,201)">
        <rect width="108" x="439" height="75.9375" y="259.8438" stroke="none"/>
      </g>
      <g id="bla">
        <g fill="rgb(64,64,64)" transform="matrix(0.955,0,0,0.955,35.3333,9.5495)" stroke="rgb(64,64,64)">
          <rect width="108" x="439" height="4" y="259.8438" stroke="none"/>
        </g>
      </g>
      <g fill="white" transform="matrix(0.955,0,0,0.955,35.3333,9.5495)" stroke="white">
        <rect width="1" x="439" height="75.9375" y="259.8438" stroke="none"/>
        <rect width="106" x="440" height="1" y="259.8438" stroke="none"/>
        <rect x="440" y="334.7812" fill="rgb(173,165,140)" width="107" height="1" stroke="none"/>
        <rect x="546" y="259.8438" fill="rgb(173,165,140)" width="1" height="74.9375" stroke="none"/>
      </g>
    </g>
    <g id="y.node.23">
      <g fill="white" transform="matrix(0.955,0,0,0.955,35.3333,9.5495)" stroke="white">
        <rect width="78" x="454" height="41" y="278" stroke="none"/>
        <rect x="454" y="278" fill="none" width="78" height="41" stroke="black"/>
      </g>
      <g id="bla">
        <g font-family="sans-serif" transform="matrix(0.955,0,0,0.955,35.3333,9.5495)">
          <text xml:space="preserve" x="467.5" y="296.9824" stroke="none">SETLAM </text>
          <text xml:space="preserve" x="461" y="310.9512" stroke="none"> (setlam.f)</text>
        </g>
      </g>
    </g>
    <g id="y.node.6">
      <g fill="rgb(248,236,201)" transform="matrix(0.955,0,0,0.955,35.3333,9.5495)" stroke="rgb(248,236,201)">
        <rect width="125" x="294" height="191.875" y="201.875" stroke="none"/>
      </g>
      <g id="bla">
        <g fill="rgb(64,64,64)" transform="matrix(0.955,0,0,0.955,35.3333,9.5495)" stroke="rgb(64,64,64)">
          <rect width="125" x="294" height="4" y="201.875" stroke="none"/>
        </g>
      </g>
      <g fill="white" transform="matrix(0.955,0,0,0.955,35.3333,9.5495)" stroke="white">
        <rect width="1" x="294" height="191.875" y="201.875" stroke="none"/>
        <rect width="123" x="295" height="1" y="201.875" stroke="none"/>
        <rect x="295" y="392.75" fill="rgb(173,165,140)" width="124" height="1" stroke="none"/>
        <rect x="418" y="201.875" fill="rgb(173,165,140)" width="1" height="190.875" stroke="none"/>
      </g>
    </g>
    <g id="y.node.20">
      <g fill="rgb(248,236,201)" transform="matrix(0.955,0,0,0.955,35.3333,9.5495)" stroke="rgb(248,236,201)">
        <rect width="95" x="309" height="75.9375" y="302.8125" stroke="none"/>
      </g>
      <g id="bla">
        <g fill="rgb(64,64,64)" transform="matrix(0.955,0,0,0.955,35.3333,9.5495)" stroke="rgb(64,64,64)">
          <rect width="95" x="309" height="4" y="302.8125" stroke="none"/>
        </g>
      </g>
      <g fill="white" transform="matrix(0.955,0,0,0.955,35.3333,9.5495)" stroke="white">
        <rect width="1" x="309" height="75.9375" y="302.8125" stroke="none"/>
        <rect width="93" x="310" height="1" y="302.8125" stroke="none"/>
        <rect x="310" y="377.75" fill="rgb(173,165,140)" width="94" height="1" stroke="none"/>
        <rect x="403" y="302.8125" fill="rgb(173,165,140)" width="1" height="74.9375" stroke="none"/>
      </g>
    </g>
    <g id="y.node.21">
      <g fill="white" transform="matrix(0.955,0,0,0.955,35.3333,9.5495)" stroke="white">
        <rect width="65" x="324" height="41" y="321" stroke="none"/>
        <rect x="324" y="321" fill="none" width="65" height="41" stroke="black"/>
      </g>
      <g id="bla">
        <g font-family="sans-serif" transform="matrix(0.955,0,0,0.955,35.3333,9.5495)">
          <text xml:space="preserve" x="332" y="339.9512" stroke="none">FACTST </text>
          <text xml:space="preserve" x="331" y="353.9199" stroke="none"> (snlm.f)</text>
        </g>
      </g>
    </g>
    <g id="y.node.22">
      <g fill="white" transform="matrix(0.955,0,0,0.955,35.3333,9.5495)" stroke="white">
        <rect width="65" x="324" height="41" y="220" stroke="none"/>
        <rect x="324" y="220" fill="none" width="65" height="41" stroke="black"/>
      </g>
      <g id="bla">
        <g font-family="sans-serif" transform="matrix(0.955,0,0,0.955,35.3333,9.5495)">
          <text xml:space="preserve" x="338" y="239.0137" stroke="none">SNLM </text>
          <text xml:space="preserve" x="331" y="252.9824" stroke="none"> (snlm.f)</text>
        </g>
      </g>
    </g>
    <g id="y.node.5">
      <g fill="rgb(248,236,201)" transform="matrix(0.955,0,0,0.955,35.3333,9.5495)" stroke="rgb(248,236,201)">
        <rect width="244" x="30" height="191.875" y="201.875" stroke="none"/>
      </g>
      <g id="bla">
        <g fill="rgb(64,64,64)" transform="matrix(0.955,0,0,0.955,35.3333,9.5495)" stroke="rgb(64,64,64)">
          <rect width="244" x="30" height="4" y="201.875" stroke="none"/>
        </g>
      </g>
      <g fill="white" transform="matrix(0.955,0,0,0.955,35.3333,9.5495)" stroke="white">
        <rect width="1" x="30" height="191.875" y="201.875" stroke="none"/>
        <rect width="242" x="31" height="1" y="201.875" stroke="none"/>
        <rect x="31" y="392.75" fill="rgb(173,165,140)" width="243" height="1" stroke="none"/>
        <rect x="273" y="201.875" fill="rgb(173,165,140)" width="1" height="190.875" stroke="none"/>
      </g>
    </g>
    <g id="y.node.15">
      <g fill="rgb(248,236,201)" transform="matrix(0.955,0,0,0.955,35.3333,9.5495)" stroke="rgb(248,236,201)">
        <rect width="97" x="45" height="75.9375" y="302.8125" stroke="none"/>
      </g>
      <g id="bla">
        <g fill="rgb(64,64,64)" transform="matrix(0.955,0,0,0.955,35.3333,9.5495)" stroke="rgb(64,64,64)">
          <rect width="97" x="45" height="4" y="302.8125" stroke="none"/>
        </g>
      </g>
      <g fill="white" transform="matrix(0.955,0,0,0.955,35.3333,9.5495)" stroke="white">
        <rect width="1" x="45" height="75.9375" y="302.8125" stroke="none"/>
        <rect width="95" x="46" height="1" y="302.8125" stroke="none"/>
        <rect x="46" y="377.75" fill="rgb(173,165,140)" width="96" height="1" stroke="none"/>
        <rect x="141" y="302.8125" fill="rgb(173,165,140)" width="1" height="74.9375" stroke="none"/>
      </g>
    </g>
    <g id="y.node.16">
      <g fill="white" transform="matrix(0.955,0,0,0.955,35.3333,9.5495)" stroke="white">
        <rect width="67" x="60" height="41" y="321" stroke="none"/>
        <rect x="60" y="321" fill="none" width="67" height="41" stroke="black"/>
      </g>
      <g id="bla">
        <g font-family="sans-serif" transform="matrix(0.955,0,0,0.955,35.3333,9.5495)">
          <text xml:space="preserve" x="72.5" y="339.9512" stroke="none">YSTAR </text>
          <text xml:space="preserve" x="67" y="353.9199" stroke="none"> (xstar.f)</text>
        </g>
      </g>
    </g>
    <g id="y.node.17">
      <g fill="rgb(248,236,201)" transform="matrix(0.955,0,0,0.955,35.3333,9.5495)" stroke="rgb(248,236,201)">
        <rect width="97" x="162" height="75.9375" y="302.8125" stroke="none"/>
      </g>
      <g id="bla">
        <g fill="rgb(64,64,64)" transform="matrix(0.955,0,0,0.955,35.3333,9.5495)" stroke="rgb(64,64,64)">
          <rect width="97" x="162" height="4" y="302.8125" stroke="none"/>
        </g>
      </g>
      <g fill="white" transform="matrix(0.955,0,0,0.955,35.3333,9.5495)" stroke="white">
        <rect width="1" x="162" height="75.9375" y="302.8125" stroke="none"/>
        <rect width="95" x="163" height="1" y="302.8125" stroke="none"/>
        <rect x="163" y="377.75" fill="rgb(173,165,140)" width="96" height="1" stroke="none"/>
        <rect x="258" y="302.8125" fill="rgb(173,165,140)" width="1" height="74.9375" stroke="none"/>
      </g>
    </g>
    <g id="y.node.18">
      <g fill="white" transform="matrix(0.955,0,0,0.955,35.3333,9.5495)" stroke="white">
        <rect width="67" x="177" height="41" y="321" stroke="none"/>
        <rect x="177" y="321" fill="none" width="67" height="41" stroke="black"/>
      </g>
      <g id="bla">
        <g font-family="sans-serif" transform="matrix(0.955,0,0,0.955,35.3333,9.5495)">
          <text xml:space="preserve" x="189" y="339.9512" stroke="none">XXCOS </text>
          <text xml:space="preserve" x="184" y="353.9199" stroke="none"> (xstar.f)</text>
        </g>
      </g>
    </g>
    <g id="y.node.19">
      <g fill="white" transform="matrix(0.955,0,0,0.955,35.3333,9.5495)" stroke="white">
        <rect width="67" x="118" height="41" y="220" stroke="none"/>
        <rect x="118" y="220" fill="none" width="67" height="41" stroke="black"/>
      </g>
      <g id="bla">
        <g font-family="sans-serif" transform="matrix(0.955,0,0,0.955,35.3333,9.5495)">
          <text xml:space="preserve" x="131" y="239.0137" stroke="none">XSTAR </text>
          <text xml:space="preserve" x="125.5" y="252.9824" stroke="none"> (xstar.f)</text>
        </g>
      </g>
    </g>
    <g id="y.node.14">
      <g fill="white" transform="matrix(0.955,0,0,0.955,35.3333,9.5495)" stroke="white">
        <rect width="80" x="693" height="41" y="119" stroke="none"/>
        <rect x="693" y="119" fill="none" width="80" height="41" stroke="black"/>
      </g>
      <g id="bla">
        <g font-family="sans-serif" transform="matrix(0.955,0,0,0.955,35.3333,9.5495)">
          <text xml:space="preserve" x="706.5" y="138.0762" stroke="none">GENFMT </text>
          <text xml:space="preserve" x="700.5" y="152.0449" stroke="none"> (genfmt.f)</text>
        </g>
      </g>
    </g>
    <g id="y.node.3">
      <g fill="rgb(248,236,201)" transform="matrix(0.955,0,0,0.955,35.3333,9.5495)" stroke="rgb(248,236,201)">
        <rect width="107" x="1467" height="75.9375" y="216.875" stroke="none"/>
      </g>
      <g id="bla">
        <g fill="rgb(64,64,64)" transform="matrix(0.955,0,0,0.955,35.3333,9.5495)" stroke="rgb(64,64,64)">
          <rect width="107" x="1467" height="4" y="216.875" stroke="none"/>
        </g>
      </g>
      <g fill="white" transform="matrix(0.955,0,0,0.955,35.3333,9.5495)" stroke="white">
        <rect width="1" x="1467" height="75.9375" y="216.875" stroke="none"/>
        <rect width="105" x="1468" height="1" y="216.875" stroke="none"/>
        <rect x="1468" y="291.8125" fill="rgb(173,165,140)" width="106" height="1" stroke="none"/>
        <rect x="1573" y="216.875" fill="rgb(173,165,140)" width="1" height="74.9375" stroke="none"/>
      </g>
    </g>
    <g id="y.node.4">
      <g fill="white" transform="matrix(0.955,0,0,0.955,35.3333,9.5495)" stroke="white">
        <rect width="77" x="1482" height="41" y="235" stroke="none"/>
        <rect x="1482" y="235" fill="none" width="77" height="41" stroke="black"/>
      </g>
      <g id="bla">
        <g font-family="sans-serif" transform="matrix(0.955,0,0,0.955,35.3333,9.5495)">
          <text xml:space="preserve" x="1494" y="254.0137" stroke="none">REGENF </text>
          <text xml:space="preserve" x="1489" y="267.9824" stroke="none"> (regenf.f)</text>
        </g>
      </g>
    </g>
    <g id="y.node.1">
      <g fill="white" transform="matrix(0.955,0,0,0.955,35.3333,9.5495)" stroke="white">
        <rect width="79" x="1087" height="41" y="19" stroke="none"/>
        <rect x="1087" y="19" fill="none" width="79" height="41" stroke="black"/>
      </g>
      <g id="bla">
        <g font-family="sans-serif" transform="matrix(0.955,0,0,0.955,35.3333,9.5495)">
          <text xml:space="preserve" x="1100" y="37.1387" stroke="none">FFMOD5 </text>
          <text xml:space="preserve" x="1094.5" y="51.1074" stroke="none"> (ffmod5.f)</text>
        </g>
      </g>
    </g>
    <g id="y.edge.0">
      <g stroke-miterlimit="1.45" transform="matrix(0.955,0,0,0.955,35.3333,9.5495)" stroke-linecap="butt">
        <path fill="none" d="M1107.2043 60.9424 L733.5 100.9375 L733.5 111.9004"/>
        <path d="M733.5 119.9004 L738.5 107.9004 L733.5 110.9004 L728.5 107.9004 Z" stroke="none"/>
      </g>
    </g>
    <g id="y.edge.1">
      <g stroke-miterlimit="1.45" transform="matrix(0.955,0,0,0.955,35.3333,9.5495)" stroke-linecap="butt">
        <path fill="none" d="M1146.7957 60.9424 L1520.5 100.9375 L1520.5 227.8421"/>
        <path d="M1520.5 235.8421 L1525.5 223.8421 L1520.5 226.8421 L1515.5 223.8421 Z" stroke="none"/>
      </g>
    </g>
    <g id="y.edge.2">
      <g stroke-miterlimit="1.45" transform="matrix(0.955,0,0,0.955,35.3333,9.5495)" stroke-linecap="butt">
        <path fill="none" d="M769.093 161.8774 L1382 201.875 L1382 270.8062"/>
        <path d="M1382 278.8062 L1387 266.8062 L1382 269.8062 L1377 266.8062 Z" stroke="none"/>
      </g>
    </g>
    <g id="y.edge.3">
      <g stroke-miterlimit="1.45" transform="matrix(0.955,0,0,0.955,35.3333,9.5495)" stroke-linecap="butt">
        <path fill="none" d="M760.1973 161.8774 L1263 201.875 L1263 270.8062"/>
        <path d="M1263 278.8062 L1268 266.8062 L1263 269.8062 L1258 266.8062 Z" stroke="none"/>
      </g>
    </g>
    <g id="y.edge.4">
      <g stroke-miterlimit="1.45" transform="matrix(0.955,0,0,0.955,35.3333,9.5495)" stroke-linecap="butt">
        <path fill="none" d="M751.3253 161.8799 L1140.5 201.875 L1140.5 270.8062"/>
        <path d="M1140.5 278.8062 L1145.5 266.8062 L1140.5 269.8062 L1135.5 266.8062 Z" stroke="none"/>
      </g>
    </g>
    <g id="y.edge.5">
      <g stroke-miterlimit="1.45" transform="matrix(0.955,0,0,0.955,35.3333,9.5495)" stroke-linecap="butt">
        <path fill="none" d="M742.4357 161.8848 L934 201.875 L934 212.8379"/>
        <path d="M934 220.8379 L939 208.8379 L934 211.8379 L929 208.8379 Z" stroke="none"/>
      </g>
    </g>
    <g id="y.edge.6">
      <g stroke-miterlimit="1.45" transform="matrix(0.955,0,0,0.955,35.3333,9.5495)" stroke-linecap="butt">
        <path fill="none" d="M733.5 161.9036 L733.5 270.8152"/>
        <path d="M733.5 278.8152 L738.5 266.8152 L733.5 269.8152 L728.5 266.8152 Z" stroke="none"/>
      </g>
    </g>
    <g id="y.edge.7">
      <g stroke-miterlimit="1.45" transform="matrix(0.955,0,0,0.955,35.3333,9.5495)" stroke-linecap="butt">
        <path fill="none" d="M724.5847 161.8848 L616.5 201.875 L616.5 270.8062"/>
        <path d="M616.5 278.8062 L621.5 266.8062 L616.5 269.8062 L611.5 266.8062 Z" stroke="none"/>
      </g>
    </g>
    <g id="y.edge.8">
      <g stroke-miterlimit="1.45" transform="matrix(0.955,0,0,0.955,35.3333,9.5495)" stroke-linecap="butt">
        <path fill="none" d="M715.695 161.8799 L493 201.875 L493 270.8062"/>
        <path d="M493 278.8062 L498 266.8062 L493 269.8062 L488 266.8062 Z" stroke="none"/>
      </g>
    </g>
    <g id="y.edge.9">
      <g stroke-miterlimit="1.45" transform="matrix(0.955,0,0,0.955,35.3333,9.5495)" stroke-linecap="butt">
        <path fill="none" d="M706.7906 161.8799 L356.5 201.875 L356.5 212.8379"/>
        <path d="M356.5 220.8379 L361.5 208.8379 L356.5 211.8379 L351.5 208.8379 Z" stroke="none"/>
      </g>
    </g>
    <g id="y.edge.10">
      <g stroke-miterlimit="1.45" transform="matrix(0.955,0,0,0.955,35.3333,9.5495)" stroke-linecap="butt">
        <path fill="none" d="M697.9111 161.8774 L152 201.875 L152 212.8379"/>
        <path d="M152 220.8379 L157 208.8379 L152 211.8379 L147 208.8379 Z" stroke="none"/>
      </g>
    </g>
    <g id="y.edge.11">
      <g stroke-miterlimit="1.45" transform="matrix(0.955,0,0,0.955,35.3333,9.5495)" stroke-linecap="butt">
        <path fill="none" d="M953.5217 262.832 L998 302.8125 L998 313.7754"/>
        <path d="M998 321.7754 L1003 309.7754 L998 312.7754 L993 309.7754 Z" stroke="none"/>
      </g>
    </g>
    <g id="y.edge.12">
      <g stroke-miterlimit="1.45" transform="matrix(0.955,0,0,0.955,35.3333,9.5495)" stroke-linecap="butt">
        <path fill="none" d="M914.4783 262.832 L870 302.8125 L870 313.7754"/>
        <path d="M870 321.7754 L875 309.7754 L870 312.7754 L865 309.7754 Z" stroke="none"/>
      </g>
    </g>
    <g id="y.edge.13">
      <g stroke-miterlimit="1.45" transform="matrix(0.955,0,0,0.955,35.3333,9.5495)" stroke-linecap="butt">
        <path fill="none" d="M356.5 262.8413 L356.5 313.7837"/>
        <path d="M356.5 321.7837 L361.5 309.7837 L356.5 312.7837 L351.5 309.7837 Z" stroke="none"/>
      </g>
    </g>
    <g id="y.edge.14">
      <g stroke-miterlimit="1.45" transform="matrix(0.955,0,0,0.955,35.3333,9.5495)" stroke-linecap="butt">
        <path fill="none" d="M168.7704 262.832 L210.5 302.8125 L210.5 313.7754"/>
        <path d="M210.5 321.7754 L215.5 309.7754 L210.5 312.7754 L205.5 309.7754 Z" stroke="none"/>
      </g>
    </g>
    <g id="y.edge.15">
      <g stroke-miterlimit="1.45" transform="matrix(0.955,0,0,0.955,35.3333,9.5495)" stroke-linecap="butt">
        <path fill="none" d="M135.2296 262.832 L93.5 302.8125 L93.5 313.7754"/>
        <path d="M93.5 321.7754 L98.5 309.7754 L93.5 312.7754 L88.5 309.7754 Z" stroke="none"/>
      </g>
    </g>
  </g>
</svg>
