<?xml version="1.0" encoding="UTF-8"?><svg xmlns="http://www.w3.org/2000/svg" xmlns:xlink="http://www.w3.org/1999/xlink" fill-opacity="1" color-rendering="auto" color-interpolation="auto" stroke="black" text-rendering="auto" stroke-linecap="square" width="1858" stroke-miterlimit="10" stroke-opacity="1" shape-rendering="auto" fill="black" stroke-dasharray="none" font-weight="normal" stroke-width="1" height="772" font-family="'Dialog'" font-style="normal" stroke-linejoin="miter" font-size="12" stroke-dashoffset="0" image-rendering="auto">
  <!--Generated by ySVG-->
  <defs id="genericDefs"/>
  <g>
    <defs id="defs1">
      <clipPath clipPathUnits="userSpaceOnUse" id="clipPath1">
        <path d="M0 0 L1858 0 L1858 772 L0 772 L0 0 Z"/>
      </clipPath>
    </defs>
    <g id="y.node.0">
      <g fill="rgb(248,236,201)" transform="matrix(0.9747,0,0,0.9747,23.3939,9.7475)" stroke="rgb(248,236,201)">
        <rect width="1858" x="0" height="771.5625" y="0" stroke="none"/>
      </g>
      <g id="bla">
        <g fill="rgb(64,64,64)" transform="matrix(0.9747,0,0,0.9747,23.3939,9.7475)" stroke="rgb(64,64,64)">
          <rect width="1858" x="0" height="4" y="0" stroke="none"/>
        </g>
      </g>
      <g fill="white" transform="matrix(0.9747,0,0,0.9747,23.3939,9.7475)" stroke="white">
        <rect width="1" x="0" height="771.5625" y="0" stroke="none"/>
      </g>
      <g fill="white" transform="matrix(0.9747,0,0,0.9747,23.3939,9.7475)" stroke="white">
        <rect width="1856" x="1" height="1" y="0" stroke="none"/>
        <rect x="1" y="770.5625" fill="rgb(173,165,140)" width="1857" height="1" stroke="none"/>
        <rect x="1857" y="0" fill="rgb(173,165,140)" width="1" height="770.5625" stroke="none"/>
      </g>
    </g>
    <g id="y.node.3">
      <g fill="rgb(248,236,201)" transform="matrix(0.9747,0,0,0.9747,23.3939,9.7475)" stroke="rgb(248,236,201)">
        <rect width="1700" x="143" height="655.625" y="100.9375" stroke="none"/>
      </g>
      <g id="bla">
        <g fill="rgb(64,64,64)" transform="matrix(0.9747,0,0,0.9747,23.3939,9.7475)" stroke="rgb(64,64,64)">
          <rect width="1700" x="143" height="4" y="100.9375" stroke="none"/>
        </g>
      </g>
      <g fill="white" transform="matrix(0.9747,0,0,0.9747,23.3939,9.7475)" stroke="white">
        <rect width="1" x="143" height="655.625" y="100.9375" stroke="none"/>
        <rect width="1698" x="144" height="1" y="100.9375" stroke="none"/>
        <rect x="144" y="755.5625" fill="rgb(173,165,140)" width="1699" height="1" stroke="none"/>
        <rect x="1842" y="100.9375" fill="rgb(173,165,140)" width="1" height="654.625" stroke="none"/>
      </g>
    </g>
    <g id="y.node.12">
      <g fill="rgb(248,236,201)" transform="matrix(0.9747,0,0,0.9747,23.3939,9.7475)" stroke="rgb(248,236,201)">
        <rect width="99" x="1729" height="75.9375" y="433.75" stroke="none"/>
      </g>
      <g id="bla">
        <g fill="rgb(64,64,64)" transform="matrix(0.9747,0,0,0.9747,23.3939,9.7475)" stroke="rgb(64,64,64)">
          <rect width="99" x="1729" height="4" y="433.75" stroke="none"/>
        </g>
      </g>
      <g fill="white" transform="matrix(0.9747,0,0,0.9747,23.3939,9.7475)" stroke="white">
        <rect width="1" x="1729" height="75.9375" y="433.75" stroke="none"/>
        <rect width="97" x="1730" height="1" y="433.75" stroke="none"/>
        <rect x="1730" y="508.6875" fill="rgb(173,165,140)" width="98" height="1" stroke="none"/>
        <rect x="1827" y="433.75" fill="rgb(173,165,140)" width="1" height="74.9375" stroke="none"/>
      </g>
    </g>
    <g id="y.node.41">
      <g fill="white" transform="matrix(0.9747,0,0,0.9747,23.3939,9.7475)" stroke="white">
        <rect width="69" x="1744" height="41" y="452" stroke="none"/>
        <rect x="1744" y="452" fill="none" width="69" height="41" stroke="black"/>
      </g>
      <g id="bla">
        <g font-family="sans-serif" transform="matrix(0.9747,0,0,0.9747,23.3939,9.7475)">
          <text xml:space="preserve" x="1757.5" y="470.8887" stroke="none">AXAFS </text>
          <text xml:space="preserve" x="1751" y="484.8574" stroke="none"> (axafs.f)</text>
        </g>
      </g>
    </g>
    <g id="y.node.11">
      <g fill="rgb(248,236,201)" transform="matrix(0.9747,0,0,0.9747,23.3939,9.7475)" stroke="rgb(248,236,201)">
        <rect width="111" x="1598" height="75.9375" y="433.75" stroke="none"/>
      </g>
      <g id="bla">
        <g fill="rgb(64,64,64)" transform="matrix(0.9747,0,0,0.9747,23.3939,9.7475)" stroke="rgb(64,64,64)">
          <rect width="111" x="1598" height="4" y="433.75" stroke="none"/>
        </g>
      </g>
      <g fill="white" transform="matrix(0.9747,0,0,0.9747,23.3939,9.7475)" stroke="white">
        <rect width="1" x="1598" height="75.9375" y="433.75" stroke="none"/>
        <rect width="109" x="1599" height="1" y="433.75" stroke="none"/>
        <rect x="1599" y="508.6875" fill="rgb(173,165,140)" width="110" height="1" stroke="none"/>
        <rect x="1708" y="433.75" fill="rgb(173,165,140)" width="1" height="74.9375" stroke="none"/>
      </g>
    </g>
    <g id="y.node.40">
      <g fill="white" transform="matrix(0.9747,0,0,0.9747,23.3939,9.7475)" stroke="white">
        <rect width="81" x="1613" height="41" y="452" stroke="none"/>
        <rect x="1613" y="452" fill="none" width="81" height="41" stroke="black"/>
      </g>
      <g id="bla">
        <g font-family="sans-serif" transform="matrix(0.9747,0,0,0.9747,23.3939,9.7475)">
          <text xml:space="preserve" x="1626.5" y="470.8887" stroke="none">GETEDG </text>
          <text xml:space="preserve" x="1620" y="484.8574" stroke="none"> (getedg.f)</text>
        </g>
      </g>
    </g>
    <g id="y.node.10">
      <g fill="rgb(248,236,201)" transform="matrix(0.9747,0,0,0.9747,23.3939,9.7475)" stroke="rgb(248,236,201)">
        <rect width="105" x="1473" height="75.9375" y="433.75" stroke="none"/>
      </g>
      <g id="bla">
        <g fill="rgb(64,64,64)" transform="matrix(0.9747,0,0,0.9747,23.3939,9.7475)" stroke="rgb(64,64,64)">
          <rect width="105" x="1473" height="4" y="433.75" stroke="none"/>
        </g>
      </g>
      <g fill="white" transform="matrix(0.9747,0,0,0.9747,23.3939,9.7475)" stroke="white">
        <rect width="1" x="1473" height="75.9375" y="433.75" stroke="none"/>
        <rect width="103" x="1474" height="1" y="433.75" stroke="none"/>
        <rect x="1474" y="508.6875" fill="rgb(173,165,140)" width="104" height="1" stroke="none"/>
        <rect x="1577" y="433.75" fill="rgb(173,165,140)" width="1" height="74.9375" stroke="none"/>
      </g>
    </g>
    <g id="y.node.39">
      <g fill="white" transform="matrix(0.9747,0,0,0.9747,23.3939,9.7475)" stroke="white">
        <rect width="75" x="1488" height="41" y="452" stroke="none"/>
        <rect x="1488" y="452" fill="none" width="75" height="41" stroke="black"/>
      </g>
      <g id="bla">
        <g font-family="sans-serif" transform="matrix(0.9747,0,0,0.9747,23.3939,9.7475)">
          <text xml:space="preserve" x="1503" y="470.8887" stroke="none">PHASE </text>
          <text xml:space="preserve" x="1495" y="484.8574" stroke="none"> (phase.f)</text>
        </g>
      </g>
    </g>
    <g id="y.node.9">
      <g fill="rgb(248,236,201)" transform="matrix(0.9747,0,0,0.9747,23.3939,9.7475)" stroke="rgb(248,236,201)">
        <rect width="116" x="1337" height="75.9375" y="433.75" stroke="none"/>
      </g>
      <g id="bla">
        <g fill="rgb(64,64,64)" transform="matrix(0.9747,0,0,0.9747,23.3939,9.7475)" stroke="rgb(64,64,64)">
          <rect width="116" x="1337" height="4" y="433.75" stroke="none"/>
        </g>
      </g>
      <g fill="white" transform="matrix(0.9747,0,0,0.9747,23.3939,9.7475)" stroke="white">
        <rect width="1" x="1337" height="75.9375" y="433.75" stroke="none"/>
        <rect width="114" x="1338" height="1" y="433.75" stroke="none"/>
        <rect x="1338" y="508.6875" fill="rgb(173,165,140)" width="115" height="1" stroke="none"/>
        <rect x="1452" y="433.75" fill="rgb(173,165,140)" width="1" height="74.9375" stroke="none"/>
      </g>
    </g>
    <g id="y.node.38">
      <g fill="white" transform="matrix(0.9747,0,0,0.9747,23.3939,9.7475)" stroke="white">
        <rect width="86" x="1352" height="41" y="452" stroke="none"/>
        <rect x="1352" y="452" fill="none" width="86" height="41" stroke="black"/>
      </g>
      <g id="bla">
        <g font-family="sans-serif" transform="matrix(0.9747,0,0,0.9747,23.3939,9.7475)">
          <text xml:space="preserve" x="1367" y="470.8887" stroke="none">PHMESH </text>
          <text xml:space="preserve" x="1359" y="484.8574" stroke="none"> (phmesh.f)</text>
        </g>
      </g>
    </g>
    <g id="y.node.8">
      <g fill="rgb(248,236,201)" transform="matrix(0.9747,0,0,0.9747,23.3939,9.7475)" stroke="rgb(248,236,201)">
        <rect width="534" x="783" height="347.8125" y="297.8125" stroke="none"/>
      </g>
      <g id="bla">
        <g fill="rgb(64,64,64)" transform="matrix(0.9747,0,0,0.9747,23.3939,9.7475)" stroke="rgb(64,64,64)">
          <rect width="534" x="783" height="4" y="297.8125" stroke="none"/>
        </g>
      </g>
      <g fill="white" transform="matrix(0.9747,0,0,0.9747,23.3939,9.7475)" stroke="white">
        <rect width="1" x="783" height="347.8125" y="297.8125" stroke="none"/>
        <rect width="532" x="784" height="1" y="297.8125" stroke="none"/>
        <rect x="784" y="644.625" fill="rgb(173,165,140)" width="533" height="1" stroke="none"/>
        <rect x="1316" y="297.8125" fill="rgb(173,165,140)" width="1" height="346.8125" stroke="none"/>
      </g>
    </g>
    <g id="y.node.27">
      <g fill="rgb(248,236,201)" transform="matrix(0.9747,0,0,0.9747,23.3939,9.7475)" stroke="rgb(248,236,201)">
        <rect width="102" x="798" height="75.9375" y="476.7188" stroke="none"/>
      </g>
      <g id="bla">
        <g fill="rgb(64,64,64)" transform="matrix(0.9747,0,0,0.9747,23.3939,9.7475)" stroke="rgb(64,64,64)">
          <rect width="102" x="798" height="4" y="476.7188" stroke="none"/>
        </g>
      </g>
      <g fill="white" transform="matrix(0.9747,0,0,0.9747,23.3939,9.7475)" stroke="white">
        <rect width="1" x="798" height="75.9375" y="476.7188" stroke="none"/>
        <rect width="100" x="799" height="1" y="476.7188" stroke="none"/>
        <rect x="799" y="551.6562" fill="rgb(173,165,140)" width="101" height="1" stroke="none"/>
        <rect x="899" y="476.7188" fill="rgb(173,165,140)" width="1" height="74.9375" stroke="none"/>
      </g>
    </g>
    <g id="y.node.28">
      <g fill="white" transform="matrix(0.9747,0,0,0.9747,23.3939,9.7475)" stroke="white">
        <rect width="72" x="813" height="41" y="495" stroke="none"/>
        <rect x="813" y="495" fill="none" width="72" height="41" stroke="black"/>
      </g>
      <g id="bla">
        <g font-family="sans-serif" transform="matrix(0.9747,0,0,0.9747,23.3939,9.7475)">
          <text xml:space="preserve" x="822.5" y="513.8574" stroke="none">RHOLSZ </text>
          <text xml:space="preserve" x="820" y="527.8262" stroke="none"> (rholsz.f)</text>
        </g>
      </g>
    </g>
    <g id="y.node.29">
      <g fill="rgb(248,236,201)" transform="matrix(0.9747,0,0,0.9747,23.3939,9.7475)" stroke="rgb(248,236,201)">
        <rect width="103" x="920" height="75.9375" y="476.7188" stroke="none"/>
      </g>
      <g id="bla">
        <g fill="rgb(64,64,64)" transform="matrix(0.9747,0,0,0.9747,23.3939,9.7475)" stroke="rgb(64,64,64)">
          <rect width="103" x="920" height="4" y="476.7188" stroke="none"/>
        </g>
      </g>
      <g fill="white" transform="matrix(0.9747,0,0,0.9747,23.3939,9.7475)" stroke="white">
        <rect width="1" x="920" height="75.9375" y="476.7188" stroke="none"/>
        <rect width="101" x="921" height="1" y="476.7188" stroke="none"/>
        <rect x="921" y="551.6562" fill="rgb(173,165,140)" width="102" height="1" stroke="none"/>
        <rect x="1022" y="476.7188" fill="rgb(173,165,140)" width="1" height="74.9375" stroke="none"/>
      </g>
    </g>
    <g id="y.node.30">
      <g fill="white" transform="matrix(0.9747,0,0,0.9747,23.3939,9.7475)" stroke="white">
        <rect width="73" x="935" height="41" y="495" stroke="none"/>
        <rect x="935" y="495" fill="none" width="73" height="41" stroke="black"/>
      </g>
      <g id="bla">
        <g font-family="sans-serif" transform="matrix(0.9747,0,0,0.9747,23.3939,9.7475)">
          <text xml:space="preserve" x="946" y="513.8574" stroke="none">RHOLAT </text>
          <text xml:space="preserve" x="942" y="527.8262" stroke="none"> (rholat.f)</text>
        </g>
      </g>
    </g>
    <g id="y.node.31">
      <g fill="rgb(248,236,201)" transform="matrix(0.9747,0,0,0.9747,23.3939,9.7475)" stroke="rgb(248,236,201)">
        <rect width="100" x="1043" height="75.9375" y="476.7188" stroke="none"/>
      </g>
      <g id="bla">
        <g fill="rgb(64,64,64)" transform="matrix(0.9747,0,0,0.9747,23.3939,9.7475)" stroke="rgb(64,64,64)">
          <rect width="100" x="1043" height="4" y="476.7188" stroke="none"/>
        </g>
      </g>
      <g fill="white" transform="matrix(0.9747,0,0,0.9747,23.3939,9.7475)" stroke="white">
        <rect width="1" x="1043" height="75.9375" y="476.7188" stroke="none"/>
        <rect width="98" x="1044" height="1" y="476.7188" stroke="none"/>
        <rect x="1044" y="551.6562" fill="rgb(173,165,140)" width="99" height="1" stroke="none"/>
        <rect x="1142" y="476.7188" fill="rgb(173,165,140)" width="1" height="74.9375" stroke="none"/>
      </g>
    </g>
    <g id="y.node.32">
      <g fill="white" transform="matrix(0.9747,0,0,0.9747,23.3939,9.7475)" stroke="white">
        <rect width="70" x="1058" height="41" y="495" stroke="none"/>
        <rect x="1058" y="495" fill="none" width="70" height="41" stroke="black"/>
      </g>
      <g id="bla">
        <g font-family="sans-serif" transform="matrix(0.9747,0,0,0.9747,23.3939,9.7475)">
          <text xml:space="preserve" x="1070" y="513.8574" stroke="none">FMSSZ </text>
          <text xml:space="preserve" x="1065" y="527.8262" stroke="none"> (fmssz.f)</text>
        </g>
      </g>
    </g>
    <g id="y.node.33">
      <g fill="rgb(248,236,201)" transform="matrix(0.9747,0,0,0.9747,23.3939,9.7475)" stroke="rgb(248,236,201)">
        <rect width="139" x="1163" height="231.875" y="398.75" stroke="none"/>
      </g>
      <g id="bla">
        <g fill="rgb(64,64,64)" transform="matrix(0.9747,0,0,0.9747,23.3939,9.7475)" stroke="rgb(64,64,64)">
          <rect width="139" x="1163" height="4" y="398.75" stroke="none"/>
        </g>
      </g>
      <g fill="white" transform="matrix(0.9747,0,0,0.9747,23.3939,9.7475)" stroke="white">
        <rect width="1" x="1163" height="231.875" y="398.75" stroke="none"/>
        <rect width="137" x="1164" height="1" y="398.75" stroke="none"/>
        <rect x="1164" y="629.625" fill="rgb(173,165,140)" width="138" height="1" stroke="none"/>
        <rect x="1301" y="398.75" fill="rgb(173,165,140)" width="1" height="230.875" stroke="none"/>
      </g>
    </g>
    <g id="y.node.34">
      <g fill="rgb(248,236,201)" transform="matrix(0.9747,0,0,0.9747,23.3939,9.7475)" stroke="rgb(248,236,201)">
        <rect width="101" x="1178" height="115.9375" y="499.6875" stroke="none"/>
      </g>
      <g id="bla">
        <g fill="rgb(64,64,64)" transform="matrix(0.9747,0,0,0.9747,23.3939,9.7475)" stroke="rgb(64,64,64)">
          <rect width="101" x="1178" height="4" y="499.6875" stroke="none"/>
        </g>
      </g>
      <g fill="white" transform="matrix(0.9747,0,0,0.9747,23.3939,9.7475)" stroke="white">
        <rect width="1" x="1178" height="115.9375" y="499.6875" stroke="none"/>
        <rect width="99" x="1179" height="1" y="499.6875" stroke="none"/>
        <rect x="1179" y="614.625" fill="rgb(173,165,140)" width="100" height="1" stroke="none"/>
        <rect x="1278" y="499.6875" fill="rgb(173,165,140)" width="1" height="114.9375" stroke="none"/>
      </g>
    </g>
    <g id="y.node.35">
      <g fill="white" transform="matrix(0.9747,0,0,0.9747,23.3939,9.7475)" stroke="white">
        <rect width="71" x="1193" height="41" y="558" stroke="none"/>
        <rect x="1193" y="558" fill="none" width="71" height="41" stroke="black"/>
      </g>
      <g id="bla">
        <g font-family="sans-serif" transform="matrix(0.9747,0,0,0.9747,23.3939,9.7475)">
          <text xml:space="preserve" x="1204.5" y="576.8262" stroke="none">KFROMI </text>
          <text xml:space="preserve" x="1200" y="590.7949" stroke="none"> (acoef.f)</text>
        </g>
      </g>
    </g>
    <g id="y.node.36">
      <g fill="white" transform="matrix(0.9747,0,0,0.9747,23.3939,9.7475)" stroke="white">
        <rect width="71" x="1216" height="41" y="417" stroke="none"/>
        <rect x="1216" y="417" fill="none" width="71" height="41" stroke="black"/>
      </g>
      <g id="bla">
        <g font-family="sans-serif" transform="matrix(0.9747,0,0,0.9747,23.3939,9.7475)">
          <text xml:space="preserve" x="1229.5" y="435.8887" stroke="none">ACOEF </text>
          <text xml:space="preserve" x="1223" y="449.8574" stroke="none"> (acoef.f)</text>
        </g>
      </g>
    </g>
    <g id="y.node.37">
      <g fill="white" transform="matrix(0.9747,0,0,0.9747,23.3939,9.7475)" stroke="white">
        <rect width="56" x="1065" height="41" y="316" stroke="none"/>
        <rect x="1065" y="316" fill="none" width="56" height="41" stroke="black"/>
      </g>
      <g id="bla">
        <g font-family="sans-serif" transform="matrix(0.9747,0,0,0.9747,23.3939,9.7475)">
          <text xml:space="preserve" x="1075" y="334.9512" stroke="none">SZLZ </text>
          <text xml:space="preserve" x="1072" y="348.9199" stroke="none"> (szlz.f)</text>
        </g>
      </g>
    </g>
    <g id="y.node.7">
      <g fill="rgb(248,236,201)" transform="matrix(0.9747,0,0,0.9747,23.3939,9.7475)" stroke="rgb(248,236,201)">
        <rect width="114" x="649" height="75.9375" y="433.75" stroke="none"/>
      </g>
      <g id="bla">
        <g fill="rgb(64,64,64)" transform="matrix(0.9747,0,0,0.9747,23.3939,9.7475)" stroke="rgb(64,64,64)">
          <rect width="114" x="649" height="4" y="433.75" stroke="none"/>
        </g>
      </g>
      <g fill="white" transform="matrix(0.9747,0,0,0.9747,23.3939,9.7475)" stroke="white">
        <rect width="1" x="649" height="75.9375" y="433.75" stroke="none"/>
        <rect width="112" x="650" height="1" y="433.75" stroke="none"/>
        <rect x="650" y="508.6875" fill="rgb(173,165,140)" width="113" height="1" stroke="none"/>
        <rect x="762" y="433.75" fill="rgb(173,165,140)" width="1" height="74.9375" stroke="none"/>
      </g>
    </g>
    <g id="y.node.26">
      <g fill="white" transform="matrix(0.9747,0,0,0.9747,23.3939,9.7475)" stroke="white">
        <rect width="84" x="664" height="41" y="452" stroke="none"/>
        <rect x="664" y="452" fill="none" width="84" height="41" stroke="black"/>
      </g>
      <g id="bla">
        <g font-family="sans-serif" transform="matrix(0.9747,0,0,0.9747,23.3939,9.7475)">
          <text xml:space="preserve" x="678" y="470.8887" stroke="none">WPHASE </text>
          <text xml:space="preserve" x="671" y="484.8574" stroke="none"> (wphase.f)</text>
        </g>
      </g>
    </g>
    <g id="y.node.6">
      <g fill="rgb(248,236,201)" transform="matrix(0.9747,0,0,0.9747,23.3939,9.7475)" stroke="rgb(248,236,201)">
        <rect width="109" x="520" height="75.9375" y="433.75" stroke="none"/>
      </g>
      <g id="bla">
        <g fill="rgb(64,64,64)" transform="matrix(0.9747,0,0,0.9747,23.3939,9.7475)" stroke="rgb(64,64,64)">
          <rect width="109" x="520" height="4" y="433.75" stroke="none"/>
        </g>
      </g>
      <g fill="white" transform="matrix(0.9747,0,0,0.9747,23.3939,9.7475)" stroke="white">
        <rect width="1" x="520" height="75.9375" y="433.75" stroke="none"/>
        <rect width="107" x="521" height="1" y="433.75" stroke="none"/>
        <rect x="521" y="508.6875" fill="rgb(173,165,140)" width="108" height="1" stroke="none"/>
        <rect x="628" y="433.75" fill="rgb(173,165,140)" width="1" height="74.9375" stroke="none"/>
      </g>
    </g>
    <g id="y.node.25">
      <g fill="white" transform="matrix(0.9747,0,0,0.9747,23.3939,9.7475)" stroke="white">
        <rect width="79" x="535" height="41" y="452" stroke="none"/>
        <rect x="535" y="452" fill="none" width="79" height="41" stroke="black"/>
      </g>
      <g id="bla">
        <g font-family="sans-serif" transform="matrix(0.9747,0,0,0.9747,23.3939,9.7475)">
          <text xml:space="preserve" x="547" y="470.8887" stroke="none">WRXSPH </text>
          <text xml:space="preserve" x="542" y="484.8574" stroke="none"> (wrxsph.f)</text>
        </g>
      </g>
    </g>
    <g id="y.node.5">
      <g fill="rgb(248,236,201)" transform="matrix(0.9747,0,0,0.9747,23.3939,9.7475)" stroke="rgb(248,236,201)">
        <rect width="342" x="158" height="539.6875" y="201.875" stroke="none"/>
      </g>
      <g id="bla">
        <g fill="rgb(64,64,64)" transform="matrix(0.9747,0,0,0.9747,23.3939,9.7475)" stroke="rgb(64,64,64)">
          <rect width="342" x="158" height="4" y="201.875" stroke="none"/>
        </g>
      </g>
      <g fill="white" transform="matrix(0.9747,0,0,0.9747,23.3939,9.7475)" stroke="white">
        <rect width="1" x="158" height="539.6875" y="201.875" stroke="none"/>
        <rect width="340" x="159" height="1" y="201.875" stroke="none"/>
        <rect x="159" y="740.5625" fill="rgb(173,165,140)" width="341" height="1" stroke="none"/>
        <rect x="499" y="201.875" fill="rgb(173,165,140)" width="1" height="538.6875" stroke="none"/>
      </g>
    </g>
    <g id="y.node.14">
      <g fill="rgb(248,236,201)" transform="matrix(0.9747,0,0,0.9747,23.3939,9.7475)" stroke="rgb(248,236,201)">
        <rect width="312" x="173" height="423.75" y="302.8125" stroke="none"/>
      </g>
      <g id="bla">
        <g fill="rgb(64,64,64)" transform="matrix(0.9747,0,0,0.9747,23.3939,9.7475)" stroke="rgb(64,64,64)">
          <rect width="312" x="173" height="4" y="302.8125" stroke="none"/>
        </g>
      </g>
      <g fill="white" transform="matrix(0.9747,0,0,0.9747,23.3939,9.7475)" stroke="white">
        <rect width="1" x="173" height="423.75" y="302.8125" stroke="none"/>
        <rect width="310" x="174" height="1" y="302.8125" stroke="none"/>
        <rect x="174" y="725.5625" fill="rgb(173,165,140)" width="311" height="1" stroke="none"/>
        <rect x="484" y="302.8125" fill="rgb(173,165,140)" width="1" height="422.75" stroke="none"/>
      </g>
    </g>
    <g id="y.node.15">
      <g fill="rgb(248,236,201)" transform="matrix(0.9747,0,0,0.9747,23.3939,9.7475)" stroke="rgb(248,236,201)">
        <rect width="103" x="188" height="75.9375" y="519.6875" stroke="none"/>
      </g>
      <g id="bla">
        <g fill="rgb(64,64,64)" transform="matrix(0.9747,0,0,0.9747,23.3939,9.7475)" stroke="rgb(64,64,64)">
          <rect width="103" x="188" height="4" y="519.6875" stroke="none"/>
        </g>
      </g>
      <g fill="white" transform="matrix(0.9747,0,0,0.9747,23.3939,9.7475)" stroke="white">
        <rect width="1" x="188" height="75.9375" y="519.6875" stroke="none"/>
        <rect width="101" x="189" height="1" y="519.6875" stroke="none"/>
        <rect x="189" y="594.625" fill="rgb(173,165,140)" width="102" height="1" stroke="none"/>
        <rect x="290" y="519.6875" fill="rgb(173,165,140)" width="1" height="74.9375" stroke="none"/>
      </g>
    </g>
    <g id="y.node.16">
      <g fill="white" transform="matrix(0.9747,0,0,0.9747,23.3939,9.7475)" stroke="white">
        <rect width="73" x="203" height="41" y="538" stroke="none"/>
        <rect x="203" y="538" fill="none" width="73" height="41" stroke="black"/>
      </g>
      <g id="bla">
        <g font-family="sans-serif" transform="matrix(0.9747,0,0,0.9747,23.3939,9.7475)">
          <text xml:space="preserve" x="224.5" y="556.8262" stroke="none">XRCI </text>
          <text xml:space="preserve" x="210" y="570.7949" stroke="none"> (radint.f)</text>
        </g>
      </g>
    </g>
    <g id="y.node.17">
      <g fill="rgb(248,236,201)" transform="matrix(0.9747,0,0,0.9747,23.3939,9.7475)" stroke="rgb(248,236,201)">
        <rect width="159" x="311" height="307.8125" y="403.75" stroke="none"/>
      </g>
      <g id="bla">
        <g fill="rgb(64,64,64)" transform="matrix(0.9747,0,0,0.9747,23.3939,9.7475)" stroke="rgb(64,64,64)">
          <rect width="159" x="311" height="4" y="403.75" stroke="none"/>
        </g>
      </g>
      <g fill="white" transform="matrix(0.9747,0,0,0.9747,23.3939,9.7475)" stroke="white">
        <rect width="1" x="311" height="307.8125" y="403.75" stroke="none"/>
        <rect width="157" x="312" height="1" y="403.75" stroke="none"/>
        <rect x="312" y="710.5625" fill="rgb(173,165,140)" width="158" height="1" stroke="none"/>
        <rect x="469" y="403.75" fill="rgb(173,165,140)" width="1" height="306.8125" stroke="none"/>
      </g>
    </g>
    <g id="y.node.18">
      <g fill="rgb(248,236,201)" transform="matrix(0.9747,0,0,0.9747,23.3939,9.7475)" stroke="rgb(248,236,201)">
        <rect width="129" x="326" height="191.875" y="504.6875" stroke="none"/>
      </g>
      <g id="bla">
        <g fill="rgb(64,64,64)" transform="matrix(0.9747,0,0,0.9747,23.3939,9.7475)" stroke="rgb(64,64,64)">
          <rect width="129" x="326" height="4" y="504.6875" stroke="none"/>
        </g>
      </g>
      <g fill="white" transform="matrix(0.9747,0,0,0.9747,23.3939,9.7475)" stroke="white">
        <rect width="1" x="326" height="191.875" y="504.6875" stroke="none"/>
        <rect width="127" x="327" height="1" y="504.6875" stroke="none"/>
        <rect x="327" y="695.5625" fill="rgb(173,165,140)" width="128" height="1" stroke="none"/>
        <rect x="454" y="504.6875" fill="rgb(173,165,140)" width="1" height="190.875" stroke="none"/>
      </g>
    </g>
    <g id="y.node.19">
      <g fill="rgb(248,236,201)" transform="matrix(0.9747,0,0,0.9747,23.3939,9.7475)" stroke="rgb(248,236,201)">
        <rect width="99" x="341" height="75.9375" y="605.625" stroke="none"/>
      </g>
      <g id="bla">
        <g fill="rgb(64,64,64)" transform="matrix(0.9747,0,0,0.9747,23.3939,9.7475)" stroke="rgb(64,64,64)">
          <rect width="99" x="341" height="4" y="605.625" stroke="none"/>
        </g>
      </g>
      <g fill="white" transform="matrix(0.9747,0,0,0.9747,23.3939,9.7475)" stroke="white">
        <rect width="1" x="341" height="75.9375" y="605.625" stroke="none"/>
        <rect width="97" x="342" height="1" y="605.625" stroke="none"/>
        <rect x="342" y="680.5625" fill="rgb(173,165,140)" width="98" height="1" stroke="none"/>
        <rect x="439" y="605.625" fill="rgb(173,165,140)" width="1" height="74.9375" stroke="none"/>
      </g>
    </g>
    <g id="y.node.20">
      <g fill="white" transform="matrix(0.9747,0,0,0.9747,23.3939,9.7475)" stroke="white">
        <rect width="69" x="356" height="41" y="624" stroke="none"/>
        <rect x="356" y="624" fill="none" width="69" height="41" stroke="black"/>
      </g>
      <g id="bla">
        <g font-family="sans-serif" transform="matrix(0.9747,0,0,0.9747,23.3939,9.7475)">
          <text xml:space="preserve" x="378" y="642.7637" stroke="none">SIXJ </text>
          <text xml:space="preserve" x="363" y="656.7324" stroke="none"> (xmult.f)</text>
        </g>
      </g>
    </g>
    <g id="y.node.21">
      <g fill="white" transform="matrix(0.9747,0,0,0.9747,23.3939,9.7475)" stroke="white">
        <rect width="69" x="356" height="41" y="523" stroke="none"/>
        <rect x="356" y="523" fill="none" width="69" height="41" stroke="black"/>
      </g>
      <g id="bla">
        <g font-family="sans-serif" transform="matrix(0.9747,0,0,0.9747,23.3939,9.7475)">
          <text xml:space="preserve" x="372.5" y="541.8262" stroke="none">NINEJ </text>
          <text xml:space="preserve" x="363" y="555.7949" stroke="none"> (xmult.f)</text>
        </g>
      </g>
    </g>
    <g id="y.node.22">
      <g fill="white" transform="matrix(0.9747,0,0,0.9747,23.3939,9.7475)" stroke="white">
        <rect width="69" x="356" height="41" y="422" stroke="none"/>
        <rect x="356" y="422" fill="none" width="69" height="41" stroke="black"/>
      </g>
      <g id="bla">
        <g font-family="sans-serif" transform="matrix(0.9747,0,0,0.9747,23.3939,9.7475)">
          <text xml:space="preserve" x="369" y="440.8887" stroke="none">XMULT </text>
          <text xml:space="preserve" x="363" y="454.8574" stroke="none"> (xmult.f)</text>
        </g>
      </g>
    </g>
    <g id="y.node.23">
      <g fill="white" transform="matrix(0.9747,0,0,0.9747,23.3939,9.7475)" stroke="white">
        <rect width="73" x="278" height="41" y="321" stroke="none"/>
        <rect x="278" y="321" fill="none" width="73" height="41" stroke="black"/>
      </g>
      <g id="bla">
        <g font-family="sans-serif" transform="matrix(0.9747,0,0,0.9747,23.3939,9.7475)">
          <text xml:space="preserve" x="291" y="339.9512" stroke="none">RADINT </text>
          <text xml:space="preserve" x="285.5" y="353.9199" stroke="none"> (radint.f)</text>
        </g>
      </g>
    </g>
    <g id="y.node.24">
      <g fill="white" transform="matrix(0.9747,0,0,0.9747,23.3939,9.7475)" stroke="white">
        <rect width="69" x="280" height="41" y="220" stroke="none"/>
        <rect x="280" y="220" fill="none" width="69" height="41" stroke="black"/>
      </g>
      <g id="bla">
        <g font-family="sans-serif" transform="matrix(0.9747,0,0,0.9747,23.3939,9.7475)">
          <text xml:space="preserve" x="294" y="239.0137" stroke="none">XSECT </text>
          <text xml:space="preserve" x="287.5" y="252.9824" stroke="none"> (xsect.f)</text>
        </g>
      </g>
    </g>
    <g id="y.node.13">
      <g fill="white" transform="matrix(0.9747,0,0,0.9747,23.3939,9.7475)" stroke="white">
        <rect width="65" x="1211" height="41" y="119" stroke="none"/>
        <rect x="1211" y="119" fill="none" width="65" height="41" stroke="black"/>
      </g>
      <g id="bla">
        <g font-family="sans-serif" transform="matrix(0.9747,0,0,0.9747,23.3939,9.7475)">
          <text xml:space="preserve" x="1226" y="138.0762" stroke="none">XSPH </text>
          <text xml:space="preserve" x="1218.5" y="152.0449" stroke="none"> (xsph.f)</text>
        </g>
      </g>
    </g>
    <g id="y.node.2">
      <g fill="rgb(248,236,201)" transform="matrix(0.9747,0,0,0.9747,23.3939,9.7475)" stroke="rgb(248,236,201)">
        <rect width="108" x="15" height="75.9375" y="390.7812" stroke="none"/>
      </g>
      <g id="bla">
        <g fill="rgb(64,64,64)" transform="matrix(0.9747,0,0,0.9747,23.3939,9.7475)" stroke="rgb(64,64,64)">
          <rect width="108" x="15" height="4" y="390.7812" stroke="none"/>
        </g>
      </g>
      <g fill="white" transform="matrix(0.9747,0,0,0.9747,23.3939,9.7475)" stroke="white">
        <rect width="1" x="15" height="75.9375" y="390.7812" stroke="none"/>
        <rect width="106" x="16" height="1" y="390.7812" stroke="none"/>
        <rect x="16" y="465.7188" fill="rgb(173,165,140)" width="107" height="1" stroke="none"/>
        <rect x="122" y="390.7812" fill="rgb(173,165,140)" width="1" height="74.9375" stroke="none"/>
      </g>
    </g>
    <g id="y.node.4">
      <g fill="white" transform="matrix(0.9747,0,0,0.9747,23.3939,9.7475)" stroke="white">
        <rect width="78" x="30" height="41" y="409" stroke="none"/>
        <rect x="30" y="409" fill="none" width="78" height="41" stroke="black"/>
      </g>
      <g id="bla">
        <g font-family="sans-serif" transform="matrix(0.9747,0,0,0.9747,23.3939,9.7475)">
          <text xml:space="preserve" x="43" y="427.9199" stroke="none">REXSPH </text>
          <text xml:space="preserve" x="37" y="441.8887" stroke="none"> (rexsph.f)</text>
        </g>
      </g>
    </g>
    <g id="y.node.1">
      <g fill="white" transform="matrix(0.9747,0,0,0.9747,23.3939,9.7475)" stroke="white">
        <rect width="79" x="616" height="41" y="19" stroke="none"/>
        <rect x="616" y="19" fill="none" width="79" height="41" stroke="black"/>
      </g>
      <g id="bla">
        <g font-family="sans-serif" transform="matrix(0.9747,0,0,0.9747,23.3939,9.7475)">
          <text xml:space="preserve" x="629.5" y="37.1387" stroke="none">FFMOD2 </text>
          <text xml:space="preserve" x="624" y="51.1074" stroke="none"> (ffmod2.f)</text>
        </g>
      </g>
    </g>
    <g id="y.edge.0">
      <g stroke-miterlimit="1.45" transform="matrix(0.9747,0,0,0.9747,23.3939,9.7475)" stroke-linecap="butt">
        <path fill="none" d="M636.7153 60.9399 L69 100.9375 L69 401.7436"/>
        <path d="M69 409.7436 L74 397.7436 L69 400.7436 L64 397.7436 Z" stroke="none"/>
      </g>
    </g>
    <g id="y.edge.1">
      <g stroke-miterlimit="1.45" transform="matrix(0.9747,0,0,0.9747,23.3939,9.7475)" stroke-linecap="butt">
        <path fill="none" d="M676.2847 60.9399 L1244 100.9375 L1244 111.9004"/>
        <path d="M1244 119.9004 L1249 107.9004 L1244 110.9004 L1239 107.9004 Z" stroke="none"/>
      </g>
    </g>
    <g id="y.edge.2">
      <g stroke-miterlimit="1.45" transform="matrix(0.9747,0,0,0.9747,23.3939,9.7475)" stroke-linecap="butt">
        <path fill="none" d="M1215.535 161.8762 L315 201.875 L315 212.8379"/>
        <path d="M315 220.8379 L320 208.8379 L315 211.8379 L310 208.8379 Z" stroke="none"/>
      </g>
    </g>
    <g id="y.edge.3">
      <g stroke-miterlimit="1.45" transform="matrix(0.9747,0,0,0.9747,23.3939,9.7475)" stroke-linecap="butt">
        <path fill="none" d="M1231.7804 161.8774 L706 201.875 L706 444.7194"/>
        <path d="M706 452.7194 L711 440.7194 L706 443.7194 L701 440.7194 Z" stroke="none"/>
      </g>
    </g>
    <g id="y.edge.4">
      <g stroke-miterlimit="1.45" transform="matrix(0.9747,0,0,0.9747,23.3939,9.7475)" stroke-linecap="butt">
        <path fill="none" d="M1248.0984 161.8848 L1395 201.875 L1395 444.7194"/>
        <path d="M1395 452.7194 L1400 440.7194 L1395 443.7194 L1390 440.7194 Z" stroke="none"/>
      </g>
    </g>
    <g id="y.edge.5">
      <g stroke-miterlimit="1.45" transform="matrix(0.9747,0,0,0.9747,23.3939,9.7475)" stroke-linecap="butt">
        <path fill="none" d="M1264.36 161.8799 L1653.5 201.875 L1653.5 444.7194"/>
        <path d="M1653.5 452.7194 L1658.5 440.7194 L1653.5 443.7194 L1648.5 440.7194 Z" stroke="none"/>
      </g>
    </g>
    <g id="y.edge.6">
      <g stroke-miterlimit="1.45" transform="matrix(0.9747,0,0,0.9747,23.3939,9.7475)" stroke-linecap="butt">
        <path fill="none" d="M1272.4684 161.8774 L1778.5 201.875 L1778.5 444.7194"/>
        <path d="M1778.5 452.7194 L1783.5 440.7194 L1778.5 443.7194 L1773.5 440.7194 Z" stroke="none"/>
      </g>
    </g>
    <g id="y.edge.7">
      <g stroke-miterlimit="1.45" transform="matrix(0.9747,0,0,0.9747,23.3939,9.7475)" stroke-linecap="butt">
        <path fill="none" d="M1256.2203 161.8799 L1525.5 201.875 L1525.5 444.7194"/>
        <path d="M1525.5 452.7194 L1530.5 440.7194 L1525.5 443.7194 L1520.5 440.7194 Z" stroke="none"/>
      </g>
    </g>
    <g id="y.edge.8">
      <g stroke-miterlimit="1.45" transform="matrix(0.9747,0,0,0.9747,23.3939,9.7475)" stroke-linecap="butt">
        <path fill="none" d="M1239.9016 161.8848 L1093 201.875 L1093 308.7844"/>
        <path d="M1093 316.7844 L1098 304.7844 L1093 307.7844 L1088 304.7844 Z" stroke="none"/>
      </g>
    </g>
    <g id="y.edge.9">
      <g stroke-miterlimit="1.45" transform="matrix(0.9747,0,0,0.9747,23.3939,9.7475)" stroke-linecap="butt">
        <path fill="none" d="M1223.6478 161.8774 L574.5 201.875 L574.5 444.7194"/>
        <path d="M574.5 452.7194 L579.5 440.7194 L574.5 443.7194 L569.5 440.7194 Z" stroke="none"/>
      </g>
    </g>
    <g id="y.edge.10">
      <g stroke-miterlimit="1.45" transform="matrix(0.9747,0,0,0.9747,23.3939,9.7475)" stroke-linecap="butt">
        <path fill="none" d="M390.5 565.6538 L390.5 616.5962"/>
        <path d="M390.5 624.5962 L395.5 612.5962 L390.5 615.5962 L385.5 612.5962 Z" stroke="none"/>
      </g>
    </g>
    <g id="y.edge.11">
      <g stroke-miterlimit="1.45" transform="matrix(0.9747,0,0,0.9747,23.3939,9.7475)" stroke-linecap="butt">
        <path fill="none" d="M390.5 464.7163 L390.5 515.6587"/>
        <path d="M390.5 523.6587 L395.5 511.6587 L390.5 514.6587 L385.5 511.6587 Z" stroke="none"/>
      </g>
    </g>
    <g id="y.edge.12">
      <g stroke-miterlimit="1.45" transform="matrix(0.9747,0,0,0.9747,23.3939,9.7475)" stroke-linecap="butt">
        <path fill="none" d="M296.722 363.7695 L239.5 403.75 L239.5 530.6545"/>
        <path d="M239.5 538.6545 L244.5 526.6545 L239.5 529.6545 L234.5 526.6545 Z" stroke="none"/>
      </g>
    </g>
    <g id="y.edge.13">
      <g stroke-miterlimit="1.45" transform="matrix(0.9747,0,0,0.9747,23.3939,9.7475)" stroke-linecap="butt">
        <path fill="none" d="M333.278 363.7695 L390.5 403.75 L390.5 414.7129"/>
        <path d="M390.5 422.7129 L395.5 410.7129 L390.5 413.7129 L385.5 410.7129 Z" stroke="none"/>
      </g>
    </g>
    <g id="y.edge.14">
      <g stroke-miterlimit="1.45" transform="matrix(0.9747,0,0,0.9747,23.3939,9.7475)" stroke-linecap="butt">
        <path fill="none" d="M315 262.8413 L315 313.7837"/>
        <path d="M315 321.7837 L320 309.7837 L315 312.7837 L310 309.7837 Z" stroke="none"/>
      </g>
    </g>
    <g id="y.edge.15">
      <g stroke-miterlimit="1.45" transform="matrix(0.9747,0,0,0.9747,23.3939,9.7475)" stroke-linecap="butt">
        <path fill="none" d="M1251.4824 459.7266 L1233.5 499.6875 L1233.5 518.6875 L1243.808 551.0263"/>
        <path d="M1246.2375 558.6484 L1247.3571 545.6967 L1243.5043 550.0735 L1237.8293 548.7337 Z" stroke="none"/>
      </g>
    </g>
    <g id="y.edge.16">
      <g stroke-miterlimit="1.45" transform="matrix(0.9747,0,0,0.9747,23.3939,9.7475)" stroke-linecap="butt">
        <path fill="none" d="M1115.4332 358.7598 L1251.5 398.75 L1251.5 409.7129"/>
        <path d="M1251.5 417.7129 L1256.5 405.7129 L1251.5 408.7129 L1246.5 405.7129 Z" stroke="none"/>
      </g>
    </g>
    <g id="y.edge.17">
      <g stroke-miterlimit="1.45" transform="matrix(0.9747,0,0,0.9747,23.3939,9.7475)" stroke-linecap="butt">
        <path fill="none" d="M1081.7731 358.7598 L971.5 398.75 L971.5 487.6714"/>
        <path d="M971.5 495.6714 L976.5 483.6714 L971.5 486.6714 L966.5 483.6714 Z" stroke="none"/>
      </g>
    </g>
    <g id="y.edge.18">
      <g stroke-miterlimit="1.45" transform="matrix(0.9747,0,0,0.9747,23.3939,9.7475)" stroke-linecap="butt">
        <path fill="none" d="M1070.573 358.7549 L849 398.75 L849 487.6714"/>
        <path d="M849 495.6714 L854 483.6714 L849 486.6714 L844 483.6714 Z" stroke="none"/>
      </g>
    </g>
    <g id="y.edge.19">
      <g stroke-miterlimit="1.45" transform="matrix(0.9747,0,0,0.9747,23.3939,9.7475)" stroke-linecap="butt">
        <path fill="none" d="M1093 358.7834 L1093 487.6853"/>
        <path d="M1093 495.6853 L1098 483.6853 L1093 486.6853 L1088 483.6853 Z" stroke="none"/>
      </g>
    </g>
    <g id="y.edge.20">
      <g stroke-miterlimit="1.45" transform="matrix(0.9747,0,0,0.9747,23.3939,9.7475)" stroke-linecap="butt">
        <path fill="none" d="M1104.2247 358.7598 L1205.5 398.75 L1205.5 459.6875 L1223.5 499.6875 L1223.5 518.6875 L1213.192 551.0263"/>
        <path d="M1210.7625 558.6484 L1219.1707 548.7337 L1213.4957 550.0735 L1209.6429 545.6967 Z" stroke="none"/>
      </g>
    </g>
  </g>
</svg>
