<?xml version="1.0" encoding="UTF-8"?><svg xmlns="http://www.w3.org/2000/svg" xmlns:xlink="http://www.w3.org/1999/xlink" fill-opacity="1" color-rendering="auto" color-interpolation="auto" stroke="black" text-rendering="auto" stroke-linecap="square" width="1358" stroke-miterlimit="10" stroke-opacity="1" shape-rendering="auto" fill="black" stroke-dasharray="none" font-weight="normal" stroke-width="1" height="1048" font-family="'Dialog'" font-style="normal" stroke-linejoin="miter" font-size="12" stroke-dashoffset="0" image-rendering="auto">
  <!--Generated by ySVG-->
  <defs id="genericDefs"/>
  <g>
    <defs id="defs1">
      <clipPath clipPathUnits="userSpaceOnUse" id="clipPath1">
        <path d="M0 0 L1358 0 L1358 1048 L0 1048 L0 0 Z"/>
      </clipPath>
    </defs>
    <g id="y.node.0">
      <g fill="rgb(248,236,201)" transform="matrix(0.9813,0,0,0.9813,11.7753,9.8127)" stroke="rgb(248,236,201)">
        <rect width="1357.5804" x="0" height="1047.5" y="0" stroke="none"/>
      </g>
      <g id="bla">
        <g fill="rgb(64,64,64)" transform="matrix(0.9813,0,0,0.9813,11.7753,9.8127)" stroke="rgb(64,64,64)">
          <rect width="1357.5804" x="0" height="4" y="0" stroke="none"/>
        </g>
      </g>
      <g fill="white" transform="matrix(0.9813,0,0,0.9813,11.7753,9.8127)" stroke="white">
        <rect width="1" x="0" height="1047.5" y="0" stroke="none"/>
      </g>
      <g fill="white" transform="matrix(0.9813,0,0,0.9813,11.7753,9.8127)" stroke="white">
        <rect width="1355.5804" x="1" height="1" y="0" stroke="none"/>
        <rect x="1" y="1046.5" fill="rgb(173,165,140)" width="1356.5804" height="1" stroke="none"/>
        <rect x="1356.5804" y="0" fill="rgb(173,165,140)" width="1" height="1046.5" stroke="none"/>
      </g>
    </g>
    <g id="y.node.3">
      <g fill="rgb(248,236,201)" transform="matrix(0.9813,0,0,0.9813,11.7753,9.8127)" stroke="rgb(248,236,201)">
        <rect width="251.25" x="204.5" height="347.8125" y="256.875" stroke="none"/>
      </g>
      <g id="bla">
        <g fill="rgb(64,64,64)" transform="matrix(0.9813,0,0,0.9813,11.7753,9.8127)" stroke="rgb(64,64,64)">
          <rect width="251.25" x="204.5" height="4" y="256.875" stroke="none"/>
        </g>
      </g>
      <g fill="white" transform="matrix(0.9813,0,0,0.9813,11.7753,9.8127)" stroke="white">
        <rect width="1" x="204.5" height="347.8125" y="256.875" stroke="none"/>
        <rect width="249.25" x="205.5" height="1" y="256.875" stroke="none"/>
        <rect x="205.5" y="603.6875" fill="rgb(173,165,140)" width="250.25" height="1" stroke="none"/>
        <rect x="454.75" y="256.875" fill="rgb(173,165,140)" width="1" height="346.8125" stroke="none"/>
      </g>
    </g>
    <g id="y.node.31">
      <g fill="rgb(248,236,201)" transform="matrix(0.9813,0,0,0.9813,11.7753,9.8127)" stroke="rgb(248,236,201)">
        <rect width="150.25" x="280" height="231.875" y="357.8125" stroke="none"/>
      </g>
      <g id="bla">
        <g fill="rgb(64,64,64)" transform="matrix(0.9813,0,0,0.9813,11.7753,9.8127)" stroke="rgb(64,64,64)">
          <rect width="150.25" x="280" height="4" y="357.8125" stroke="none"/>
        </g>
      </g>
      <g fill="white" transform="matrix(0.9813,0,0,0.9813,11.7753,9.8127)" stroke="white">
        <rect width="1" x="280" height="231.875" y="357.8125" stroke="none"/>
        <rect width="148.25" x="281" height="1" y="357.8125" stroke="none"/>
        <rect x="281" y="588.6875" fill="rgb(173,165,140)" width="149.25" height="1" stroke="none"/>
        <rect x="429.25" y="357.8125" fill="rgb(173,165,140)" width="1" height="230.875" stroke="none"/>
      </g>
    </g>
    <g id="y.node.33">
      <g fill="rgb(248,236,201)" transform="matrix(0.9813,0,0,0.9813,11.7753,9.8127)" stroke="rgb(248,236,201)">
        <rect width="104" x="295" height="75.9375" y="498.75" stroke="none"/>
      </g>
      <g id="bla">
        <g fill="rgb(64,64,64)" transform="matrix(0.9813,0,0,0.9813,11.7753,9.8127)" stroke="rgb(64,64,64)">
          <rect width="104" x="295" height="4" y="498.75" stroke="none"/>
        </g>
      </g>
      <g fill="white" transform="matrix(0.9813,0,0,0.9813,11.7753,9.8127)" stroke="white">
        <rect width="1" x="295" height="75.9375" y="498.75" stroke="none"/>
        <rect width="102" x="296" height="1" y="498.75" stroke="none"/>
        <rect x="296" y="573.6875" fill="rgb(173,165,140)" width="103" height="1" stroke="none"/>
        <rect x="398" y="498.75" fill="rgb(173,165,140)" width="1" height="74.9375" stroke="none"/>
      </g>
    </g>
    <g id="y.node.34">
      <g fill="white" transform="matrix(0.9813,0,0,0.9813,11.7753,9.8127)" stroke="white">
        <rect width="74" x="310" height="41" y="517" stroke="none"/>
        <rect x="310" y="517" fill="none" width="74" height="41" stroke="black"/>
      </g>
      <g id="bla">
        <g font-family="sans-serif" transform="matrix(0.9813,0,0,0.9813,11.7753,9.8127)">
          <text xml:space="preserve" x="325.5" y="535.8887" stroke="none">ASTEP </text>
          <text xml:space="preserve" x="317" y="549.8574" stroke="none"> (xscorr.f)</text>
        </g>
      </g>
    </g>
    <g id="y.node.35">
      <g fill="white" transform="matrix(0.9813,0,0,0.9813,11.7753,9.8127)" stroke="white">
        <rect width="74" x="341" height="41" y="416" stroke="none"/>
        <rect x="341" y="416" fill="none" width="74" height="41" stroke="black"/>
      </g>
      <g id="bla">
        <g font-family="sans-serif" transform="matrix(0.9813,0,0,0.9813,11.7753,9.8127)">
          <text xml:space="preserve" x="352.25" y="434.9512" stroke="none">XSCORR </text>
          <text xml:space="preserve" x="348.25" y="448.9199" stroke="none"> (xscorr.f)</text>
        </g>
      </g>
    </g>
    <g id="y.node.32">
      <g fill="white" transform="matrix(0.9813,0,0,0.9813,11.7753,9.8127)" stroke="white">
        <rect width="70" x="219" height="41" y="275" stroke="none"/>
        <rect x="219" y="275" fill="none" width="70" height="41" stroke="black"/>
      </g>
      <g id="bla">
        <g font-family="sans-serif" transform="matrix(0.9813,0,0,0.9813,11.7753,9.8127)">
          <text xml:space="preserve" x="231.5" y="294.0137" stroke="none">FF2CHI </text>
          <text xml:space="preserve" x="226.5" y="307.9824" stroke="none"> (ff2chi.f)</text>
        </g>
      </g>
    </g>
    <g id="y.node.4">
      <g fill="rgb(248,236,201)" transform="matrix(0.9813,0,0,0.9813,11.7753,9.8127)" stroke="rgb(248,236,201)">
        <rect width="107" x="15" height="115.9375" y="100.9375" stroke="none"/>
      </g>
      <g id="bla">
        <g fill="rgb(64,64,64)" transform="matrix(0.9813,0,0,0.9813,11.7753,9.8127)" stroke="rgb(64,64,64)">
          <rect width="107" x="15" height="4" y="100.9375" stroke="none"/>
        </g>
      </g>
      <g fill="white" transform="matrix(0.9813,0,0,0.9813,11.7753,9.8127)" stroke="white">
        <rect width="1" x="15" height="115.9375" y="100.9375" stroke="none"/>
        <rect width="105" x="16" height="1" y="100.9375" stroke="none"/>
        <rect x="16" y="215.875" fill="rgb(173,165,140)" width="106" height="1" stroke="none"/>
        <rect x="121" y="100.9375" fill="rgb(173,165,140)" width="1" height="114.9375" stroke="none"/>
      </g>
    </g>
    <g id="y.node.30">
      <g fill="white" transform="matrix(0.9813,0,0,0.9813,11.7753,9.8127)" stroke="white">
        <rect width="77" x="30" height="41" y="119" stroke="none"/>
        <rect x="30" y="119" fill="none" width="77" height="41" stroke="black"/>
      </g>
      <g id="bla">
        <g font-family="sans-serif" transform="matrix(0.9813,0,0,0.9813,11.7753,9.8127)">
          <text xml:space="preserve" x="42.5" y="138.0762" stroke="none">FF2XMU </text>
          <text xml:space="preserve" x="37" y="152.0449" stroke="none"> (ff2xmu.f)</text>
        </g>
      </g>
    </g>
    <g id="y.node.5">
      <g fill="rgb(248,236,201)" transform="matrix(0.9813,0,0,0.9813,11.7753,9.8127)" stroke="rgb(248,236,201)">
        <rect width="101" x="143" height="75.9375" y="120.9375" stroke="none"/>
      </g>
      <g id="bla">
        <g fill="rgb(64,64,64)" transform="matrix(0.9813,0,0,0.9813,11.7753,9.8127)" stroke="rgb(64,64,64)">
          <rect width="101" x="143" height="4" y="120.9375" stroke="none"/>
        </g>
      </g>
      <g fill="white" transform="matrix(0.9813,0,0,0.9813,11.7753,9.8127)" stroke="white">
        <rect width="1" x="143" height="75.9375" y="120.9375" stroke="none"/>
        <rect width="99" x="144" height="1" y="120.9375" stroke="none"/>
        <rect x="144" y="195.875" fill="rgb(173,165,140)" width="100" height="1" stroke="none"/>
        <rect x="243" y="120.9375" fill="rgb(173,165,140)" width="1" height="74.9375" stroke="none"/>
      </g>
    </g>
    <g id="y.node.29">
      <g fill="white" transform="matrix(0.9813,0,0,0.9813,11.7753,9.8127)" stroke="white">
        <rect width="71" x="158" height="41" y="139" stroke="none"/>
        <rect x="158" y="139" fill="none" width="71" height="41" stroke="black"/>
      </g>
      <g id="bla">
        <g font-family="sans-serif" transform="matrix(0.9813,0,0,0.9813,11.7753,9.8127)">
          <text xml:space="preserve" x="169" y="158.0762" stroke="none">REFF2X </text>
          <text xml:space="preserve" x="165" y="172.0449" stroke="none"> (reff2x.f)</text>
        </g>
      </g>
    </g>
    <g id="y.node.2">
      <g fill="rgb(248,236,201)" transform="matrix(0.9813,0,0,0.9813,11.7753,9.8127)" stroke="rgb(248,236,201)">
        <rect width="1287" x="55.5804" height="387.8125" y="644.6875" stroke="none"/>
      </g>
      <g id="bla">
        <g fill="rgb(64,64,64)" transform="matrix(0.9813,0,0,0.9813,11.7753,9.8127)" stroke="rgb(64,64,64)">
          <rect width="1287" x="55.5804" height="4" y="644.6875" stroke="none"/>
        </g>
      </g>
      <g fill="white" transform="matrix(0.9813,0,0,0.9813,11.7753,9.8127)" stroke="white">
        <rect width="1" x="55.5804" height="387.8125" y="644.6875" stroke="none"/>
        <rect width="1285" x="56.5804" height="1" y="644.6875" stroke="none"/>
        <rect x="56.5804" y="1031.5" fill="rgb(173,165,140)" width="1286" height="1" stroke="none"/>
        <rect x="1341.5804" y="644.6875" fill="rgb(173,165,140)" width="1" height="386.8125" stroke="none"/>
      </g>
    </g>
    <g id="y.node.12">
      <g fill="rgb(248,236,201)" transform="matrix(0.9813,0,0,0.9813,11.7753,9.8127)" stroke="rgb(248,236,201)">
        <rect width="106" x="318.5804" height="115.9375" y="823.5938" stroke="none"/>
      </g>
      <g id="bla">
        <g fill="rgb(64,64,64)" transform="matrix(0.9813,0,0,0.9813,11.7753,9.8127)" stroke="rgb(64,64,64)">
          <rect width="106" x="318.5804" height="4" y="823.5938" stroke="none"/>
        </g>
      </g>
      <g fill="white" transform="matrix(0.9813,0,0,0.9813,11.7753,9.8127)" stroke="white">
        <rect width="1" x="318.5804" height="115.9375" y="823.5938" stroke="none"/>
        <rect width="104" x="319.5804" height="1" y="823.5938" stroke="none"/>
        <rect x="319.5804" y="938.5312" fill="rgb(173,165,140)" width="105" height="1" stroke="none"/>
        <rect x="423.5804" y="823.5938" fill="rgb(173,165,140)" width="1" height="114.9375" stroke="none"/>
      </g>
    </g>
    <g id="y.node.28">
      <g fill="white" transform="matrix(0.9813,0,0,0.9813,11.7753,9.8127)" stroke="white">
        <rect width="76" x="333" height="41" y="882" stroke="none"/>
        <rect x="333" y="882" fill="none" width="76" height="41" stroke="black"/>
      </g>
      <g id="bla">
        <g font-family="sans-serif" transform="matrix(0.9813,0,0,0.9813,11.7753,9.8127)">
          <text xml:space="preserve" x="343.0804" y="900.7324" stroke="none">WRHEAD </text>
          <text xml:space="preserve" x="340.5804" y="914.7012" stroke="none"> (ff2gen.f)</text>
        </g>
      </g>
    </g>
    <g id="y.node.11">
      <g fill="rgb(248,236,201)" transform="matrix(0.9813,0,0,0.9813,11.7753,9.8127)" stroke="rgb(248,236,201)">
        <rect width="106" x="192.5804" height="115.9375" y="823.5938" stroke="none"/>
      </g>
      <g id="bla">
        <g fill="rgb(64,64,64)" transform="matrix(0.9813,0,0,0.9813,11.7753,9.8127)" stroke="rgb(64,64,64)">
          <rect width="106" x="192.5804" height="4" y="823.5938" stroke="none"/>
        </g>
      </g>
      <g fill="white" transform="matrix(0.9813,0,0,0.9813,11.7753,9.8127)" stroke="white">
        <rect width="1" x="192.5804" height="115.9375" y="823.5938" stroke="none"/>
        <rect width="104" x="193.5804" height="1" y="823.5938" stroke="none"/>
        <rect x="193.5804" y="938.5312" fill="rgb(173,165,140)" width="105" height="1" stroke="none"/>
        <rect x="297.5804" y="823.5938" fill="rgb(173,165,140)" width="1" height="114.9375" stroke="none"/>
      </g>
    </g>
    <g id="y.node.27">
      <g fill="white" transform="matrix(0.9813,0,0,0.9813,11.7753,9.8127)" stroke="white">
        <rect width="76" x="207" height="41" y="882" stroke="none"/>
        <rect x="207" y="882" fill="none" width="76" height="41" stroke="black"/>
      </g>
      <g id="bla">
        <g font-family="sans-serif" transform="matrix(0.9813,0,0,0.9813,11.7753,9.8127)">
          <text xml:space="preserve" x="221.5804" y="900.7324" stroke="none">RDXBIN </text>
          <text xml:space="preserve" x="214.5804" y="914.7012" stroke="none"> (ff2gen.f)</text>
        </g>
      </g>
    </g>
    <g id="y.node.10">
      <g fill="rgb(248,236,201)" transform="matrix(0.9813,0,0,0.9813,11.7753,9.8127)" stroke="rgb(248,236,201)">
        <rect width="102" x="70.5804" height="115.9375" y="823.5938" stroke="none"/>
      </g>
      <g id="bla">
        <g fill="rgb(64,64,64)" transform="matrix(0.9813,0,0,0.9813,11.7753,9.8127)" stroke="rgb(64,64,64)">
          <rect width="102" x="70.5804" height="4" y="823.5938" stroke="none"/>
        </g>
      </g>
      <g fill="white" transform="matrix(0.9813,0,0,0.9813,11.7753,9.8127)" stroke="white">
        <rect width="1" x="70.5804" height="115.9375" y="823.5938" stroke="none"/>
        <rect width="100" x="71.5804" height="1" y="823.5938" stroke="none"/>
        <rect x="71.5804" y="938.5312" fill="rgb(173,165,140)" width="101" height="1" stroke="none"/>
        <rect x="171.5804" y="823.5938" fill="rgb(173,165,140)" width="1" height="114.9375" stroke="none"/>
      </g>
    </g>
    <g id="y.node.26">
      <g fill="white" transform="matrix(0.9813,0,0,0.9813,11.7753,9.8127)" stroke="white">
        <rect width="72" x="85" height="41" y="882" stroke="none"/>
        <rect x="85" y="882" fill="none" width="72" height="41" stroke="black"/>
      </g>
      <g id="bla">
        <g font-family="sans-serif" transform="matrix(0.9813,0,0,0.9813,11.7753,9.8127)">
          <text xml:space="preserve" x="97.5804" y="900.7324" stroke="none">RDFBIN </text>
          <text xml:space="preserve" x="92.5804" y="914.7012" stroke="none"> (rdfbin.f)</text>
        </g>
      </g>
    </g>
    <g id="y.node.9">
      <g fill="rgb(248,236,201)" transform="matrix(0.9813,0,0,0.9813,11.7753,9.8127)" stroke="rgb(248,236,201)">
        <rect width="509" x="818.5804" height="271.875" y="745.625" stroke="none"/>
      </g>
      <g id="bla">
        <g fill="rgb(64,64,64)" transform="matrix(0.9813,0,0,0.9813,11.7753,9.8127)" stroke="rgb(64,64,64)">
          <rect width="509" x="818.5804" height="4" y="745.625" stroke="none"/>
        </g>
      </g>
      <g fill="white" transform="matrix(0.9813,0,0,0.9813,11.7753,9.8127)" stroke="white">
        <rect width="1" x="818.5804" height="271.875" y="745.625" stroke="none"/>
        <rect width="507" x="819.5804" height="1" y="745.625" stroke="none"/>
        <rect x="819.5804" y="1016.5" fill="rgb(173,165,140)" width="508" height="1" stroke="none"/>
        <rect x="1326.5804" y="745.625" fill="rgb(173,165,140)" width="1" height="270.875" stroke="none"/>
      </g>
    </g>
    <g id="y.node.17">
      <g fill="rgb(248,236,201)" transform="matrix(0.9813,0,0,0.9813,11.7753,9.8127)" stroke="rgb(248,236,201)">
        <rect width="104" x="833.5804" height="115.9375" y="886.5625" stroke="none"/>
      </g>
      <g id="bla">
        <g fill="rgb(64,64,64)" transform="matrix(0.9813,0,0,0.9813,11.7753,9.8127)" stroke="rgb(64,64,64)">
          <rect width="104" x="833.5804" height="4" y="886.5625" stroke="none"/>
        </g>
      </g>
      <g fill="white" transform="matrix(0.9813,0,0,0.9813,11.7753,9.8127)" stroke="white">
        <rect width="1" x="833.5804" height="115.9375" y="886.5625" stroke="none"/>
        <rect width="102" x="834.5804" height="1" y="886.5625" stroke="none"/>
        <rect x="834.5804" y="1001.5" fill="rgb(173,165,140)" width="103" height="1" stroke="none"/>
        <rect x="936.5804" y="886.5625" fill="rgb(173,165,140)" width="1" height="114.9375" stroke="none"/>
      </g>
    </g>
    <g id="y.node.18">
      <g fill="white" transform="matrix(0.9813,0,0,0.9813,11.7753,9.8127)" stroke="white">
        <rect width="74" x="848" height="41" y="945" stroke="none"/>
        <rect x="848" y="945" fill="none" width="74" height="41" stroke="black"/>
      </g>
      <g id="bla">
        <g font-family="sans-serif" transform="matrix(0.9813,0,0,0.9813,11.7753,9.8127)">
          <text xml:space="preserve" x="859.0804" y="963.7012" stroke="none">LORENZ </text>
          <text xml:space="preserve" x="855.5804" y="977.6699" stroke="none"> (xscorr.f)</text>
        </g>
      </g>
    </g>
    <g id="y.node.19">
      <g fill="rgb(248,236,201)" transform="matrix(0.9813,0,0,0.9813,11.7753,9.8127)" stroke="rgb(248,236,201)">
        <rect width="105" x="957.5804" height="75.9375" y="906.5625" stroke="none"/>
      </g>
      <g id="bla">
        <g fill="rgb(64,64,64)" transform="matrix(0.9813,0,0,0.9813,11.7753,9.8127)" stroke="rgb(64,64,64)">
          <rect width="105" x="957.5804" height="4" y="906.5625" stroke="none"/>
        </g>
      </g>
      <g fill="white" transform="matrix(0.9813,0,0,0.9813,11.7753,9.8127)" stroke="white">
        <rect width="1" x="957.5804" height="75.9375" y="906.5625" stroke="none"/>
        <rect width="103" x="958.5804" height="1" y="906.5625" stroke="none"/>
        <rect x="958.5804" y="981.5" fill="rgb(173,165,140)" width="104" height="1" stroke="none"/>
        <rect x="1061.5804" y="906.5625" fill="rgb(173,165,140)" width="1" height="74.9375" stroke="none"/>
      </g>
    </g>
    <g id="y.node.20">
      <g fill="white" transform="matrix(0.9813,0,0,0.9813,11.7753,9.8127)" stroke="white">
        <rect width="75" x="972" height="41" y="925" stroke="none"/>
        <rect x="972" y="925" fill="none" width="75" height="41" stroke="black"/>
      </g>
      <g id="bla">
        <g font-family="sans-serif" transform="matrix(0.9813,0,0,0.9813,11.7753,9.8127)">
          <text xml:space="preserve" x="983.5804" y="943.7012" stroke="none">FUNLOG </text>
          <text xml:space="preserve" x="979.5804" y="957.6699" stroke="none"> (fprime.f)</text>
        </g>
      </g>
    </g>
    <g id="y.node.21">
      <g fill="rgb(248,236,201)" transform="matrix(0.9813,0,0,0.9813,11.7753,9.8127)" stroke="rgb(248,236,201)">
        <rect width="105" x="1082.5804" height="75.9375" y="906.5625" stroke="none"/>
      </g>
      <g id="bla">
        <g fill="rgb(64,64,64)" transform="matrix(0.9813,0,0,0.9813,11.7753,9.8127)" stroke="rgb(64,64,64)">
          <rect width="105" x="1082.5804" height="4" y="906.5625" stroke="none"/>
        </g>
      </g>
      <g fill="white" transform="matrix(0.9813,0,0,0.9813,11.7753,9.8127)" stroke="white">
        <rect width="1" x="1082.5804" height="75.9375" y="906.5625" stroke="none"/>
        <rect width="103" x="1083.5804" height="1" y="906.5625" stroke="none"/>
        <rect x="1083.5804" y="981.5" fill="rgb(173,165,140)" width="104" height="1" stroke="none"/>
        <rect x="1186.5804" y="906.5625" fill="rgb(173,165,140)" width="1" height="74.9375" stroke="none"/>
      </g>
    </g>
    <g id="y.node.22">
      <g fill="white" transform="matrix(0.9813,0,0,0.9813,11.7753,9.8127)" stroke="white">
        <rect width="75" x="1097" height="41" y="925" stroke="none"/>
        <rect x="1097" y="925" fill="none" width="75" height="41" stroke="black"/>
      </g>
      <g id="bla">
        <g font-family="sans-serif" transform="matrix(0.9813,0,0,0.9813,11.7753,9.8127)">
          <text xml:space="preserve" x="1112.0803" y="943.7012" stroke="none">FPINTP </text>
          <text xml:space="preserve" x="1104.5803" y="957.6699" stroke="none"> (fprime.f)</text>
        </g>
      </g>
    </g>
    <g id="y.node.23">
      <g fill="rgb(248,236,201)" transform="matrix(0.9813,0,0,0.9813,11.7753,9.8127)" stroke="rgb(248,236,201)">
        <rect width="105" x="1207.5804" height="75.9375" y="906.5625" stroke="none"/>
      </g>
      <g id="bla">
        <g fill="rgb(64,64,64)" transform="matrix(0.9813,0,0,0.9813,11.7753,9.8127)" stroke="rgb(64,64,64)">
          <rect width="105" x="1207.5804" height="4" y="906.5625" stroke="none"/>
        </g>
      </g>
      <g fill="white" transform="matrix(0.9813,0,0,0.9813,11.7753,9.8127)" stroke="white">
        <rect width="1" x="1207.5804" height="75.9375" y="906.5625" stroke="none"/>
        <rect width="103" x="1208.5804" height="1" y="906.5625" stroke="none"/>
        <rect x="1208.5804" y="981.5" fill="rgb(173,165,140)" width="104" height="1" stroke="none"/>
        <rect x="1311.5804" y="906.5625" fill="rgb(173,165,140)" width="1" height="74.9375" stroke="none"/>
      </g>
    </g>
    <g id="y.node.24">
      <g fill="white" transform="matrix(0.9813,0,0,0.9813,11.7753,9.8127)" stroke="white">
        <rect width="75" x="1222" height="41" y="925" stroke="none"/>
        <rect x="1222" y="925" fill="none" width="75" height="41" stroke="black"/>
      </g>
      <g id="bla">
        <g font-family="sans-serif" transform="matrix(0.9813,0,0,0.9813,11.7753,9.8127)">
          <text xml:space="preserve" x="1241.0803" y="943.7012" stroke="none">FPINT </text>
          <text xml:space="preserve" x="1229.5803" y="957.6699" stroke="none"> (fprime.f)</text>
        </g>
      </g>
    </g>
    <g id="y.node.25">
      <g fill="white" transform="matrix(0.9813,0,0,0.9813,11.7753,9.8127)" stroke="white">
        <rect width="75" x="1035" height="41" y="804" stroke="none"/>
        <rect x="1035" y="804" fill="none" width="75" height="41" stroke="black"/>
      </g>
      <g id="bla">
        <g font-family="sans-serif" transform="matrix(0.9813,0,0,0.9813,11.7753,9.8127)">
          <text xml:space="preserve" x="1048.5803" y="822.7637" stroke="none">FPRIME </text>
          <text xml:space="preserve" x="1042.0803" y="836.7324" stroke="none"> (fprime.f)</text>
        </g>
      </g>
    </g>
    <g id="y.node.8">
      <g fill="rgb(248,236,201)" transform="matrix(0.9813,0,0,0.9813,11.7753,9.8127)" stroke="rgb(248,236,201)">
        <rect width="99" x="699.5804" height="115.9375" y="823.5938" stroke="none"/>
      </g>
      <g id="bla">
        <g fill="rgb(64,64,64)" transform="matrix(0.9813,0,0,0.9813,11.7753,9.8127)" stroke="rgb(64,64,64)">
          <rect width="99" x="699.5804" height="4" y="823.5938" stroke="none"/>
        </g>
      </g>
      <g fill="white" transform="matrix(0.9813,0,0,0.9813,11.7753,9.8127)" stroke="white">
        <rect width="1" x="699.5804" height="115.9375" y="823.5938" stroke="none"/>
        <rect width="97" x="700.5804" height="1" y="823.5938" stroke="none"/>
        <rect x="700.5804" y="938.5312" fill="rgb(173,165,140)" width="98" height="1" stroke="none"/>
        <rect x="797.5804" y="823.5938" fill="rgb(173,165,140)" width="1" height="114.9375" stroke="none"/>
      </g>
    </g>
    <g id="y.node.16">
      <g fill="white" transform="matrix(0.9813,0,0,0.9813,11.7753,9.8127)" stroke="white">
        <rect width="69" x="714" height="41" y="882" stroke="none"/>
        <rect x="714" y="882" fill="none" width="69" height="41" stroke="black"/>
      </g>
      <g id="bla">
        <g font-family="sans-serif" transform="matrix(0.9813,0,0,0.9813,11.7753,9.8127)">
          <text xml:space="preserve" x="724.5804" y="900.7324" stroke="none">FEFFDT </text>
          <text xml:space="preserve" x="721.5804" y="914.7012" stroke="none"> (feffdt.f)</text>
        </g>
      </g>
    </g>
    <g id="y.node.7">
      <g fill="rgb(248,236,201)" transform="matrix(0.9813,0,0,0.9813,11.7753,9.8127)" stroke="rgb(248,236,201)">
        <rect width="109" x="570.5804" height="115.9375" y="823.5938" stroke="none"/>
      </g>
      <g id="bla">
        <g fill="rgb(64,64,64)" transform="matrix(0.9813,0,0,0.9813,11.7753,9.8127)" stroke="rgb(64,64,64)">
          <rect width="109" x="570.5804" height="4" y="823.5938" stroke="none"/>
        </g>
      </g>
      <g fill="white" transform="matrix(0.9813,0,0,0.9813,11.7753,9.8127)" stroke="white">
        <rect width="1" x="570.5804" height="115.9375" y="823.5938" stroke="none"/>
        <rect width="107" x="571.5804" height="1" y="823.5938" stroke="none"/>
        <rect x="571.5804" y="938.5312" fill="rgb(173,165,140)" width="108" height="1" stroke="none"/>
        <rect x="678.5804" y="823.5938" fill="rgb(173,165,140)" width="1" height="114.9375" stroke="none"/>
      </g>
    </g>
    <g id="y.node.15">
      <g fill="white" transform="matrix(0.9813,0,0,0.9813,11.7753,9.8127)" stroke="white">
        <rect width="79" x="585" height="41" y="882" stroke="none"/>
        <rect x="585" y="882" fill="none" width="79" height="41" stroke="black"/>
      </g>
      <g id="bla">
        <g font-family="sans-serif" transform="matrix(0.9813,0,0,0.9813,11.7753,9.8127)">
          <text xml:space="preserve" x="598.5804" y="900.7324" stroke="none">EXCONV </text>
          <text xml:space="preserve" x="592.5804" y="914.7012" stroke="none"> (exconv.f)</text>
        </g>
      </g>
    </g>
    <g id="y.node.6">
      <g fill="rgb(248,236,201)" transform="matrix(0.9813,0,0,0.9813,11.7753,9.8127)" stroke="rgb(248,236,201)">
        <rect width="106" x="444.5804" height="115.9375" y="823.5938" stroke="none"/>
      </g>
      <g id="bla">
        <g fill="rgb(64,64,64)" transform="matrix(0.9813,0,0,0.9813,11.7753,9.8127)" stroke="rgb(64,64,64)">
          <rect width="106" x="444.5804" height="4" y="823.5938" stroke="none"/>
        </g>
      </g>
      <g fill="white" transform="matrix(0.9813,0,0,0.9813,11.7753,9.8127)" stroke="white">
        <rect width="1" x="444.5804" height="115.9375" y="823.5938" stroke="none"/>
        <rect width="104" x="445.5804" height="1" y="823.5938" stroke="none"/>
        <rect x="445.5804" y="938.5312" fill="rgb(173,165,140)" width="105" height="1" stroke="none"/>
        <rect x="549.5804" y="823.5938" fill="rgb(173,165,140)" width="1" height="114.9375" stroke="none"/>
      </g>
    </g>
    <g id="y.node.14">
      <g fill="white" transform="matrix(0.9813,0,0,0.9813,11.7753,9.8127)" stroke="white">
        <rect width="76" x="459" height="41" y="882" stroke="none"/>
        <rect x="459" y="882" fill="none" width="76" height="41" stroke="black"/>
      </g>
      <g id="bla">
        <g font-family="sans-serif" transform="matrix(0.9813,0,0,0.9813,11.7753,9.8127)">
          <text xml:space="preserve" x="472.5804" y="900.7324" stroke="none">DWADD </text>
          <text xml:space="preserve" x="466.5804" y="914.7012" stroke="none"> (ff2gen.f)</text>
        </g>
      </g>
    </g>
    <g id="y.node.13">
      <g fill="white" transform="matrix(0.9813,0,0,0.9813,11.7753,9.8127)" stroke="white">
        <rect width="71" x="470" height="41" y="663" stroke="none"/>
        <rect x="470" y="663" fill="none" width="71" height="41" stroke="black"/>
      </g>
      <g id="bla">
        <g font-family="sans-serif" transform="matrix(0.9813,0,0,0.9813,11.7753,9.8127)">
          <text xml:space="preserve" x="481.702" y="681.8262" stroke="none">FF2AFS </text>
          <text xml:space="preserve" x="477.702" y="695.7949" stroke="none"> (ff2afs.f)</text>
        </g>
      </g>
    </g>
    <g id="y.node.1">
      <g fill="white" transform="matrix(0.9813,0,0,0.9813,11.7753,9.8127)" stroke="white">
        <rect width="79" x="134" height="41" y="19" stroke="none"/>
        <rect x="134" y="19" fill="none" width="79" height="41" stroke="black"/>
      </g>
      <g id="bla">
        <g font-family="sans-serif" transform="matrix(0.9813,0,0,0.9813,11.7753,9.8127)">
          <text xml:space="preserve" x="146.9744" y="37.1387" stroke="none">FFMOD6 </text>
          <text xml:space="preserve" x="141.4744" y="51.1074" stroke="none"> (ffmod6.f)</text>
        </g>
      </g>
    </g>
    <g id="y.edge.0">
      <g stroke-miterlimit="1.45" transform="matrix(0.9813,0,0,0.9813,11.7753,9.8127)" stroke-linecap="butt">
        <path fill="none" d="M164.0686 60.9766 L132.5 100.9375 L132.5 604.6875 L506.202 644.6875 L506.202 655.6504"/>
        <path d="M506.202 663.6504 L511.202 651.6504 L506.202 654.6504 L501.202 651.6504 Z" stroke="none"/>
      </g>
    </g>
    <g id="y.edge.1">
      <g stroke-miterlimit="1.45" transform="matrix(0.9813,0,0,0.9813,11.7753,9.8127)" stroke-linecap="butt">
        <path fill="none" d="M203.6243 60.957 L254.5 100.9375 L254.5 267.8323"/>
        <path d="M254.5 275.8323 L259.5 263.8323 L254.5 266.8323 L249.5 263.8323 Z" stroke="none"/>
      </g>
    </g>
    <g id="y.edge.2">
      <g stroke-miterlimit="1.45" transform="matrix(0.9813,0,0,0.9813,11.7753,9.8127)" stroke-linecap="butt">
        <path fill="none" d="M144.3124 60.957 L68.5 100.9375 L68.5 111.9004"/>
        <path d="M68.5 119.9004 L73.5 107.9004 L68.5 110.9004 L63.5 107.9004 Z" stroke="none"/>
      </g>
    </g>
    <g id="y.edge.3">
      <g stroke-miterlimit="1.45" transform="matrix(0.9813,0,0,0.9813,11.7753,9.8127)" stroke-linecap="butt">
        <path fill="none" d="M183.8588 60.9766 L193.5 100.9375 L193.5 131.8994"/>
        <path d="M193.5 139.8994 L198.5 127.8994 L193.5 130.8994 L188.5 127.8994 Z" stroke="none"/>
      </g>
    </g>
    <g id="y.edge.4">
      <g stroke-miterlimit="1.45" transform="matrix(0.9813,0,0,0.9813,11.7753,9.8127)" stroke-linecap="butt">
        <path fill="none" d="M57.501 161.9141 L58.5 201.875 L58.5 604.6875 L363.9317 644.6875 L363.9317 705.625 L361.5804 745.625 L361.5804 842.5938 L349.1255 875.0847"/>
        <path d="M346.262 882.5547 L355.226 873.1394 L349.4834 874.151 L345.8885 869.5601 Z" stroke="none"/>
      </g>
    </g>
    <g id="y.edge.5">
      <g stroke-miterlimit="1.45" transform="matrix(0.9813,0,0,0.9813,11.7753,9.8127)" stroke-linecap="butt">
        <path fill="none" d="M101.4971 161.9141 L98.5 201.875 L98.5 216.875 L373.5 256.875 L373.5 275.875 L373.25 376.8125 L362.3214 409.1935"/>
        <path d="M359.7632 416.7734 L368.338 407.0024 L362.6412 408.246 L358.8631 403.8046 Z" stroke="none"/>
      </g>
    </g>
    <g id="y.edge.6">
      <g stroke-miterlimit="1.45" transform="matrix(0.9813,0,0,0.9813,11.7753,9.8127)" stroke-linecap="butt">
        <path fill="none" d="M241.3732 317.8516 L239.5 357.8125 L239.5 604.6875 L377.0804 644.6875 L377.0804 705.625 L381.5804 745.625 L381.5804 842.5938 L394.0352 875.0847"/>
        <path d="M396.8987 882.5547 L397.2722 869.5601 L393.6773 874.151 L387.9348 873.1394 Z" stroke="none"/>
      </g>
    </g>
    <g id="y.edge.7">
      <g stroke-miterlimit="1.45" transform="matrix(0.9813,0,0,0.9813,11.7753,9.8127)" stroke-linecap="butt">
        <path fill="none" d="M68.5 161.902 L68.5 604.6875 L430.702 644.6875 L430.702 705.625 L487.5804 745.625 L487.5804 842.5938 L475.1255 875.0847"/>
        <path d="M472.262 882.5547 L481.226 873.1394 L475.4834 874.151 L471.8885 869.5601 Z" stroke="none"/>
      </g>
    </g>
    <g id="y.edge.8">
      <g stroke-miterlimit="1.45" transform="matrix(0.9813,0,0,0.9813,11.7753,9.8127)" stroke-linecap="butt">
        <path fill="none" d="M79.499 161.9141 L78.5 201.875 L78.5 216.875 L156.3304 256.875 L156.3304 604.6875 L619.0939 644.6875 L619.0939 705.625 L615.0804 745.625 L615.0804 842.5938 L601.7872 875.1484"/>
        <path d="M598.763 882.5547 L607.9283 873.3353 L602.1653 874.2225 L598.6704 869.555 Z" stroke="none"/>
      </g>
    </g>
    <g id="y.edge.9">
      <g stroke-miterlimit="1.45" transform="matrix(0.9813,0,0,0.9813,11.7753,9.8127)" stroke-linecap="butt">
        <path fill="none" d="M90.498 161.9141 L88.5 201.875 L88.5 216.875 L166.3304 256.875 L166.3304 604.6875 L743.0939 644.6875 L743.0939 705.625 L739.0804 745.625 L739.0804 842.5938 L728.5657 874.9464"/>
        <path d="M726.093 882.5547 L734.5573 872.6877 L728.8748 873.9954 L725.0469 869.5969 Z" stroke="none"/>
      </g>
    </g>
    <g id="y.edge.10">
      <g stroke-miterlimit="1.45" transform="matrix(0.9813,0,0,0.9813,11.7753,9.8127)" stroke-linecap="butt">
        <path fill="none" d="M35.5029 161.9141 L38.5 201.875 L38.5 604.6875 L116.0804 644.6875 L116.0804 705.625 L111.5804 745.625 L111.5804 842.5938 L100.2368 875.0038"/>
        <path d="M97.594 882.5547 L106.2775 872.8801 L100.5672 874.0599 L96.8389 869.5767 Z" stroke="none"/>
      </g>
    </g>
    <g id="y.edge.11">
      <g stroke-miterlimit="1.45" transform="matrix(0.9813,0,0,0.9813,11.7753,9.8127)" stroke-linecap="butt">
        <path fill="none" d="M46.502 161.9141 L48.5 201.875 L48.5 604.6875 L237.9317 644.6875 L237.9317 705.625 L235.5804 745.625 L235.5804 842.5938 L223.1255 875.0847"/>
        <path d="M220.262 882.5547 L229.226 873.1394 L223.4834 874.151 L219.8885 869.5601 Z" stroke="none"/>
      </g>
    </g>
    <g id="y.edge.12">
      <g stroke-miterlimit="1.45" transform="matrix(0.9813,0,0,0.9813,11.7753,9.8127)" stroke-linecap="butt">
        <path fill="none" d="M250.1249 317.8457 L249.5 589.6875 L249.5 604.6875 L576.3641 644.6875 L576.3641 705.625 L507.5804 745.625 L507.5804 842.5938 L520.0352 875.0847"/>
        <path d="M522.8987 882.5547 L523.2722 869.5601 L519.6772 874.151 L513.9347 873.1394 Z" stroke="none"/>
      </g>
    </g>
    <g id="y.edge.13">
      <g stroke-miterlimit="1.45" transform="matrix(0.9813,0,0,0.9813,11.7753,9.8127)" stroke-linecap="butt">
        <path fill="none" d="M258.8751 317.8457 L259.5 589.6875 L259.5 604.6875 L640.8641 644.6875 L640.8641 705.625 L635.0804 745.625 L635.0804 842.5938 L648.3735 875.1484"/>
        <path d="M651.3977 882.5547 L651.4903 869.5551 L647.9954 874.2226 L642.2324 873.3354 Z" stroke="none"/>
      </g>
    </g>
    <g id="y.edge.14">
      <g stroke-miterlimit="1.45" transform="matrix(0.9813,0,0,0.9813,11.7753,9.8127)" stroke-linecap="butt">
        <path fill="none" d="M267.6268 317.8516 L269.5 357.8125 L269.5 604.6875 L764.8641 644.6875 L764.8641 705.625 L759.0804 745.625 L759.0804 842.5938 L769.595 874.9464"/>
        <path d="M772.0676 882.5547 L773.1138 869.5969 L769.2859 873.9954 L763.6035 872.6877 Z" stroke="none"/>
      </g>
    </g>
    <g id="y.edge.15">
      <g stroke-miterlimit="1.45" transform="matrix(0.9813,0,0,0.9813,11.7753,9.8127)" stroke-linecap="butt">
        <path fill="none" d="M285.163 317.8223 L440.75 357.8125 L440.75 604.6875 L906.3641 644.6875 L906.3641 705.625 L1077.5803 745.625 L1077.5803 764.625 L1088.7163 797.0204"/>
        <path d="M1091.317 804.5859 L1092.1445 791.6123 L1088.3912 796.0748 L1082.6876 794.8631 Z" stroke="none"/>
      </g>
    </g>
    <g id="y.edge.16">
      <g stroke-miterlimit="1.45" transform="matrix(0.9813,0,0,0.9813,11.7753,9.8127)" stroke-linecap="butt">
        <path fill="none" d="M223.8707 317.8516 L219.5 357.8125 L219.5 604.6875 L127.0804 644.6875 L127.0804 705.625 L131.5804 745.625 L131.5804 842.5938 L142.9239 875.0038"/>
        <path d="M145.5667 882.5547 L146.3218 869.5767 L142.5935 874.0599 L136.8832 872.8801 Z" stroke="none"/>
      </g>
    </g>
    <g id="y.edge.17">
      <g stroke-miterlimit="1.45" transform="matrix(0.9813,0,0,0.9813,11.7753,9.8127)" stroke-linecap="butt">
        <path fill="none" d="M232.6219 317.8516 L229.5 357.8125 L229.5 604.6875 L251.0804 644.6875 L251.0804 705.625 L255.5804 745.625 L255.5804 842.5938 L268.0352 875.0847"/>
        <path d="M270.8987 882.5547 L271.2722 869.5601 L267.6773 874.151 L261.9348 873.1394 Z" stroke="none"/>
      </g>
    </g>
    <g id="y.edge.18">
      <g stroke-miterlimit="1.45" transform="matrix(0.9813,0,0,0.9813,11.7753,9.8127)" stroke-linecap="butt">
        <path fill="none" d="M396.7625 458.7891 L409.5 498.75 L409.5 604.6875 L895.3641 644.6875 L895.3641 705.625 L880.5804 745.625 L880.5804 905.5625 L869.6518 937.9435"/>
        <path d="M867.0936 945.5234 L875.6684 935.7524 L869.9716 936.996 L866.1935 932.5546 Z" stroke="none"/>
      </g>
    </g>
    <g id="y.edge.19">
      <g stroke-miterlimit="1.45" transform="matrix(0.9813,0,0,0.9813,11.7753,9.8127)" stroke-linecap="butt">
        <path fill="none" d="M536.663 705.6274 L1067.5803 745.625 L1067.5803 764.625 L1056.4445 797.0204"/>
        <path d="M1053.8439 804.5859 L1062.4733 794.8631 L1056.7695 796.0748 L1053.0164 791.6123 Z" stroke="none"/>
      </g>
    </g>
    <g id="y.edge.20">
      <g stroke-miterlimit="1.45" transform="matrix(0.9813,0,0,0.9813,11.7753,9.8127)" stroke-linecap="butt">
        <path fill="none" d="M516.3714 705.6348 L625.0804 745.625 L625.0804 874.5603"/>
        <path d="M625.0804 882.5603 L630.0804 870.5603 L625.0804 873.5603 L620.0804 870.5603 Z" stroke="none"/>
      </g>
    </g>
    <g id="y.edge.21">
      <g stroke-miterlimit="1.45" transform="matrix(0.9813,0,0,0.9813,11.7753,9.8127)" stroke-linecap="butt">
        <path fill="none" d="M526.5149 705.6299 L749.0804 745.625 L749.0804 874.5603"/>
        <path d="M749.0804 882.5603 L754.0804 870.5603 L749.0804 873.5603 L744.0804 870.5603 Z" stroke="none"/>
      </g>
    </g>
    <g id="y.edge.22">
      <g stroke-miterlimit="1.45" transform="matrix(0.9813,0,0,0.9813,11.7753,9.8127)" stroke-linecap="butt">
        <path fill="none" d="M496.0287 705.6348 L371.5804 745.625 L371.5804 874.5603"/>
        <path d="M371.5804 882.5603 L376.5804 870.5603 L371.5804 873.5603 L366.5804 870.5603 Z" stroke="none"/>
      </g>
    </g>
    <g id="y.edge.23">
      <g stroke-miterlimit="1.45" transform="matrix(0.9813,0,0,0.9813,11.7753,9.8127)" stroke-linecap="butt">
        <path fill="none" d="M506.1936 705.6641 L497.5804 745.625 L497.5804 874.5603"/>
        <path d="M497.5804 882.5603 L502.5804 870.5603 L497.5804 873.5603 L492.5804 870.5603 Z" stroke="none"/>
      </g>
    </g>
    <g id="y.edge.24">
      <g stroke-miterlimit="1.45" transform="matrix(0.9813,0,0,0.9813,11.7753,9.8127)" stroke-linecap="butt">
        <path fill="none" d="M485.8869 705.6299 L245.5804 745.625 L245.5804 874.5603"/>
        <path d="M245.5804 882.5603 L250.5804 870.5603 L245.5804 873.5603 L240.5804 870.5603 Z" stroke="none"/>
      </g>
    </g>
    <g id="y.edge.25">
      <g stroke-miterlimit="1.45" transform="matrix(0.9813,0,0,0.9813,11.7753,9.8127)" stroke-linecap="butt">
        <path fill="none" d="M475.7302 705.6299 L121.5804 745.625 L121.5804 874.5603"/>
        <path d="M121.5804 882.5603 L126.5804 870.5603 L121.5804 873.5603 L116.5804 870.5603 Z" stroke="none"/>
      </g>
    </g>
    <g id="y.edge.26">
      <g stroke-miterlimit="1.45" transform="matrix(0.9813,0,0,0.9813,11.7753,9.8127)" stroke-linecap="butt">
        <path fill="none" d="M1081.9813 846.582 L1135.0803 886.5625 L1135.0803 917.5244"/>
        <path d="M1135.0803 925.5244 L1140.0803 913.5244 L1135.0803 916.5244 L1130.0803 913.5244 Z" stroke="none"/>
      </g>
    </g>
    <g id="y.edge.27">
      <g stroke-miterlimit="1.45" transform="matrix(0.9813,0,0,0.9813,11.7753,9.8127)" stroke-linecap="butt">
        <path fill="none" d="M1044.4178 846.5723 L890.5804 886.5625 L890.5804 905.5625 L901.509 937.9435"/>
        <path d="M904.0672 945.5234 L904.9673 932.5546 L901.1892 936.996 L895.4924 935.7524 Z" stroke="none"/>
      </g>
    </g>
    <g id="y.edge.28">
      <g stroke-miterlimit="1.45" transform="matrix(0.9813,0,0,0.9813,11.7753,9.8127)" stroke-linecap="butt">
        <path fill="none" d="M1100.7443 846.5723 L1260.0803 886.5625 L1260.0803 917.5244"/>
        <path d="M1260.0803 925.5244 L1265.0803 913.5244 L1260.0803 916.5244 L1255.0803 913.5244 Z" stroke="none"/>
      </g>
    </g>
    <g id="y.edge.29">
      <g stroke-miterlimit="1.45" transform="matrix(0.9813,0,0,0.9813,11.7753,9.8127)" stroke-linecap="butt">
        <path fill="none" d="M1063.1794 846.582 L1010.0804 886.5625 L1010.0804 917.5244"/>
        <path d="M1010.0804 925.5244 L1015.0804 913.5244 L1010.0804 916.5244 L1005.0804 913.5244 Z" stroke="none"/>
      </g>
    </g>
    <g id="y.edge.30">
      <g stroke-miterlimit="1.45" transform="matrix(0.9813,0,0,0.9813,11.7753,9.8127)" stroke-linecap="butt">
        <path fill="none" d="M276.4011 317.8223 L383.25 357.8125 L383.25 376.8125 L394.1786 409.1935"/>
        <path d="M396.7368 416.7734 L397.6369 403.8046 L393.8588 408.246 L388.162 407.0024 Z" stroke="none"/>
      </g>
    </g>
    <g id="y.edge.31">
      <g stroke-miterlimit="1.45" transform="matrix(0.9813,0,0,0.9813,11.7753,9.8127)" stroke-linecap="butt">
        <path fill="none" d="M359.7375 458.7891 L347 498.75 L347 509.7129"/>
        <path d="M347 517.7129 L352 505.7129 L347 508.7129 L342 505.7129 Z" stroke="none"/>
      </g>
    </g>
  </g>
</svg>
