<?xml version="1.0" encoding="UTF-8"?><svg xmlns="http://www.w3.org/2000/svg" xmlns:xlink="http://www.w3.org/1999/xlink" fill-opacity="1" color-rendering="auto" color-interpolation="auto" stroke="black" text-rendering="auto" stroke-linecap="square" width="1048" stroke-miterlimit="10" stroke-opacity="1" shape-rendering="auto" fill="black" stroke-dasharray="none" font-weight="normal" stroke-width="1" height="741" font-family="'Dialog'" font-style="normal" stroke-linejoin="miter" font-size="12" stroke-dashoffset="0" image-rendering="auto">
  <!--Generated by ySVG-->
  <defs id="genericDefs"/>
  <g>
    <defs id="defs1">
      <clipPath clipPathUnits="userSpaceOnUse" id="clipPath1">
        <path d="M0 0 L1048 0 L1048 741 L0 741 L0 0 Z"/>
      </clipPath>
    </defs>
    <g id="y.node.0">
      <g fill="rgb(248,236,201)" transform="matrix(0.9737,0,0,0.9737,13.6321,9.7372)" stroke="rgb(248,236,201)">
        <rect width="184" x="864" height="423.75" y="0" stroke="none"/>
      </g>
      <g id="bla">
        <g fill="rgb(64,64,64)" transform="matrix(0.9737,0,0,0.9737,13.6321,9.7372)" stroke="rgb(64,64,64)">
          <rect width="184" x="864" height="4" y="0" stroke="none"/>
        </g>
      </g>
      <g fill="white" transform="matrix(0.9737,0,0,0.9737,13.6321,9.7372)" stroke="white">
        <rect width="1" x="864" height="423.75" y="0" stroke="none"/>
      </g>
      <g fill="white" transform="matrix(0.9737,0,0,0.9737,13.6321,9.7372)" stroke="white">
        <rect width="182" x="865" height="1" y="0" stroke="none"/>
        <rect x="865" y="422.75" fill="rgb(173,165,140)" width="183" height="1" stroke="none"/>
        <rect x="1047" y="0" fill="rgb(173,165,140)" width="1" height="422.75" stroke="none"/>
      </g>
    </g>
    <g id="y.node.2">
      <g fill="rgb(248,236,201)" transform="matrix(0.9737,0,0,0.9737,13.6321,9.7372)" stroke="rgb(248,236,201)">
        <rect width="154" x="879" height="307.8125" y="100.9375" stroke="none"/>
      </g>
      <g id="bla">
        <g fill="rgb(64,64,64)" transform="matrix(0.9737,0,0,0.9737,13.6321,9.7372)" stroke="rgb(64,64,64)">
          <rect width="154" x="879" height="4" y="100.9375" stroke="none"/>
        </g>
      </g>
      <g fill="white" transform="matrix(0.9737,0,0,0.9737,13.6321,9.7372)" stroke="white">
        <rect width="1" x="879" height="307.8125" y="100.9375" stroke="none"/>
        <rect width="152" x="880" height="1" y="100.9375" stroke="none"/>
        <rect x="880" y="407.75" fill="rgb(173,165,140)" width="153" height="1" stroke="none"/>
        <rect x="1032" y="100.9375" fill="rgb(173,165,140)" width="1" height="306.8125" stroke="none"/>
      </g>
    </g>
    <g id="y.node.4">
      <g fill="rgb(248,236,201)" transform="matrix(0.9737,0,0,0.9737,13.6321,9.7372)" stroke="rgb(248,236,201)">
        <rect width="124" x="894" height="191.875" y="201.875" stroke="none"/>
      </g>
      <g id="bla">
        <g fill="rgb(64,64,64)" transform="matrix(0.9737,0,0,0.9737,13.6321,9.7372)" stroke="rgb(64,64,64)">
          <rect width="124" x="894" height="4" y="201.875" stroke="none"/>
        </g>
      </g>
      <g fill="white" transform="matrix(0.9737,0,0,0.9737,13.6321,9.7372)" stroke="white">
        <rect width="1" x="894" height="191.875" y="201.875" stroke="none"/>
        <rect width="122" x="895" height="1" y="201.875" stroke="none"/>
        <rect x="895" y="392.75" fill="rgb(173,165,140)" width="123" height="1" stroke="none"/>
        <rect x="1017" y="201.875" fill="rgb(173,165,140)" width="1" height="190.875" stroke="none"/>
      </g>
    </g>
    <g id="y.node.6">
      <g fill="rgb(248,236,201)" transform="matrix(0.9737,0,0,0.9737,13.6321,9.7372)" stroke="rgb(248,236,201)">
        <rect width="94" x="909" height="75.9375" y="302.8125" stroke="none"/>
      </g>
      <g id="bla">
        <g fill="rgb(64,64,64)" transform="matrix(0.9737,0,0,0.9737,13.6321,9.7372)" stroke="rgb(64,64,64)">
          <rect width="94" x="909" height="4" y="302.8125" stroke="none"/>
        </g>
      </g>
      <g fill="white" transform="matrix(0.9737,0,0,0.9737,13.6321,9.7372)" stroke="white">
        <rect width="1" x="909" height="75.9375" y="302.8125" stroke="none"/>
        <rect width="92" x="910" height="1" y="302.8125" stroke="none"/>
        <rect x="910" y="377.75" fill="rgb(173,165,140)" width="93" height="1" stroke="none"/>
        <rect x="1002" y="302.8125" fill="rgb(173,165,140)" width="1" height="74.9375" stroke="none"/>
      </g>
    </g>
    <g id="y.node.7">
      <g fill="white" transform="matrix(0.9737,0,0,0.9737,13.6321,9.7372)" stroke="white">
        <rect width="64" x="924" height="41" y="321" stroke="none"/>
        <rect x="924" y="321" fill="none" width="64" height="41" stroke="black"/>
      </g>
      <g id="bla">
        <g font-family="sans-serif" transform="matrix(0.9737,0,0,0.9737,13.6321,9.7372)">
          <text xml:space="preserve" x="942" y="339.9512" stroke="none">FN2 </text>
          <text xml:space="preserve" x="931" y="353.9199" stroke="none"> (sigcl.f)</text>
        </g>
      </g>
    </g>
    <g id="y.node.5">
      <g fill="white" transform="matrix(0.9737,0,0,0.9737,13.6321,9.7372)" stroke="white">
        <rect width="70" x="921" height="41" y="220" stroke="none"/>
        <rect x="921" y="220" fill="none" width="70" height="41" stroke="black"/>
      </g>
      <g id="bla">
        <g font-family="sans-serif" transform="matrix(0.9737,0,0,0.9737,13.6321,9.7372)">
          <text xml:space="preserve" x="928" y="239.0137" stroke="none">BINGRT2 </text>
          <text xml:space="preserve" x="931" y="252.9824" stroke="none"> (sigcl.f)</text>
        </g>
      </g>
    </g>
    <g id="y.node.3">
      <g fill="white" transform="matrix(0.9737,0,0,0.9737,13.6321,9.7372)" stroke="white">
        <rect width="75" x="918" height="41" y="119" stroke="none"/>
        <rect x="918" y="119" fill="none" width="75" height="41" stroke="black"/>
      </g>
      <g id="bla">
        <g font-family="sans-serif" transform="matrix(0.9737,0,0,0.9737,13.6321,9.7372)">
          <text xml:space="preserve" x="925.5" y="138.0762" stroke="none">CORRFN2 </text>
          <text xml:space="preserve" x="931" y="152.0449" stroke="none"> (sigcl.f)</text>
        </g>
      </g>
    </g>
    <g id="y.node.1">
      <g fill="white" transform="matrix(0.9737,0,0,0.9737,13.6321,9.7372)" stroke="white">
        <rect width="64" x="924" height="41" y="19" stroke="none"/>
        <rect x="924" y="19" fill="none" width="64" height="41" stroke="black"/>
      </g>
      <g id="bla">
        <g font-family="sans-serif" transform="matrix(0.9737,0,0,0.9737,13.6321,9.7372)">
          <text xml:space="preserve" x="937" y="37.1387" stroke="none">SIGCL </text>
          <text xml:space="preserve" x="931" y="51.1074" stroke="none"> (sigcl.f)</text>
        </g>
      </g>
    </g>
    <g id="y.node.8">
      <g fill="rgb(248,236,201)" transform="matrix(0.9737,0,0,0.9737,13.6321,9.7372)" stroke="rgb(248,236,201)">
        <rect width="103" x="150" height="75.9375" y="664.6875" stroke="none"/>
      </g>
      <g id="bla">
        <g fill="rgb(64,64,64)" transform="matrix(0.9737,0,0,0.9737,13.6321,9.7372)" stroke="rgb(64,64,64)">
          <rect width="103" x="150" height="4" y="664.6875" stroke="none"/>
        </g>
      </g>
      <g fill="white" transform="matrix(0.9737,0,0,0.9737,13.6321,9.7372)" stroke="white">
        <rect width="1" x="150" height="75.9375" y="664.6875" stroke="none"/>
        <rect width="101" x="151" height="1" y="664.6875" stroke="none"/>
        <rect x="151" y="739.625" fill="rgb(173,165,140)" width="102" height="1" stroke="none"/>
        <rect x="252" y="664.6875" fill="rgb(173,165,140)" width="1" height="74.9375" stroke="none"/>
      </g>
    </g>
    <g id="y.node.9">
      <g fill="white" transform="matrix(0.9737,0,0,0.9737,13.6321,9.7372)" stroke="white">
        <rect width="73" x="165" height="41" y="683" stroke="none"/>
        <rect x="165" y="683" fill="none" width="73" height="41" stroke="black"/>
      </g>
      <g id="bla">
        <g font-family="sans-serif" transform="matrix(0.9737,0,0,0.9737,13.6321,9.7372)">
          <text xml:space="preserve" x="180.5" y="701.8262" stroke="none">SIGM3 </text>
          <text xml:space="preserve" x="172" y="715.7949" stroke="none"> (sigm3.f)</text>
        </g>
      </g>
    </g>
    <g id="y.node.10">
      <g fill="rgb(248,236,201)" transform="matrix(0.9737,0,0,0.9737,13.6321,9.7372)" stroke="rgb(248,236,201)">
        <rect width="192" x="627" height="423.75" y="0" stroke="none"/>
      </g>
      <g id="bla">
        <g fill="rgb(64,64,64)" transform="matrix(0.9737,0,0,0.9737,13.6321,9.7372)" stroke="rgb(64,64,64)">
          <rect width="192" x="627" height="4" y="0" stroke="none"/>
        </g>
      </g>
      <g fill="white" transform="matrix(0.9737,0,0,0.9737,13.6321,9.7372)" stroke="white">
        <rect width="1" x="627" height="423.75" y="0" stroke="none"/>
        <rect width="190" x="628" height="1" y="0" stroke="none"/>
        <rect x="628" y="422.75" fill="rgb(173,165,140)" width="191" height="1" stroke="none"/>
        <rect x="818" y="0" fill="rgb(173,165,140)" width="1" height="422.75" stroke="none"/>
      </g>
    </g>
    <g id="y.node.12">
      <g fill="rgb(248,236,201)" transform="matrix(0.9737,0,0,0.9737,13.6321,9.7372)" stroke="rgb(248,236,201)">
        <rect width="162" x="642" height="307.8125" y="100.9375" stroke="none"/>
      </g>
      <g id="bla">
        <g fill="rgb(64,64,64)" transform="matrix(0.9737,0,0,0.9737,13.6321,9.7372)" stroke="rgb(64,64,64)">
          <rect width="162" x="642" height="4" y="100.9375" stroke="none"/>
        </g>
      </g>
      <g fill="white" transform="matrix(0.9737,0,0,0.9737,13.6321,9.7372)" stroke="white">
        <rect width="1" x="642" height="307.8125" y="100.9375" stroke="none"/>
        <rect width="160" x="643" height="1" y="100.9375" stroke="none"/>
        <rect x="643" y="407.75" fill="rgb(173,165,140)" width="161" height="1" stroke="none"/>
        <rect x="803" y="100.9375" fill="rgb(173,165,140)" width="1" height="306.8125" stroke="none"/>
      </g>
    </g>
    <g id="y.node.14">
      <g fill="rgb(248,236,201)" transform="matrix(0.9737,0,0,0.9737,13.6321,9.7372)" stroke="rgb(248,236,201)">
        <rect width="132" x="657" height="191.875" y="201.875" stroke="none"/>
      </g>
      <g id="bla">
        <g fill="rgb(64,64,64)" transform="matrix(0.9737,0,0,0.9737,13.6321,9.7372)" stroke="rgb(64,64,64)">
          <rect width="132" x="657" height="4" y="201.875" stroke="none"/>
        </g>
      </g>
      <g fill="white" transform="matrix(0.9737,0,0,0.9737,13.6321,9.7372)" stroke="white">
        <rect width="1" x="657" height="191.875" y="201.875" stroke="none"/>
        <rect width="130" x="658" height="1" y="201.875" stroke="none"/>
        <rect x="658" y="392.75" fill="rgb(173,165,140)" width="131" height="1" stroke="none"/>
        <rect x="788" y="201.875" fill="rgb(173,165,140)" width="1" height="190.875" stroke="none"/>
      </g>
    </g>
    <g id="y.node.16">
      <g fill="rgb(248,236,201)" transform="matrix(0.9737,0,0,0.9737,13.6321,9.7372)" stroke="rgb(248,236,201)">
        <rect width="102" x="672" height="75.9375" y="302.8125" stroke="none"/>
      </g>
      <g id="bla">
        <g fill="rgb(64,64,64)" transform="matrix(0.9737,0,0,0.9737,13.6321,9.7372)" stroke="rgb(64,64,64)">
          <rect width="102" x="672" height="4" y="302.8125" stroke="none"/>
        </g>
      </g>
      <g fill="white" transform="matrix(0.9737,0,0,0.9737,13.6321,9.7372)" stroke="white">
        <rect width="1" x="672" height="75.9375" y="302.8125" stroke="none"/>
        <rect width="100" x="673" height="1" y="302.8125" stroke="none"/>
        <rect x="673" y="377.75" fill="rgb(173,165,140)" width="101" height="1" stroke="none"/>
        <rect x="773" y="302.8125" fill="rgb(173,165,140)" width="1" height="74.9375" stroke="none"/>
      </g>
    </g>
    <g id="y.node.17">
      <g fill="white" transform="matrix(0.9737,0,0,0.9737,13.6321,9.7372)" stroke="white">
        <rect width="72" x="687" height="41" y="321" stroke="none"/>
        <rect x="687" y="321" fill="none" width="72" height="41" stroke="black"/>
      </g>
      <g id="bla">
        <g font-family="sans-serif" transform="matrix(0.9737,0,0,0.9737,13.6321,9.7372)">
          <text xml:space="preserve" x="713" y="339.9512" stroke="none">FN </text>
          <text xml:space="preserve" x="694" y="353.9199" stroke="none"> (sigms.f)</text>
        </g>
      </g>
    </g>
    <g id="y.node.15">
      <g fill="white" transform="matrix(0.9737,0,0,0.9737,13.6321,9.7372)" stroke="white">
        <rect width="72" x="687" height="41" y="220" stroke="none"/>
        <rect x="687" y="220" fill="none" width="72" height="41" stroke="black"/>
      </g>
      <g id="bla">
        <g font-family="sans-serif" transform="matrix(0.9737,0,0,0.9737,13.6321,9.7372)">
          <text xml:space="preserve" x="699" y="239.0137" stroke="none">BINGRT </text>
          <text xml:space="preserve" x="694" y="252.9824" stroke="none"> (sigms.f)</text>
        </g>
      </g>
    </g>
    <g id="y.node.13">
      <g fill="white" transform="matrix(0.9737,0,0,0.9737,13.6321,9.7372)" stroke="white">
        <rect width="72" x="687" height="41" y="119" stroke="none"/>
        <rect x="687" y="119" fill="none" width="72" height="41" stroke="black"/>
      </g>
      <g id="bla">
        <g font-family="sans-serif" transform="matrix(0.9737,0,0,0.9737,13.6321,9.7372)">
          <text xml:space="preserve" x="696.5" y="138.0762" stroke="none">CORRFN </text>
          <text xml:space="preserve" x="694" y="152.0449" stroke="none"> (sigms.f)</text>
        </g>
      </g>
    </g>
    <g id="y.node.11">
      <g fill="white" transform="matrix(0.9737,0,0,0.9737,13.6321,9.7372)" stroke="white">
        <rect width="72" x="687" height="41" y="19" stroke="none"/>
        <rect x="687" y="19" fill="none" width="72" height="41" stroke="black"/>
      </g>
      <g id="bla">
        <g font-family="sans-serif" transform="matrix(0.9737,0,0,0.9737,13.6321,9.7372)">
          <text xml:space="preserve" x="702" y="37.1387" stroke="none">SIGMS </text>
          <text xml:space="preserve" x="694" y="51.1074" stroke="none"> (sigms.f)</text>
        </g>
      </g>
    </g>
    <g id="y.node.18">
      <g fill="rgb(248,236,201)" transform="matrix(0.9737,0,0,0.9737,13.6321,9.7372)" stroke="rgb(248,236,201)">
        <rect width="582" x="0" height="463.75" y="155.9375" stroke="none"/>
      </g>
      <g id="bla">
        <g fill="rgb(64,64,64)" transform="matrix(0.9737,0,0,0.9737,13.6321,9.7372)" stroke="rgb(64,64,64)">
          <rect width="582" x="0" height="4" y="155.9375" stroke="none"/>
        </g>
      </g>
      <g fill="white" transform="matrix(0.9737,0,0,0.9737,13.6321,9.7372)" stroke="white">
        <rect width="1" x="0" height="463.75" y="155.9375" stroke="none"/>
        <rect width="580" x="1" height="1" y="155.9375" stroke="none"/>
        <rect x="1" y="618.6875" fill="rgb(173,165,140)" width="581" height="1" stroke="none"/>
        <rect x="581" y="155.9375" fill="rgb(173,165,140)" width="1" height="462.75" stroke="none"/>
      </g>
    </g>
    <g id="y.node.22">
      <g fill="rgb(248,236,201)" transform="matrix(0.9737,0,0,0.9737,13.6321,9.7372)" stroke="rgb(248,236,201)">
        <rect width="424" x="143" height="347.8125" y="256.875" stroke="none"/>
      </g>
      <g id="bla">
        <g fill="rgb(64,64,64)" transform="matrix(0.9737,0,0,0.9737,13.6321,9.7372)" stroke="rgb(64,64,64)">
          <rect width="424" x="143" height="4" y="256.875" stroke="none"/>
        </g>
      </g>
      <g fill="white" transform="matrix(0.9737,0,0,0.9737,13.6321,9.7372)" stroke="white">
        <rect width="1" x="143" height="347.8125" y="256.875" stroke="none"/>
        <rect width="422" x="144" height="1" y="256.875" stroke="none"/>
        <rect x="144" y="603.6875" fill="rgb(173,165,140)" width="423" height="1" stroke="none"/>
        <rect x="566" y="256.875" fill="rgb(173,165,140)" width="1" height="346.8125" stroke="none"/>
      </g>
    </g>
    <g id="y.node.28">
      <g fill="rgb(248,236,201)" transform="matrix(0.9737,0,0,0.9737,13.6321,9.7372)" stroke="rgb(248,236,201)">
        <rect width="138" x="414" height="191.875" y="397.8125" stroke="none"/>
      </g>
      <g id="bla">
        <g fill="rgb(64,64,64)" transform="matrix(0.9737,0,0,0.9737,13.6321,9.7372)" stroke="rgb(64,64,64)">
          <rect width="138" x="414" height="4" y="397.8125" stroke="none"/>
        </g>
      </g>
      <g fill="white" transform="matrix(0.9737,0,0,0.9737,13.6321,9.7372)" stroke="white">
        <rect width="1" x="414" height="191.875" y="397.8125" stroke="none"/>
        <rect width="136" x="415" height="1" y="397.8125" stroke="none"/>
        <rect x="415" y="588.6875" fill="rgb(173,165,140)" width="137" height="1" stroke="none"/>
        <rect x="551" y="397.8125" fill="rgb(173,165,140)" width="1" height="190.875" stroke="none"/>
      </g>
    </g>
    <g id="y.node.30">
      <g fill="rgb(248,236,201)" transform="matrix(0.9737,0,0,0.9737,13.6321,9.7372)" stroke="rgb(248,236,201)">
        <rect width="108" x="429" height="75.9375" y="498.75" stroke="none"/>
      </g>
      <g id="bla">
        <g fill="rgb(64,64,64)" transform="matrix(0.9737,0,0,0.9737,13.6321,9.7372)" stroke="rgb(64,64,64)">
          <rect width="108" x="429" height="4" y="498.75" stroke="none"/>
        </g>
      </g>
      <g fill="white" transform="matrix(0.9737,0,0,0.9737,13.6321,9.7372)" stroke="white">
        <rect width="1" x="429" height="75.9375" y="498.75" stroke="none"/>
        <rect width="106" x="430" height="1" y="498.75" stroke="none"/>
        <rect x="430" y="573.6875" fill="rgb(173,165,140)" width="107" height="1" stroke="none"/>
        <rect x="536" y="498.75" fill="rgb(173,165,140)" width="1" height="74.9375" stroke="none"/>
      </g>
    </g>
    <g id="y.node.31">
      <g fill="white" transform="matrix(0.9737,0,0,0.9737,13.6321,9.7372)" stroke="white">
        <rect width="78" x="444" height="41" y="517" stroke="none"/>
        <rect x="444" y="517" fill="none" width="78" height="41" stroke="black"/>
      </g>
      <g id="bla">
        <g font-family="sans-serif" transform="matrix(0.9737,0,0,0.9737,13.6321,9.7372)">
          <text xml:space="preserve" x="465.5" y="535.8887" stroke="none">VECT </text>
          <text xml:space="preserve" x="451" y="549.8574" stroke="none"> (sigrem.f)</text>
        </g>
      </g>
    </g>
    <g id="y.node.29">
      <g fill="white" transform="matrix(0.9737,0,0,0.9737,13.6321,9.7372)" stroke="white">
        <rect width="78" x="444" height="41" y="416" stroke="none"/>
        <rect x="444" y="416" fill="none" width="78" height="41" stroke="black"/>
      </g>
      <g id="bla">
        <g font-family="sans-serif" transform="matrix(0.9737,0,0,0.9737,13.6321,9.7372)">
          <text xml:space="preserve" x="464" y="434.9512" stroke="none">SANG </text>
          <text xml:space="preserve" x="451" y="448.9199" stroke="none"> (sigrem.f)</text>
        </g>
      </g>
    </g>
    <g id="y.node.26">
      <g fill="rgb(248,236,201)" transform="matrix(0.9737,0,0,0.9737,13.6321,9.7372)" stroke="rgb(248,236,201)">
        <rect width="108" x="286" height="75.9375" y="455.7812" stroke="none"/>
      </g>
      <g id="bla">
        <g fill="rgb(64,64,64)" transform="matrix(0.9737,0,0,0.9737,13.6321,9.7372)" stroke="rgb(64,64,64)">
          <rect width="108" x="286" height="4" y="455.7812" stroke="none"/>
        </g>
      </g>
      <g fill="white" transform="matrix(0.9737,0,0,0.9737,13.6321,9.7372)" stroke="white">
        <rect width="1" x="286" height="75.9375" y="455.7812" stroke="none"/>
        <rect width="106" x="287" height="1" y="455.7812" stroke="none"/>
        <rect x="287" y="530.7188" fill="rgb(173,165,140)" width="107" height="1" stroke="none"/>
        <rect x="393" y="455.7812" fill="rgb(173,165,140)" width="1" height="74.9375" stroke="none"/>
      </g>
    </g>
    <g id="y.node.27">
      <g fill="white" transform="matrix(0.9737,0,0,0.9737,13.6321,9.7372)" stroke="white">
        <rect width="78" x="301" height="41" y="474" stroke="none"/>
        <rect x="301" y="474" fill="none" width="78" height="41" stroke="black"/>
      </g>
      <g id="bla">
        <g font-family="sans-serif" transform="matrix(0.9737,0,0,0.9737,13.6321,9.7372)">
          <text xml:space="preserve" x="321.5" y="492.9199" stroke="none">COSS </text>
          <text xml:space="preserve" x="308" y="506.8887" stroke="none"> (sigrem.f)</text>
        </g>
      </g>
    </g>
    <g id="y.node.24">
      <g fill="rgb(248,236,201)" transform="matrix(0.9737,0,0,0.9737,13.6321,9.7372)" stroke="rgb(248,236,201)">
        <rect width="108" x="158" height="75.9375" y="455.7812" stroke="none"/>
      </g>
      <g id="bla">
        <g fill="rgb(64,64,64)" transform="matrix(0.9737,0,0,0.9737,13.6321,9.7372)" stroke="rgb(64,64,64)">
          <rect width="108" x="158" height="4" y="455.7812" stroke="none"/>
        </g>
      </g>
      <g fill="white" transform="matrix(0.9737,0,0,0.9737,13.6321,9.7372)" stroke="white">
        <rect width="1" x="158" height="75.9375" y="455.7812" stroke="none"/>
        <rect width="106" x="159" height="1" y="455.7812" stroke="none"/>
        <rect x="159" y="530.7188" fill="rgb(173,165,140)" width="107" height="1" stroke="none"/>
        <rect x="265" y="455.7812" fill="rgb(173,165,140)" width="1" height="74.9375" stroke="none"/>
      </g>
    </g>
    <g id="y.node.25">
      <g fill="white" transform="matrix(0.9737,0,0,0.9737,13.6321,9.7372)" stroke="white">
        <rect width="78" x="173" height="41" y="474" stroke="none"/>
        <rect x="173" y="474" fill="none" width="78" height="41" stroke="black"/>
      </g>
      <g id="bla">
        <g font-family="sans-serif" transform="matrix(0.9737,0,0,0.9737,13.6321,9.7372)">
          <text xml:space="preserve" x="188" y="492.9199" stroke="none">CHEKIN </text>
          <text xml:space="preserve" x="180" y="506.8887" stroke="none"> (sigrem.f)</text>
        </g>
      </g>
    </g>
    <g id="y.node.23">
      <g fill="white" transform="matrix(0.9737,0,0,0.9737,13.6321,9.7372)" stroke="white">
        <rect width="78" x="301" height="41" y="315" stroke="none"/>
        <rect x="301" y="315" fill="none" width="78" height="41" stroke="black"/>
      </g>
      <g id="bla">
        <g font-family="sans-serif" transform="matrix(0.9737,0,0,0.9737,13.6321,9.7372)">
          <text xml:space="preserve" x="317.5" y="334.0137" stroke="none">RDSPR </text>
          <text xml:space="preserve" x="308" y="347.9824" stroke="none"> (sigrem.f)</text>
        </g>
      </g>
    </g>
    <g id="y.node.20">
      <g fill="rgb(248,236,201)" transform="matrix(0.9737,0,0,0.9737,13.6321,9.7372)" stroke="rgb(248,236,201)">
        <rect width="108" x="15" height="115.9375" y="372.8125" stroke="none"/>
      </g>
      <g id="bla">
        <g fill="rgb(64,64,64)" transform="matrix(0.9737,0,0,0.9737,13.6321,9.7372)" stroke="rgb(64,64,64)">
          <rect width="108" x="15" height="4" y="372.8125" stroke="none"/>
        </g>
      </g>
      <g fill="white" transform="matrix(0.9737,0,0,0.9737,13.6321,9.7372)" stroke="white">
        <rect width="1" x="15" height="115.9375" y="372.8125" stroke="none"/>
        <rect width="106" x="16" height="1" y="372.8125" stroke="none"/>
        <rect x="16" y="487.75" fill="rgb(173,165,140)" width="107" height="1" stroke="none"/>
        <rect x="122" y="372.8125" fill="rgb(173,165,140)" width="1" height="114.9375" stroke="none"/>
      </g>
    </g>
    <g id="y.node.21">
      <g fill="white" transform="matrix(0.9737,0,0,0.9737,13.6321,9.7372)" stroke="white">
        <rect width="78" x="30" height="41" y="431" stroke="none"/>
        <rect x="30" y="431" fill="none" width="78" height="41" stroke="black"/>
      </g>
      <g id="bla">
        <g font-family="sans-serif" transform="matrix(0.9737,0,0,0.9737,13.6321,9.7372)">
          <text xml:space="preserve" x="42.5" y="449.9512" stroke="none">DWRDIN </text>
          <text xml:space="preserve" x="37" y="463.9199" stroke="none"> (sigrem.f)</text>
        </g>
      </g>
    </g>
    <g id="y.node.19">
      <g fill="white" transform="matrix(0.9737,0,0,0.9737,13.6321,9.7372)" stroke="white">
        <rect width="78" x="165" height="41" y="174" stroke="none"/>
        <rect x="165" y="174" fill="none" width="78" height="41" stroke="black"/>
      </g>
      <g id="bla">
        <g font-family="sans-serif" transform="matrix(0.9737,0,0,0.9737,13.6321,9.7372)">
          <text xml:space="preserve" x="183.5" y="193.0762" stroke="none">SIGEM </text>
          <text xml:space="preserve" x="172.5" y="207.0449" stroke="none"> (sigrem.f)</text>
        </g>
      </g>
    </g>
    <g id="y.node.32">
      <g fill="rgb(248,236,201)" transform="matrix(0.9737,0,0,0.9737,13.6321,9.7372)" stroke="rgb(248,236,201)">
        <rect width="108" x="150.5" height="115.9375" y="0" stroke="none"/>
      </g>
      <g id="bla">
        <g fill="rgb(64,64,64)" transform="matrix(0.9737,0,0,0.9737,13.6321,9.7372)" stroke="rgb(64,64,64)">
          <rect width="108" x="150.5" height="4" y="0" stroke="none"/>
        </g>
      </g>
      <g fill="white" transform="matrix(0.9737,0,0,0.9737,13.6321,9.7372)" stroke="white">
        <rect width="1" x="150.5" height="115.9375" y="0" stroke="none"/>
        <rect width="106" x="151.5" height="1" y="0" stroke="none"/>
        <rect x="151.5" y="114.9375" fill="rgb(173,165,140)" width="107" height="1" stroke="none"/>
        <rect x="257.5" y="0" fill="rgb(173,165,140)" width="1" height="114.9375" stroke="none"/>
      </g>
    </g>
    <g id="y.node.33">
      <g fill="white" transform="matrix(0.9737,0,0,0.9737,13.6321,9.7372)" stroke="white">
        <rect width="78" x="165" height="41" y="19" stroke="none"/>
        <rect x="165" y="19" fill="none" width="78" height="41" stroke="black"/>
      </g>
      <g id="bla">
        <g font-family="sans-serif" transform="matrix(0.9737,0,0,0.9737,13.6321,9.7372)">
          <text xml:space="preserve" x="183.5" y="37.1387" stroke="none">SIGRM </text>
          <text xml:space="preserve" x="172.5" y="51.1074" stroke="none"> (sigrem.f)</text>
        </g>
      </g>
    </g>
    <g id="y.node.34">
      <g fill="rgb(248,236,201)" transform="matrix(0.9737,0,0,0.9737,13.6321,9.7372)" stroke="rgb(248,236,201)">
        <rect width="105" x="0" height="75.9375" y="664.6875" stroke="none"/>
      </g>
      <g id="bla">
        <g fill="rgb(64,64,64)" transform="matrix(0.9737,0,0,0.9737,13.6321,9.7372)" stroke="rgb(64,64,64)">
          <rect width="105" x="0" height="4" y="664.6875" stroke="none"/>
        </g>
      </g>
      <g fill="white" transform="matrix(0.9737,0,0,0.9737,13.6321,9.7372)" stroke="white">
        <rect width="1" x="0" height="75.9375" y="664.6875" stroke="none"/>
        <rect width="103" x="1" height="1" y="664.6875" stroke="none"/>
        <rect x="1" y="739.625" fill="rgb(173,165,140)" width="104" height="1" stroke="none"/>
        <rect x="104" y="664.6875" fill="rgb(173,165,140)" width="1" height="74.9375" stroke="none"/>
      </g>
    </g>
    <g id="y.node.35">
      <g fill="white" transform="matrix(0.9737,0,0,0.9737,13.6321,9.7372)" stroke="white">
        <rect width="75" x="15" height="41" y="683" stroke="none"/>
        <rect x="15" y="683" fill="none" width="75" height="41" stroke="black"/>
      </g>
      <g id="bla">
        <g font-family="sans-serif" transform="matrix(0.9737,0,0,0.9737,13.6321,9.7372)">
          <text xml:space="preserve" x="29" y="701.8262" stroke="none">SIGTE3 </text>
          <text xml:space="preserve" x="22" y="715.7949" stroke="none"> (sigte3.f)</text>
        </g>
      </g>
    </g>
    <g id="y.edge.0">
      <g stroke-miterlimit="1.45" transform="matrix(0.9737,0,0,0.9737,13.6321,9.7372)" stroke-linecap="butt">
        <path fill="none" d="M956 60.9663 L956 111.9087"/>
        <path d="M956 119.9087 L961 107.9087 L956 110.9087 L951 107.9087 Z" stroke="none"/>
      </g>
    </g>
    <g id="y.edge.1">
      <g stroke-miterlimit="1.45" transform="matrix(0.9737,0,0,0.9737,13.6321,9.7372)" stroke-linecap="butt">
        <path fill="none" d="M956 161.9038 L956 212.8462"/>
        <path d="M956 220.8462 L961 208.8462 L956 211.8462 L951 208.8462 Z" stroke="none"/>
      </g>
    </g>
    <g id="y.edge.2">
      <g stroke-miterlimit="1.45" transform="matrix(0.9737,0,0,0.9737,13.6321,9.7372)" stroke-linecap="butt">
        <path fill="none" d="M956 262.8413 L956 313.7837"/>
        <path d="M956 321.7837 L961 309.7837 L956 312.7837 L951 309.7837 Z" stroke="none"/>
      </g>
    </g>
    <g id="y.edge.3">
      <g stroke-miterlimit="1.45" transform="matrix(0.9737,0,0,0.9737,13.6321,9.7372)" stroke-linecap="butt">
        <path fill="none" d="M723 60.9663 L723 111.9087"/>
        <path d="M723 119.9087 L728 107.9087 L723 110.9087 L718 107.9087 Z" stroke="none"/>
      </g>
    </g>
    <g id="y.edge.4">
      <g stroke-miterlimit="1.45" transform="matrix(0.9737,0,0,0.9737,13.6321,9.7372)" stroke-linecap="butt">
        <path fill="none" d="M723 161.9038 L723 212.8462"/>
        <path d="M723 220.8462 L728 208.8462 L723 211.8462 L718 208.8462 Z" stroke="none"/>
      </g>
    </g>
    <g id="y.edge.5">
      <g stroke-miterlimit="1.45" transform="matrix(0.9737,0,0,0.9737,13.6321,9.7372)" stroke-linecap="butt">
        <path fill="none" d="M723 262.8413 L723 313.7837"/>
        <path d="M723 321.7837 L728 309.7837 L723 312.7837 L718 309.7837 Z" stroke="none"/>
      </g>
    </g>
    <g id="y.edge.6">
      <g stroke-miterlimit="1.45" transform="matrix(0.9737,0,0,0.9737,13.6321,9.7372)" stroke-linecap="butt">
        <path fill="none" d="M184.9729 216.8848 L74 256.875 L74 391.8125 L85.7594 424.2523"/>
        <path d="M88.4858 431.7734 L89.0969 418.7878 L85.4186 423.3122 L79.6956 422.1958 Z" stroke="none"/>
      </g>
    </g>
    <g id="y.edge.7">
      <g stroke-miterlimit="1.45" transform="matrix(0.9737,0,0,0.9737,13.6321,9.7372)" stroke-linecap="butt">
        <path fill="none" d="M224.0271 216.8848 L335 256.875 L335 275.875 L323.2405 308.3148"/>
        <path d="M320.5141 315.8359 L329.3044 306.2583 L323.5813 307.3747 L319.903 302.8503 Z" stroke="none"/>
      </g>
    </g>
    <g id="y.edge.8">
      <g stroke-miterlimit="1.45" transform="matrix(0.9737,0,0,0.9737,13.6321,9.7372)" stroke-linecap="butt">
        <path fill="none" d="M313.9751 357.8223 L212 397.8125 L212 466.7437"/>
        <path d="M212 474.7437 L217 462.7437 L212 465.7437 L207 462.7437 Z" stroke="none"/>
      </g>
    </g>
    <g id="y.edge.9">
      <g stroke-miterlimit="1.45" transform="matrix(0.9737,0,0,0.9737,13.6321,9.7372)" stroke-linecap="butt">
        <path fill="none" d="M340 357.8411 L340 466.7527"/>
        <path d="M340 474.7527 L345 462.7527 L340 465.7527 L335 462.7527 Z" stroke="none"/>
      </g>
    </g>
    <g id="y.edge.10">
      <g stroke-miterlimit="1.45" transform="matrix(0.9737,0,0,0.9737,13.6321,9.7372)" stroke-linecap="butt">
        <path fill="none" d="M366.0286 357.8223 L483 397.8125 L483 408.7754"/>
        <path d="M483 416.7754 L488 404.7754 L483 407.7754 L478 404.7754 Z" stroke="none"/>
      </g>
    </g>
    <g id="y.edge.11">
      <g stroke-miterlimit="1.45" transform="matrix(0.9737,0,0,0.9737,13.6321,9.7372)" stroke-linecap="butt">
        <path fill="none" d="M483 458.7788 L483 509.7212"/>
        <path d="M483 517.7212 L488 505.7212 L483 508.7212 L478 505.7212 Z" stroke="none"/>
      </g>
    </g>
    <g id="y.edge.12">
      <g stroke-miterlimit="1.45" transform="matrix(0.9737,0,0,0.9737,13.6321,9.7372)" stroke-linecap="butt">
        <path fill="none" d="M185.0142 60.9766 L199.5 100.9375 L199.5 115.9375 L54 155.9375 L54 216.875 L64 256.875 L64 391.8125 L52.2406 424.2523"/>
        <path d="M49.5142 431.7734 L58.3044 422.1958 L52.5814 423.3122 L48.9031 418.7878 Z" stroke="none"/>
      </g>
    </g>
    <g id="y.edge.13">
      <g stroke-miterlimit="1.45" transform="matrix(0.9737,0,0,0.9737,13.6321,9.7372)" stroke-linecap="butt">
        <path fill="none" d="M223.9858 60.9766 L209.5 100.9375 L209.5 115.9375 L355 155.9375 L355 216.875 L345 256.875 L345 275.875 L356.7595 308.3148"/>
        <path d="M359.4859 315.8359 L360.097 302.8503 L356.4187 307.3747 L350.6956 306.2583 Z" stroke="none"/>
      </g>
    </g>
  </g>
</svg>
