<?xml version="1.0" encoding="UTF-8"?><svg xmlns="http://www.w3.org/2000/svg" xmlns:xlink="http://www.w3.org/1999/xlink" fill-opacity="1" color-rendering="auto" color-interpolation="auto" stroke="black" text-rendering="auto" stroke-linecap="square" width="1960" stroke-miterlimit="10" stroke-opacity="1" shape-rendering="auto" fill="black" stroke-dasharray="none" font-weight="normal" stroke-width="1" height="656" font-family="'Dialog'" font-style="normal" stroke-linejoin="miter" font-size="12" stroke-dashoffset="0" image-rendering="auto">
  <!--Generated by ySVG-->
  <defs id="genericDefs"/>
  <g>
    <defs id="defs1">
      <clipPath clipPathUnits="userSpaceOnUse" id="clipPath1">
        <path d="M0 0 L1960 0 L1960 656 L0 656 L0 0 Z"/>
      </clipPath>
    </defs>
    <g id="y.node.0">
      <g fill="rgb(248,236,201)" transform="matrix(0.9704,0,0,0.9704,28.142,9.7041)" stroke="rgb(248,236,201)">
        <rect width="1959.25" x="0" height="655.625" y="0" stroke="none"/>
      </g>
      <g id="bla">
        <g fill="rgb(64,64,64)" transform="matrix(0.9704,0,0,0.9704,28.142,9.7041)" stroke="rgb(64,64,64)">
          <rect width="1959.25" x="0" height="4" y="0" stroke="none"/>
        </g>
      </g>
      <g fill="white" transform="matrix(0.9704,0,0,0.9704,28.142,9.7041)" stroke="white">
        <rect width="1" x="0" height="655.625" y="0" stroke="none"/>
      </g>
      <g fill="white" transform="matrix(0.9704,0,0,0.9704,28.142,9.7041)" stroke="white">
        <rect width="1957.25" x="1" height="1" y="0" stroke="none"/>
        <rect x="1" y="654.625" fill="rgb(173,165,140)" width="1958.25" height="1" stroke="none"/>
        <rect x="1958.25" y="0" fill="rgb(173,165,140)" width="1" height="654.625" stroke="none"/>
      </g>
    </g>
    <g id="y.node.26">
      <g fill="rgb(248,236,201)" transform="matrix(0.9704,0,0,0.9704,28.142,9.7041)" stroke="rgb(248,236,201)">
        <rect width="860.5" x="785" height="191.875" y="100.9375" stroke="none"/>
      </g>
      <g id="bla">
        <g fill="rgb(64,64,64)" transform="matrix(0.9704,0,0,0.9704,28.142,9.7041)" stroke="rgb(64,64,64)">
          <rect width="860.5" x="785" height="4" y="100.9375" stroke="none"/>
        </g>
      </g>
      <g fill="white" transform="matrix(0.9704,0,0,0.9704,28.142,9.7041)" stroke="white">
        <rect width="1" x="785" height="191.875" y="100.9375" stroke="none"/>
        <rect width="858.5" x="786" height="1" y="100.9375" stroke="none"/>
        <rect x="786" y="291.8125" fill="rgb(173,165,140)" width="859.5" height="1" stroke="none"/>
        <rect x="1644.5" y="100.9375" fill="rgb(173,165,140)" width="1" height="190.875" stroke="none"/>
      </g>
    </g>
    <g id="y.node.38">
      <g fill="rgb(248,236,201)" transform="matrix(0.9704,0,0,0.9704,28.142,9.7041)" stroke="rgb(248,236,201)">
        <rect width="119" x="1501" height="75.9375" y="201.875" stroke="none"/>
      </g>
      <g id="bla">
        <g fill="rgb(64,64,64)" transform="matrix(0.9704,0,0,0.9704,28.142,9.7041)" stroke="rgb(64,64,64)">
          <rect width="119" x="1501" height="4" y="201.875" stroke="none"/>
        </g>
      </g>
      <g fill="white" transform="matrix(0.9704,0,0,0.9704,28.142,9.7041)" stroke="white">
        <rect width="1" x="1501" height="75.9375" y="201.875" stroke="none"/>
        <rect width="117" x="1502" height="1" y="201.875" stroke="none"/>
        <rect x="1502" y="276.8125" fill="rgb(173,165,140)" width="118" height="1" stroke="none"/>
        <rect x="1619" y="201.875" fill="rgb(173,165,140)" width="1" height="74.9375" stroke="none"/>
      </g>
    </g>
    <g id="y.node.39">
      <g fill="white" transform="matrix(0.9704,0,0,0.9704,28.142,9.7041)" stroke="white">
        <rect width="89" x="1516" height="41" y="220" stroke="none"/>
        <rect x="1516" y="220" fill="none" width="89" height="41" stroke="black"/>
      </g>
      <g id="bla">
        <g font-family="sans-serif" transform="matrix(0.9704,0,0,0.9704,28.142,9.7041)">
          <text xml:space="preserve" x="1523" y="239.0137" stroke="none">JSON_MOD6 </text>
          <text xml:space="preserve" x="1531" y="252.9824" stroke="none"> (wrtjsn.f)</text>
        </g>
      </g>
    </g>
    <g id="y.node.36">
      <g fill="rgb(248,236,201)" transform="matrix(0.9704,0,0,0.9704,28.142,9.7041)" stroke="rgb(248,236,201)">
        <rect width="119" x="1362" height="75.9375" y="201.875" stroke="none"/>
      </g>
      <g id="bla">
        <g fill="rgb(64,64,64)" transform="matrix(0.9704,0,0,0.9704,28.142,9.7041)" stroke="rgb(64,64,64)">
          <rect width="119" x="1362" height="4" y="201.875" stroke="none"/>
        </g>
      </g>
      <g fill="white" transform="matrix(0.9704,0,0,0.9704,28.142,9.7041)" stroke="white">
        <rect width="1" x="1362" height="75.9375" y="201.875" stroke="none"/>
        <rect width="117" x="1363" height="1" y="201.875" stroke="none"/>
        <rect x="1363" y="276.8125" fill="rgb(173,165,140)" width="118" height="1" stroke="none"/>
        <rect x="1480" y="201.875" fill="rgb(173,165,140)" width="1" height="74.9375" stroke="none"/>
      </g>
    </g>
    <g id="y.node.37">
      <g fill="white" transform="matrix(0.9704,0,0,0.9704,28.142,9.7041)" stroke="white">
        <rect width="89" x="1377" height="41" y="220" stroke="none"/>
        <rect x="1377" y="220" fill="none" width="89" height="41" stroke="black"/>
      </g>
      <g id="bla">
        <g font-family="sans-serif" transform="matrix(0.9704,0,0,0.9704,28.142,9.7041)">
          <text xml:space="preserve" x="1384" y="239.0137" stroke="none">JSON_MOD5 </text>
          <text xml:space="preserve" x="1392" y="252.9824" stroke="none"> (wrtjsn.f)</text>
        </g>
      </g>
    </g>
    <g id="y.node.34">
      <g fill="rgb(248,236,201)" transform="matrix(0.9704,0,0,0.9704,28.142,9.7041)" stroke="rgb(248,236,201)">
        <rect width="119" x="1223" height="75.9375" y="201.875" stroke="none"/>
      </g>
      <g id="bla">
        <g fill="rgb(64,64,64)" transform="matrix(0.9704,0,0,0.9704,28.142,9.7041)" stroke="rgb(64,64,64)">
          <rect width="119" x="1223" height="4" y="201.875" stroke="none"/>
        </g>
      </g>
      <g fill="white" transform="matrix(0.9704,0,0,0.9704,28.142,9.7041)" stroke="white">
        <rect width="1" x="1223" height="75.9375" y="201.875" stroke="none"/>
        <rect width="117" x="1224" height="1" y="201.875" stroke="none"/>
        <rect x="1224" y="276.8125" fill="rgb(173,165,140)" width="118" height="1" stroke="none"/>
        <rect x="1341" y="201.875" fill="rgb(173,165,140)" width="1" height="74.9375" stroke="none"/>
      </g>
    </g>
    <g id="y.node.35">
      <g fill="white" transform="matrix(0.9704,0,0,0.9704,28.142,9.7041)" stroke="white">
        <rect width="89" x="1238" height="41" y="220" stroke="none"/>
        <rect x="1238" y="220" fill="none" width="89" height="41" stroke="black"/>
      </g>
      <g id="bla">
        <g font-family="sans-serif" transform="matrix(0.9704,0,0,0.9704,28.142,9.7041)">
          <text xml:space="preserve" x="1245" y="239.0137" stroke="none">JSON_MOD4 </text>
          <text xml:space="preserve" x="1253" y="252.9824" stroke="none"> (wrtjsn.f)</text>
        </g>
      </g>
    </g>
    <g id="y.node.32">
      <g fill="rgb(248,236,201)" transform="matrix(0.9704,0,0,0.9704,28.142,9.7041)" stroke="rgb(248,236,201)">
        <rect width="119" x="1084" height="75.9375" y="201.875" stroke="none"/>
      </g>
      <g id="bla">
        <g fill="rgb(64,64,64)" transform="matrix(0.9704,0,0,0.9704,28.142,9.7041)" stroke="rgb(64,64,64)">
          <rect width="119" x="1084" height="4" y="201.875" stroke="none"/>
        </g>
      </g>
      <g fill="white" transform="matrix(0.9704,0,0,0.9704,28.142,9.7041)" stroke="white">
        <rect width="1" x="1084" height="75.9375" y="201.875" stroke="none"/>
        <rect width="117" x="1085" height="1" y="201.875" stroke="none"/>
        <rect x="1085" y="276.8125" fill="rgb(173,165,140)" width="118" height="1" stroke="none"/>
        <rect x="1202" y="201.875" fill="rgb(173,165,140)" width="1" height="74.9375" stroke="none"/>
      </g>
    </g>
    <g id="y.node.33">
      <g fill="white" transform="matrix(0.9704,0,0,0.9704,28.142,9.7041)" stroke="white">
        <rect width="89" x="1099" height="41" y="220" stroke="none"/>
        <rect x="1099" y="220" fill="none" width="89" height="41" stroke="black"/>
      </g>
      <g id="bla">
        <g font-family="sans-serif" transform="matrix(0.9704,0,0,0.9704,28.142,9.7041)">
          <text xml:space="preserve" x="1106" y="239.0137" stroke="none">JSON_MOD2 </text>
          <text xml:space="preserve" x="1114" y="252.9824" stroke="none"> (wrtjsn.f)</text>
        </g>
      </g>
    </g>
    <g id="y.node.30">
      <g fill="rgb(248,236,201)" transform="matrix(0.9704,0,0,0.9704,28.142,9.7041)" stroke="rgb(248,236,201)">
        <rect width="119" x="945" height="75.9375" y="201.875" stroke="none"/>
      </g>
      <g id="bla">
        <g fill="rgb(64,64,64)" transform="matrix(0.9704,0,0,0.9704,28.142,9.7041)" stroke="rgb(64,64,64)">
          <rect width="119" x="945" height="4" y="201.875" stroke="none"/>
        </g>
      </g>
      <g fill="white" transform="matrix(0.9704,0,0,0.9704,28.142,9.7041)" stroke="white">
        <rect width="1" x="945" height="75.9375" y="201.875" stroke="none"/>
        <rect width="117" x="946" height="1" y="201.875" stroke="none"/>
        <rect x="946" y="276.8125" fill="rgb(173,165,140)" width="118" height="1" stroke="none"/>
        <rect x="1063" y="201.875" fill="rgb(173,165,140)" width="1" height="74.9375" stroke="none"/>
      </g>
    </g>
    <g id="y.node.31">
      <g fill="white" transform="matrix(0.9704,0,0,0.9704,28.142,9.7041)" stroke="white">
        <rect width="89" x="960" height="41" y="220" stroke="none"/>
        <rect x="960" y="220" fill="none" width="89" height="41" stroke="black"/>
      </g>
      <g id="bla">
        <g font-family="sans-serif" transform="matrix(0.9704,0,0,0.9704,28.142,9.7041)">
          <text xml:space="preserve" x="967" y="239.0137" stroke="none">JSON_MOD1 </text>
          <text xml:space="preserve" x="975" y="252.9824" stroke="none"> (wrtjsn.f)</text>
        </g>
      </g>
    </g>
    <g id="y.node.28">
      <g fill="rgb(248,236,201)" transform="matrix(0.9704,0,0,0.9704,28.142,9.7041)" stroke="rgb(248,236,201)">
        <rect width="125" x="800" height="75.9375" y="201.875" stroke="none"/>
      </g>
      <g id="bla">
        <g fill="rgb(64,64,64)" transform="matrix(0.9704,0,0,0.9704,28.142,9.7041)" stroke="rgb(64,64,64)">
          <rect width="125" x="800" height="4" y="201.875" stroke="none"/>
        </g>
      </g>
      <g fill="white" transform="matrix(0.9704,0,0,0.9704,28.142,9.7041)" stroke="white">
        <rect width="1" x="800" height="75.9375" y="201.875" stroke="none"/>
        <rect width="123" x="801" height="1" y="201.875" stroke="none"/>
        <rect x="801" y="276.8125" fill="rgb(173,165,140)" width="124" height="1" stroke="none"/>
        <rect x="924" y="201.875" fill="rgb(173,165,140)" width="1" height="74.9375" stroke="none"/>
      </g>
    </g>
    <g id="y.node.29">
      <g fill="white" transform="matrix(0.9704,0,0,0.9704,28.142,9.7041)" stroke="white">
        <rect width="95" x="815" height="41" y="220" stroke="none"/>
        <rect x="815" y="220" fill="none" width="95" height="41" stroke="black"/>
      </g>
      <g id="bla">
        <g font-family="sans-serif" transform="matrix(0.9704,0,0,0.9704,28.142,9.7041)">
          <text xml:space="preserve" x="822" y="239.0137" stroke="none">JSON_ATOMS </text>
          <text xml:space="preserve" x="833" y="252.9824" stroke="none"> (wrtjsn.f)</text>
        </g>
      </g>
    </g>
    <g id="y.node.27">
      <g fill="white" transform="matrix(0.9704,0,0,0.9704,28.142,9.7041)" stroke="white">
        <rect width="73" x="1246" height="41" y="119" stroke="none"/>
        <rect x="1246" y="119" fill="none" width="73" height="41" stroke="black"/>
      </g>
      <g id="bla">
        <g font-family="sans-serif" transform="matrix(0.9704,0,0,0.9704,28.142,9.7041)">
          <text xml:space="preserve" x="1257.5" y="138.0762" stroke="none">WRTJSN </text>
          <text xml:space="preserve" x="1253" y="152.0449" stroke="none"> (wrtjsn.f)</text>
        </g>
      </g>
    </g>
    <g id="y.node.24">
      <g fill="rgb(248,236,201)" transform="matrix(0.9704,0,0,0.9704,28.142,9.7041)" stroke="rgb(248,236,201)">
        <rect width="107" x="658" height="75.9375" y="158.9062" stroke="none"/>
      </g>
      <g id="bla">
        <g fill="rgb(64,64,64)" transform="matrix(0.9704,0,0,0.9704,28.142,9.7041)" stroke="rgb(64,64,64)">
          <rect width="107" x="658" height="4" y="158.9062" stroke="none"/>
        </g>
      </g>
      <g fill="white" transform="matrix(0.9704,0,0,0.9704,28.142,9.7041)" stroke="white">
        <rect width="1" x="658" height="75.9375" y="158.9062" stroke="none"/>
        <rect width="105" x="659" height="1" y="158.9062" stroke="none"/>
        <rect x="659" y="233.8438" fill="rgb(173,165,140)" width="106" height="1" stroke="none"/>
        <rect x="764" y="158.9062" fill="rgb(173,165,140)" width="1" height="74.9375" stroke="none"/>
      </g>
    </g>
    <g id="y.node.25">
      <g fill="white" transform="matrix(0.9704,0,0,0.9704,28.142,9.7041)" stroke="white">
        <rect width="77" x="673" height="41" y="177" stroke="none"/>
        <rect x="673" y="177" fill="none" width="77" height="41" stroke="black"/>
      </g>
      <g id="bla">
        <g font-family="sans-serif" transform="matrix(0.9704,0,0,0.9704,28.142,9.7041)">
          <text xml:space="preserve" x="684" y="196.0449" stroke="none">WARNEX </text>
          <text xml:space="preserve" x="680" y="210.0137" stroke="none"> (rdinp_l.f)</text>
        </g>
      </g>
    </g>
    <g id="y.node.22">
      <g fill="rgb(248,236,201)" transform="matrix(0.9704,0,0,0.9704,28.142,9.7041)" stroke="rgb(248,236,201)">
        <rect width="110" x="528" height="75.9375" y="158.9062" stroke="none"/>
      </g>
      <g id="bla">
        <g fill="rgb(64,64,64)" transform="matrix(0.9704,0,0,0.9704,28.142,9.7041)" stroke="rgb(64,64,64)">
          <rect width="110" x="528" height="4" y="158.9062" stroke="none"/>
        </g>
      </g>
      <g fill="white" transform="matrix(0.9704,0,0,0.9704,28.142,9.7041)" stroke="white">
        <rect width="1" x="528" height="75.9375" y="158.9062" stroke="none"/>
        <rect width="108" x="529" height="1" y="158.9062" stroke="none"/>
        <rect x="529" y="233.8438" fill="rgb(173,165,140)" width="109" height="1" stroke="none"/>
        <rect x="637" y="158.9062" fill="rgb(173,165,140)" width="1" height="74.9375" stroke="none"/>
      </g>
    </g>
    <g id="y.node.23">
      <g fill="white" transform="matrix(0.9704,0,0,0.9704,28.142,9.7041)" stroke="white">
        <rect width="80" x="543" height="41" y="177" stroke="none"/>
        <rect x="543" y="177" fill="none" width="80" height="41" stroke="black"/>
      </g>
      <g id="bla">
        <g font-family="sans-serif" transform="matrix(0.9704,0,0,0.9704,28.142,9.7041)">
          <text xml:space="preserve" x="556.5" y="196.0449" stroke="none">SETEDG </text>
          <text xml:space="preserve" x="550" y="210.0137" stroke="none"> (setedg.f)</text>
        </g>
      </g>
    </g>
    <g id="y.node.16">
      <g fill="rgb(248,236,201)" transform="matrix(0.9704,0,0,0.9704,28.142,9.7041)" stroke="rgb(248,236,201)">
        <rect width="252" x="256" height="191.875" y="100.9375" stroke="none"/>
      </g>
      <g id="bla">
        <g fill="rgb(64,64,64)" transform="matrix(0.9704,0,0,0.9704,28.142,9.7041)" stroke="rgb(64,64,64)">
          <rect width="252" x="256" height="4" y="100.9375" stroke="none"/>
        </g>
      </g>
      <g fill="white" transform="matrix(0.9704,0,0,0.9704,28.142,9.7041)" stroke="white">
        <rect width="1" x="256" height="191.875" y="100.9375" stroke="none"/>
        <rect width="250" x="257" height="1" y="100.9375" stroke="none"/>
        <rect x="257" y="291.8125" fill="rgb(173,165,140)" width="251" height="1" stroke="none"/>
        <rect x="507" y="100.9375" fill="rgb(173,165,140)" width="1" height="190.875" stroke="none"/>
      </g>
    </g>
    <g id="y.node.20">
      <g fill="rgb(248,236,201)" transform="matrix(0.9704,0,0,0.9704,28.142,9.7041)" stroke="rgb(248,236,201)">
        <rect width="101" x="392" height="75.9375" y="201.875" stroke="none"/>
      </g>
      <g id="bla">
        <g fill="rgb(64,64,64)" transform="matrix(0.9704,0,0,0.9704,28.142,9.7041)" stroke="rgb(64,64,64)">
          <rect width="101" x="392" height="4" y="201.875" stroke="none"/>
        </g>
      </g>
      <g fill="white" transform="matrix(0.9704,0,0,0.9704,28.142,9.7041)" stroke="white">
        <rect width="1" x="392" height="75.9375" y="201.875" stroke="none"/>
        <rect width="99" x="393" height="1" y="201.875" stroke="none"/>
        <rect x="393" y="276.8125" fill="rgb(173,165,140)" width="100" height="1" stroke="none"/>
        <rect x="492" y="201.875" fill="rgb(173,165,140)" width="1" height="74.9375" stroke="none"/>
      </g>
    </g>
    <g id="y.node.21">
      <g fill="white" transform="matrix(0.9704,0,0,0.9704,28.142,9.7041)" stroke="white">
        <rect width="71" x="407" height="41" y="220" stroke="none"/>
        <rect x="407" y="220" fill="none" width="71" height="41" stroke="black"/>
      </g>
      <g id="bla">
        <g font-family="sans-serif" transform="matrix(0.9704,0,0,0.9704,28.142,9.7041)">
          <text xml:space="preserve" x="417" y="239.0137" stroke="none">OPENFL </text>
          <text xml:space="preserve" x="414" y="252.9824" stroke="none"> (rdline.f)</text>
        </g>
      </g>
    </g>
    <g id="y.node.18">
      <g fill="rgb(248,236,201)" transform="matrix(0.9704,0,0,0.9704,28.142,9.7041)" stroke="rgb(248,236,201)">
        <rect width="101" x="271" height="75.9375" y="201.875" stroke="none"/>
      </g>
      <g id="bla">
        <g fill="rgb(64,64,64)" transform="matrix(0.9704,0,0,0.9704,28.142,9.7041)" stroke="rgb(64,64,64)">
          <rect width="101" x="271" height="4" y="201.875" stroke="none"/>
        </g>
      </g>
      <g fill="white" transform="matrix(0.9704,0,0,0.9704,28.142,9.7041)" stroke="white">
        <rect width="1" x="271" height="75.9375" y="201.875" stroke="none"/>
        <rect width="99" x="272" height="1" y="201.875" stroke="none"/>
        <rect x="272" y="276.8125" fill="rgb(173,165,140)" width="100" height="1" stroke="none"/>
        <rect x="371" y="201.875" fill="rgb(173,165,140)" width="1" height="74.9375" stroke="none"/>
      </g>
    </g>
    <g id="y.node.19">
      <g fill="white" transform="matrix(0.9704,0,0,0.9704,28.142,9.7041)" stroke="white">
        <rect width="71" x="286" height="41" y="220" stroke="none"/>
        <rect x="286" y="220" fill="none" width="71" height="41" stroke="black"/>
      </g>
      <g id="bla">
        <g font-family="sans-serif" transform="matrix(0.9704,0,0,0.9704,28.142,9.7041)">
          <text xml:space="preserve" x="296.5" y="239.0137" stroke="none">GETFLN </text>
          <text xml:space="preserve" x="293" y="252.9824" stroke="none"> (rdline.f)</text>
        </g>
      </g>
    </g>
    <g id="y.node.17">
      <g fill="white" transform="matrix(0.9704,0,0,0.9704,28.142,9.7041)" stroke="white">
        <rect width="71" x="346" height="41" y="119" stroke="none"/>
        <rect x="346" y="119" fill="none" width="71" height="41" stroke="black"/>
      </g>
      <g id="bla">
        <g font-family="sans-serif" transform="matrix(0.9704,0,0,0.9704,28.142,9.7041)">
          <text xml:space="preserve" x="358.5" y="138.0762" stroke="none">RDLINE </text>
          <text xml:space="preserve" x="353.5" y="152.0449" stroke="none"> (rdline.f)</text>
        </g>
      </g>
    </g>
    <g id="y.node.14">
      <g fill="rgb(248,236,201)" transform="matrix(0.9704,0,0,0.9704,28.142,9.7041)" stroke="rgb(248,236,201)">
        <rect width="107" x="129" height="75.9375" y="158.9062" stroke="none"/>
      </g>
      <g id="bla">
        <g fill="rgb(64,64,64)" transform="matrix(0.9704,0,0,0.9704,28.142,9.7041)" stroke="rgb(64,64,64)">
          <rect width="107" x="129" height="4" y="158.9062" stroke="none"/>
        </g>
      </g>
      <g fill="white" transform="matrix(0.9704,0,0,0.9704,28.142,9.7041)" stroke="white">
        <rect width="1" x="129" height="75.9375" y="158.9062" stroke="none"/>
        <rect width="105" x="130" height="1" y="158.9062" stroke="none"/>
        <rect x="130" y="233.8438" fill="rgb(173,165,140)" width="106" height="1" stroke="none"/>
        <rect x="235" y="158.9062" fill="rgb(173,165,140)" width="1" height="74.9375" stroke="none"/>
      </g>
    </g>
    <g id="y.node.15">
      <g fill="white" transform="matrix(0.9704,0,0,0.9704,28.142,9.7041)" stroke="white">
        <rect width="77" x="144" height="41" y="177" stroke="none"/>
        <rect x="144" y="177" fill="none" width="77" height="41" stroke="black"/>
      </g>
      <g id="bla">
        <g font-family="sans-serif" transform="matrix(0.9704,0,0,0.9704,28.142,9.7041)">
          <text xml:space="preserve" x="156" y="196.0449" stroke="none">PHSTOP </text>
          <text xml:space="preserve" x="151" y="210.0137" stroke="none"> (rdinp_l.f)</text>
        </g>
      </g>
    </g>
    <g id="y.node.12">
      <g fill="rgb(248,236,201)" transform="matrix(0.9704,0,0,0.9704,28.142,9.7041)" stroke="rgb(248,236,201)">
        <rect width="94" x="15" height="75.9375" y="158.9062" stroke="none"/>
      </g>
      <g id="bla">
        <g fill="rgb(64,64,64)" transform="matrix(0.9704,0,0,0.9704,28.142,9.7041)" stroke="rgb(64,64,64)">
          <rect width="94" x="15" height="4" y="158.9062" stroke="none"/>
        </g>
      </g>
      <g fill="white" transform="matrix(0.9704,0,0,0.9704,28.142,9.7041)" stroke="white">
        <rect width="1" x="15" height="75.9375" y="158.9062" stroke="none"/>
        <rect width="92" x="16" height="1" y="158.9062" stroke="none"/>
        <rect x="16" y="233.8438" fill="rgb(173,165,140)" width="93" height="1" stroke="none"/>
        <rect x="108" y="158.9062" fill="rgb(173,165,140)" width="1" height="74.9375" stroke="none"/>
      </g>
    </g>
    <g id="y.node.13">
      <g fill="white" transform="matrix(0.9704,0,0,0.9704,28.142,9.7041)" stroke="white">
        <rect width="64" x="30" height="41" y="177" stroke="none"/>
        <rect x="30" y="177" fill="none" width="64" height="41" stroke="black"/>
      </g>
      <g id="bla">
        <g font-family="sans-serif" transform="matrix(0.9704,0,0,0.9704,28.142,9.7041)">
          <text xml:space="preserve" x="42.5" y="196.0449" stroke="none">INIALL </text>
          <text xml:space="preserve" x="37" y="210.0137" stroke="none"> (iniall.f)</text>
        </g>
      </g>
    </g>
    <g id="y.node.2">
      <g fill="rgb(248,236,201)" transform="matrix(0.9704,0,0,0.9704,28.142,9.7041)" stroke="rgb(248,236,201)">
        <rect width="450" x="1494.25" height="307.8125" y="332.8125" stroke="none"/>
      </g>
      <g id="bla">
        <g fill="rgb(64,64,64)" transform="matrix(0.9704,0,0,0.9704,28.142,9.7041)" stroke="rgb(64,64,64)">
          <rect width="450" x="1494.25" height="4" y="332.8125" stroke="none"/>
        </g>
      </g>
      <g fill="white" transform="matrix(0.9704,0,0,0.9704,28.142,9.7041)" stroke="white">
        <rect width="1" x="1494.25" height="307.8125" y="332.8125" stroke="none"/>
        <rect width="448" x="1495.25" height="1" y="332.8125" stroke="none"/>
        <rect x="1495.25" y="639.625" fill="rgb(173,165,140)" width="449" height="1" stroke="none"/>
        <rect x="1943.25" y="332.8125" fill="rgb(173,165,140)" width="1" height="306.8125" stroke="none"/>
      </g>
    </g>
    <g id="y.node.8">
      <g fill="rgb(248,236,201)" transform="matrix(0.9704,0,0,0.9704,28.142,9.7041)" stroke="rgb(248,236,201)">
        <rect width="132" x="1797.25" height="191.875" y="433.75" stroke="none"/>
      </g>
      <g id="bla">
        <g fill="rgb(64,64,64)" transform="matrix(0.9704,0,0,0.9704,28.142,9.7041)" stroke="rgb(64,64,64)">
          <rect width="132" x="1797.25" height="4" y="433.75" stroke="none"/>
        </g>
      </g>
      <g fill="white" transform="matrix(0.9704,0,0,0.9704,28.142,9.7041)" stroke="white">
        <rect width="1" x="1797.25" height="191.875" y="433.75" stroke="none"/>
        <rect width="130" x="1798.25" height="1" y="433.75" stroke="none"/>
        <rect x="1798.25" y="624.625" fill="rgb(173,165,140)" width="131" height="1" stroke="none"/>
        <rect x="1928.25" y="433.75" fill="rgb(173,165,140)" width="1" height="190.875" stroke="none"/>
      </g>
    </g>
    <g id="y.node.10">
      <g fill="rgb(248,236,201)" transform="matrix(0.9704,0,0,0.9704,28.142,9.7041)" stroke="rgb(248,236,201)">
        <rect width="102" x="1812.25" height="75.9375" y="534.6875" stroke="none"/>
      </g>
      <g id="bla">
        <g fill="rgb(64,64,64)" transform="matrix(0.9704,0,0,0.9704,28.142,9.7041)" stroke="rgb(64,64,64)">
          <rect width="102" x="1812.25" height="4" y="534.6875" stroke="none"/>
        </g>
      </g>
      <g fill="white" transform="matrix(0.9704,0,0,0.9704,28.142,9.7041)" stroke="white">
        <rect width="1" x="1812.25" height="75.9375" y="534.6875" stroke="none"/>
        <rect width="100" x="1813.25" height="1" y="534.6875" stroke="none"/>
        <rect x="1813.25" y="609.625" fill="rgb(173,165,140)" width="101" height="1" stroke="none"/>
        <rect x="1913.25" y="534.6875" fill="rgb(173,165,140)" width="1" height="74.9375" stroke="none"/>
      </g>
    </g>
    <g id="y.node.11">
      <g fill="white" transform="matrix(0.9704,0,0,0.9704,28.142,9.7041)" stroke="white">
        <rect width="72" x="1827" height="41" y="553" stroke="none"/>
        <rect x="1827" y="553" fill="none" width="72" height="41" stroke="black"/>
      </g>
      <g id="bla">
        <g font-family="sans-serif" transform="matrix(0.9704,0,0,0.9704,28.142,9.7041)">
          <text xml:space="preserve" x="1837.75" y="571.8262" stroke="none">ROTATE </text>
          <text xml:space="preserve" x="1834.25" y="585.7949" stroke="none"> (mkptz.f)</text>
        </g>
      </g>
    </g>
    <g id="y.node.9">
      <g fill="white" transform="matrix(0.9704,0,0,0.9704,28.142,9.7041)" stroke="white">
        <rect width="72" x="1827" height="41" y="452" stroke="none"/>
        <rect x="1827" y="452" fill="none" width="72" height="41" stroke="black"/>
      </g>
      <g id="bla">
        <g font-family="sans-serif" transform="matrix(0.9704,0,0,0.9704,28.142,9.7041)">
          <text xml:space="preserve" x="1840.75" y="470.8887" stroke="none">MKPTZ </text>
          <text xml:space="preserve" x="1834.25" y="484.8574" stroke="none"> (mkptz.f)</text>
        </g>
      </g>
    </g>
    <g id="y.node.6">
      <g fill="rgb(248,236,201)" transform="matrix(0.9704,0,0,0.9704,28.142,9.7041)" stroke="rgb(248,236,201)">
        <rect width="129" x="1509.25" height="115.9375" y="471.7188" stroke="none"/>
      </g>
      <g id="bla">
        <g fill="rgb(64,64,64)" transform="matrix(0.9704,0,0,0.9704,28.142,9.7041)" stroke="rgb(64,64,64)">
          <rect width="129" x="1509.25" height="4" y="471.7188" stroke="none"/>
        </g>
      </g>
      <g fill="white" transform="matrix(0.9704,0,0,0.9704,28.142,9.7041)" stroke="white">
        <rect width="1" x="1509.25" height="115.9375" y="471.7188" stroke="none"/>
        <rect width="127" x="1510.25" height="1" y="471.7188" stroke="none"/>
        <rect x="1510.25" y="586.6562" fill="rgb(173,165,140)" width="128" height="1" stroke="none"/>
        <rect x="1637.25" y="471.7188" fill="rgb(173,165,140)" width="1" height="114.9375" stroke="none"/>
      </g>
    </g>
    <g id="y.node.7">
      <g fill="white" transform="matrix(0.9704,0,0,0.9704,28.142,9.7041)" stroke="white">
        <rect width="99" x="1524" height="41" y="530" stroke="none"/>
        <rect x="1524" y="530" fill="none" width="99" height="41" stroke="black"/>
      </g>
      <g id="bla">
        <g font-family="sans-serif" transform="matrix(0.9704,0,0,0.9704,28.142,9.7041)">
          <text xml:space="preserve" x="1531.25" y="548.8574" stroke="none">JSON_GLOBAL </text>
          <text xml:space="preserve" x="1544.25" y="562.8262" stroke="none"> (wrtjsn.f)</text>
        </g>
      </g>
    </g>
    <g id="y.node.4">
      <g fill="rgb(248,236,201)" transform="matrix(0.9704,0,0,0.9704,28.142,9.7041)" stroke="rgb(248,236,201)">
        <rect width="119" x="1658.25" height="75.9375" y="491.7188" stroke="none"/>
      </g>
      <g id="bla">
        <g fill="rgb(64,64,64)" transform="matrix(0.9704,0,0,0.9704,28.142,9.7041)" stroke="rgb(64,64,64)">
          <rect width="119" x="1658.25" height="4" y="491.7188" stroke="none"/>
        </g>
      </g>
      <g fill="white" transform="matrix(0.9704,0,0,0.9704,28.142,9.7041)" stroke="white">
        <rect width="1" x="1658.25" height="75.9375" y="491.7188" stroke="none"/>
        <rect width="117" x="1659.25" height="1" y="491.7188" stroke="none"/>
        <rect x="1659.25" y="566.6562" fill="rgb(173,165,140)" width="118" height="1" stroke="none"/>
        <rect x="1776.25" y="491.7188" fill="rgb(173,165,140)" width="1" height="74.9375" stroke="none"/>
      </g>
    </g>
    <g id="y.node.5">
      <g fill="white" transform="matrix(0.9704,0,0,0.9704,28.142,9.7041)" stroke="white">
        <rect width="89" x="1673" height="41" y="510" stroke="none"/>
        <rect x="1673" y="510" fill="none" width="89" height="41" stroke="black"/>
      </g>
      <g id="bla">
        <g font-family="sans-serif" transform="matrix(0.9704,0,0,0.9704,28.142,9.7041)">
          <text xml:space="preserve" x="1680.25" y="528.8574" stroke="none">JSON_GEOM </text>
          <text xml:space="preserve" x="1688.25" y="542.8262" stroke="none"> (wrtjsn.f)</text>
        </g>
      </g>
    </g>
    <g id="y.node.3">
      <g fill="white" transform="matrix(0.9704,0,0,0.9704,28.142,9.7041)" stroke="white">
        <rect width="69" x="1683" height="41" y="351" stroke="none"/>
        <rect x="1683" y="351" fill="none" width="69" height="41" stroke="black"/>
      </g>
      <g id="bla">
        <g font-family="sans-serif" transform="matrix(0.9704,0,0,0.9704,28.142,9.7041)">
          <text xml:space="preserve" x="1692.75" y="369.9512" stroke="none">FFSORT </text>
          <text xml:space="preserve" x="1690.25" y="383.9199" stroke="none"> (ffsort.f)</text>
        </g>
      </g>
    </g>
    <g id="y.node.1">
      <g fill="white" transform="matrix(0.9704,0,0,0.9704,28.142,9.7041)" stroke="white">
        <rect width="77" x="544" height="41" y="19" stroke="none"/>
        <rect x="544" y="19" fill="none" width="77" height="41" stroke="black"/>
      </g>
      <g id="bla">
        <g font-family="sans-serif" transform="matrix(0.9704,0,0,0.9704,28.142,9.7041)">
          <text xml:space="preserve" x="562.5" y="37.1387" stroke="none">RDINP </text>
          <text xml:space="preserve" x="551.5" y="51.1074" stroke="none"> (rdinp_l.f)</text>
        </g>
      </g>
    </g>
    <g id="y.edge.0">
      <g stroke-miterlimit="1.45" transform="matrix(0.9704,0,0,0.9704,28.142,9.7041)" stroke-linecap="butt">
        <path fill="none" d="M616.0317 60.9387 L1656 100.9375 L1656 292.8125 L1717.75 332.8125 L1717.75 343.7754"/>
        <path d="M1717.75 351.7754 L1722.75 339.7754 L1717.75 342.7754 L1712.75 339.7754 Z" stroke="none"/>
      </g>
    </g>
    <g id="y.edge.1">
      <g stroke-miterlimit="1.45" transform="matrix(0.9704,0,0,0.9704,28.142,9.7041)" stroke-linecap="butt">
        <path fill="none" d="M549.9702 60.9399 L62 100.9375 L62 169.8687"/>
        <path d="M62 177.8687 L67 165.8687 L62 168.8687 L57 165.8687 Z" stroke="none"/>
      </g>
    </g>
    <g id="y.edge.2">
      <g stroke-miterlimit="1.45" transform="matrix(0.9704,0,0,0.9704,28.142,9.7041)" stroke-linecap="butt">
        <path fill="none" d="M560.9538 60.9424 L182.5 100.9375 L182.5 169.8687"/>
        <path d="M182.5 177.8687 L187.5 165.8687 L182.5 168.8687 L177.5 165.8687 Z" stroke="none"/>
      </g>
    </g>
    <g id="y.edge.3">
      <g stroke-miterlimit="1.45" transform="matrix(0.9704,0,0,0.9704,28.142,9.7041)" stroke-linecap="butt">
        <path fill="none" d="M571.9536 60.9473 L382 100.9375 L382 111.9004"/>
        <path d="M382 119.9004 L387 107.9004 L382 110.9004 L377 107.9004 Z" stroke="none"/>
      </g>
    </g>
    <g id="y.edge.4">
      <g stroke-miterlimit="1.45" transform="matrix(0.9704,0,0,0.9704,28.142,9.7041)" stroke-linecap="butt">
        <path fill="none" d="M583 60.9661 L583 169.8777"/>
        <path d="M583 177.8777 L588 165.8777 L583 168.8777 L578 165.8777 Z" stroke="none"/>
      </g>
    </g>
    <g id="y.edge.5">
      <g stroke-miterlimit="1.45" transform="matrix(0.9704,0,0,0.9704,28.142,9.7041)" stroke-linecap="butt">
        <path fill="none" d="M594.0287 60.9473 L711.5 100.9375 L711.5 169.8687"/>
        <path d="M711.5 177.8687 L716.5 165.8687 L711.5 168.8687 L706.5 165.8687 Z" stroke="none"/>
      </g>
    </g>
    <g id="y.edge.6">
      <g stroke-miterlimit="1.45" transform="matrix(0.9704,0,0,0.9704,28.142,9.7041)" stroke-linecap="butt">
        <path fill="none" d="M605.0414 60.9399 L1282.5 100.9375 L1282.5 111.9004"/>
        <path d="M1282.5 119.9004 L1287.5 107.9004 L1282.5 110.9004 L1277.5 107.9004 Z" stroke="none"/>
      </g>
    </g>
    <g id="y.edge.7">
      <g stroke-miterlimit="1.45" transform="matrix(0.9704,0,0,0.9704,28.142,9.7041)" stroke-linecap="butt">
        <path fill="none" d="M1717.75 393.7786 L1717.75 502.6902"/>
        <path d="M1717.75 510.6902 L1722.75 498.6902 L1717.75 501.6902 L1712.75 498.6902 Z" stroke="none"/>
      </g>
    </g>
    <g id="y.edge.8">
      <g stroke-miterlimit="1.45" transform="matrix(0.9704,0,0,0.9704,28.142,9.7041)" stroke-linecap="butt">
        <path fill="none" d="M1694.7217 393.7598 L1578.75 433.75 L1578.75 490.7188 L1594.939 523.5064"/>
        <path d="M1598.4807 530.6797 L1597.6512 517.7062 L1594.4962 522.6098 L1588.6847 522.1334 Z" stroke="none"/>
      </g>
    </g>
    <g id="y.edge.9">
      <g stroke-miterlimit="1.45" transform="matrix(0.9704,0,0,0.9704,28.142,9.7041)" stroke-linecap="butt">
        <path fill="none" d="M1740.7799 393.7598 L1863.25 433.75 L1863.25 444.7129"/>
        <path d="M1863.25 452.7129 L1868.25 440.7129 L1863.25 443.7129 L1858.25 440.7129 Z" stroke="none"/>
      </g>
    </g>
    <g id="y.edge.10">
      <g stroke-miterlimit="1.45" transform="matrix(0.9704,0,0,0.9704,28.142,9.7041)" stroke-linecap="butt">
        <path fill="none" d="M1863.25 494.7163 L1863.25 545.6587"/>
        <path d="M1863.25 553.6587 L1868.25 541.6587 L1863.25 544.6587 L1858.25 541.6587 Z" stroke="none"/>
      </g>
    </g>
    <g id="y.edge.11">
      <g stroke-miterlimit="1.45" transform="matrix(0.9704,0,0,0.9704,28.142,9.7041)" stroke-linecap="butt">
        <path fill="none" d="M364.2291 161.8945 L321.5 201.875 L321.5 212.8379"/>
        <path d="M321.5 220.8379 L326.5 208.8379 L321.5 211.8379 L316.5 208.8379 Z" stroke="none"/>
      </g>
    </g>
    <g id="y.edge.12">
      <g stroke-miterlimit="1.45" transform="matrix(0.9704,0,0,0.9704,28.142,9.7041)" stroke-linecap="butt">
        <path fill="none" d="M399.7709 161.8945 L442.5 201.875 L442.5 212.8379"/>
        <path d="M442.5 220.8379 L447.5 208.8379 L442.5 211.8379 L437.5 208.8379 Z" stroke="none"/>
      </g>
    </g>
    <g id="y.edge.13">
      <g stroke-miterlimit="1.45" transform="matrix(0.9704,0,0,0.9704,28.142,9.7041)" stroke-linecap="butt">
        <path fill="none" d="M1251.1669 161.8799 L862.5 201.875 L862.5 212.8379"/>
        <path d="M862.5 220.8379 L867.5 208.8379 L862.5 211.8379 L857.5 208.8379 Z" stroke="none"/>
      </g>
    </g>
    <g id="y.edge.14">
      <g stroke-miterlimit="1.45" transform="matrix(0.9704,0,0,0.9704,28.142,9.7041)" stroke-linecap="butt">
        <path fill="none" d="M1313.8243 161.8799 L1630.5 201.875 L1630.5 292.8125 L1568.75 332.8125 L1568.75 490.7188 L1552.561 523.5064"/>
        <path d="M1549.0193 530.6797 L1558.8153 522.1334 L1553.0038 522.6098 L1549.8488 517.7062 Z" stroke="none"/>
      </g>
    </g>
    <g id="y.edge.15">
      <g stroke-miterlimit="1.45" transform="matrix(0.9704,0,0,0.9704,28.142,9.7041)" stroke-linecap="butt">
        <path fill="none" d="M1261.6115 161.8799 L1004.5 201.875 L1004.5 212.8379"/>
        <path d="M1004.5 220.8379 L1009.5 208.8379 L1004.5 211.8379 L999.5 208.8379 Z" stroke="none"/>
      </g>
    </g>
    <g id="y.edge.16">
      <g stroke-miterlimit="1.45" transform="matrix(0.9704,0,0,0.9704,28.142,9.7041)" stroke-linecap="butt">
        <path fill="none" d="M1272.04 161.8848 L1143.5 201.875 L1143.5 212.8379"/>
        <path d="M1143.5 220.8379 L1148.5 208.8379 L1143.5 211.8379 L1138.5 208.8379 Z" stroke="none"/>
      </g>
    </g>
    <g id="y.edge.17">
      <g stroke-miterlimit="1.45" transform="matrix(0.9704,0,0,0.9704,28.142,9.7041)" stroke-linecap="butt">
        <path fill="none" d="M1282.5 161.9038 L1282.5 212.8462"/>
        <path d="M1282.5 220.8462 L1287.5 208.8462 L1282.5 211.8462 L1277.5 208.8462 Z" stroke="none"/>
      </g>
    </g>
    <g id="y.edge.18">
      <g stroke-miterlimit="1.45" transform="matrix(0.9704,0,0,0.9704,28.142,9.7041)" stroke-linecap="butt">
        <path fill="none" d="M1292.96 161.8848 L1421.5 201.875 L1421.5 212.8379"/>
        <path d="M1421.5 220.8379 L1426.5 208.8379 L1421.5 211.8379 L1416.5 208.8379 Z" stroke="none"/>
      </g>
    </g>
    <g id="y.edge.19">
      <g stroke-miterlimit="1.45" transform="matrix(0.9704,0,0,0.9704,28.142,9.7041)" stroke-linecap="butt">
        <path fill="none" d="M1303.3885 161.8799 L1560.5 201.875 L1560.5 212.8379"/>
        <path d="M1560.5 220.8379 L1565.5 208.8379 L1560.5 211.8379 L1555.5 208.8379 Z" stroke="none"/>
      </g>
    </g>
  </g>
</svg>
